SplineFontDB: 3.2
FontName: AeMRoman12-Italic
FullName: AeMRoman12-Italic
FamilyName: AeMRoman12
Weight: Normal
Copyright: Copyright 2021 Palle Jorgensen.\n\nBased on the Latin Modern fonts, copyright 2003, 2009 B. Jackowski and J. M. Nowacki (on behalf of TeX users groups). This work is released under the GUST Font License --  see http://tug.org/fonts/licenses/GUST-FONT-LICENSE.txt for details.\n\nThe ae-ligature is from the cm-super fonts, copyright 2001, 2002, 2008 Vladimir Volovich released under GPL.
Version: 1
ItalicAngle: -14.0362
UnderlinePosition: -175
UnderlineWidth: 44
Ascent: 806
Descent: 194
InvalidEm: 0
LayerCount: 2
Layer: 0 0 "Back" 1
Layer: 1 0 "Fore" 0
XUID: [1021 259 529409426 14937871]
StyleMap: 0x0001
FSType: 12
OS2Version: 3
OS2_WeightWidthSlopeOnly: 0
OS2_UseTypoMetrics: 0
CreationTime: 1254995977
ModificationTime: 1614845047
PfmFamily: 81
TTFWeight: 400
TTFWidth: 5
LineGap: 0
VLineGap: 0
Panose: 0 0 5 0 0 0 0 0 0 0
OS2TypoAscent: 806
OS2TypoAOffset: 0
OS2TypoDescent: -194
OS2TypoDOffset: 0
OS2TypoLinegap: 200
OS2WinAscent: 1125
OS2WinAOffset: 0
OS2WinDescent: 289
OS2WinDOffset: 0
HheadAscent: 1125
HheadAOffset: 0
HheadDescent: -289
HheadDOffset: 0
OS2SubXSize: 650
OS2SubYSize: 600
OS2SubXOff: -19
OS2SubYOff: 75
OS2SupXSize: 650
OS2SupYSize: 600
OS2SupXOff: 87
OS2SupYOff: 350
OS2StrikeYSize: 44
OS2StrikeYPos: 258
OS2CapHeight: 683
OS2XHeight: 431
OS2Vendor: 'UKWN'
OS2CodePages: 20000193.00000000
OS2UnicodeRanges: 20000007.00000000.00000000.00000000
Lookup: 1 0 0 "'aalt' Access All Alternates lookup 0" { "'aalt' Access All Alternates lookup 0 subtable"  } ['aalt' ('DFLT' <'dflt' > 'cyrl' <'dflt' > 'latn' <'AZE ' 'CRT ' 'MOL ' 'NLD ' 'PLK ' 'ROM ' 'TRK ' 'dflt' > ) ]
Lookup: 3 0 0 "'aalt' Access All Alternates lookup 1" { "'aalt' Access All Alternates lookup 1 subtable"  } ['aalt' ('DFLT' <'dflt' > 'cyrl' <'dflt' > 'latn' <'AZE ' 'CRT ' 'MOL ' 'NLD ' 'PLK ' 'ROM ' 'TRK ' 'dflt' > ) ]

StartChar: acute.dup
Encoding: 65537 -1 1
Width: 500
Flags: MW
HStem: 507 21G<335.5 340> 676 20G<497 511.5>
LayerCount: 2
Fore
SplineSet
531 669 m 0
 531 654 518 644 511 639 c 2
 351 513 l 2
 348 510 342 507 338 507 c 0
 333 507 324 514 324 522 c 0
 324 525 324 527 333 535 c 2
 476 682 l 1
 476 682 490 696 504 696 c 0
 519 696 531 684 531 669 c 0
EndSplineSet
EndChar

StartChar: AE.dup
Encoding: 65538 -1 2
Width: 863
Flags: MW
HStem: 0 29<213 234 353.5 361 361 382 511 604 604 675.5> 314 29<347 478 331 486 555 631> 654 29<444 907 455 469 655.5 672 672 763>
LayerCount: 2
Fore
SplineSet
873 246 m 2
 873 246 873 243 869 234 c 2
 781 16 l 2
 775 1 774 0 754 0 c 2
 361 0 l 2
 345 0 337 0 337 10 c 0
 337 29 346 29 361 29 c 0
 403 29 409 37 417 68 c 2
 478 314 l 1
 331 314 l 1
 208 103 l 2
 206 100 193 77 193 62 c 0
 193 38 213 31 231 29 c 0
 237 29 244 28 244 18 c 0
 244 0 232 0 226 0 c 0
 200 0 171 2 144 2 c 0
 88 2 68 0 68 0 c 2
 59 0 57 6 57 10 c 0
 57 27 65 28 75 29 c 0
 108 32 145 41 185 111 c 2
 498 653 l 1
 490 654 478 654 469 654 c 2
 452 654 l 2
 436 654 428 654 428 664 c 0
 428 683 437 683 455 683 c 2
 907 683 l 2
 928 683 933 683 930 658 c 2
 906 482 l 2
 903 463 903 460 890 460 c 0
 887 460 877 460 877 470 c 0
 877 473 879 490 879 495 c 0
 882 517 885 539 885 561 c 0
 885 618 870 654 763 654 c 2
 672 654 l 2
 639 654 632 654 623 616 c 2
 555 343 l 1
 634 343 l 2
 715 343 731 368 750 443 c 0
 754 457 755 460 767 460 c 0
 770 460 780 460 780 450 c 2
 722 214 l 2
 719 200 717 197 706 197 c 0
 701 197 692 197 692 208 c 2
 692 208 692 210 694 218 c 0
 702 251 703 262 703 272 c 0
 703 300 693 314 631 314 c 2
 548 314 l 1
 485 61 l 2
 481 47 481 45 481 41 c 0
 481 30 482 29 511 29 c 2
 604 29 l 2
 747 29 782 93 834 220 c 0
 839 231 847 251 849 253 c 0
 852 256 855 256 860 256 c 0
 863 256 873 256 873 246 c 2
486 343 m 1
 552 610 l 2
 556 624 556 626 556 630 c 0
 556 639 552 651 526 651 c 1
 347 343 l 1
 486 343 l 1
EndSplineSet
EndChar

StartChar: ae.dup
Encoding: 65539 -1 3
Width: 700
Flags: MW
HStem: -10 20<211 249.5 471 523.5> 232 20<440 468 468 479 434 468> 421 20<579.5 626>
VStem: 92 67<66 104.5> 669 34<310 376.5>
LayerCount: 2
Fore
SplineSet
682 105 m 0
 682 92 607 -10 500 -10 c 0
 439 -10 406 32 392 63 c 1
 380 16 l 2
 374 -5 360 -10 350 -10 c 0
 334 -10 327 2 327 11 c 0
 327 15 334 44 337 58 c 1
 317 35 277 -10 222 -10 c 0
 151 -10 92 33 92 99 c 0
 92 110 92 287 428 416 c 1
 434 441 458 441 458 441 c 1
 472 441 480 433 480 419 c 0
 480 412 475 393 473 386 c 1
 501 410 552 441 607 441 c 0
 666 441 703 403 703 358 c 0
 703 232 519 232 479 232 c 2
 434 232 l 1
 420 171 420 136 420 132 c 0
 420 76 441 10 501 10 c 0
 546 10 608 38 657 111 c 0
 663 119 664 120 668 120 c 0
 674 120 682 112 682 105 c 0
669 359 m 0
 669 394 646 421 606 421 c 0
 552 421 470 371 440 252 c 1
 468 252 l 2
 533 252 669 261 669 359 c 0
360 144 m 2
 421 391 l 1
 241 315 159 161 159 74 c 0
 159 25 197 10 225 10 c 0
 292 10 354 119 360 144 c 2
EndSplineSet
EndChar

StartChar: cedilla.dup
Encoding: 65540 -1 4
Width: 450
Flags: W
LayerCount: 2
Fore
SplineSet
326 -109 m 0
 326 -192 193 -192 112 -192 c 0
 106 -192 100 -190 100 -182 c 0
 100 -177 102 -173 106 -172 c 0
 112 -171 114 -171 139 -171 c 0
 166 -171 266 -171 266 -109 c 0
 266 -75 226 -71 217 -70 c 0
 213 -70 205 -69 205 -60 c 0
 205 -57 217 -6 220 2 c 0
 222 7 223 8 244 8 c 2
 255 8 l 2
 271 8 279 8 280 2 c 0
 276 -12 270 -41 266 -55 c 1
 278 -57 326 -66 326 -109 c 0
EndSplineSet
EndChar

StartChar: circumflex.dup
Encoding: 65541 -1 5
Width: 500
Flags: W
LayerCount: 2
Fore
SplineSet
521 537 m 2
 529 527 511 513 503 521 c 2
 406 620 l 1
 257 521 l 2
 245 513 236 527 246 537 c 2
 412 681 l 2
 417 685 424 685 427 681 c 2
 521 537 l 2
EndSplineSet
EndChar

StartChar: dieresis.dup
Encoding: 65542 -1 6
Width: 500
Flags: MW
HStem: 558 87<315.5 325.5 475.5 485.5>
LayerCount: 2
Fore
SplineSet
365 609 m 0
 365 582 339 558 312 558 c 0
 295 558 276 570 276 594 c 0
 276 620 302 645 329 645 c 0
 347 645 365 635 365 609 c 0
525 609 m 0
 525 582 499 558 472 558 c 0
 455 558 436 570 436 594 c 0
 436 620 462 645 489 645 c 0
 507 645 525 635 525 609 c 0
EndSplineSet
EndChar

StartChar: Gcedilla
Encoding: 65543 -1 7
Width: 757
Flags: MW
HStem: -280 21G<285 293.5> -136 73<344 350.5> -21 29<368.5 408.5> 242 29<517 525 525 532 737 741.5> 675 29<534.5 594.5 461 633.5>
VStem: 148 80<159.5 249.5 131 361.5>
LayerCount: 2
Fore
SplineSet
751 261 m 0
 751 250 747 242 737 242 c 0
 685 241 684 240 671 188 c 2
 625 4 l 1
 625 4 622 1 618 1 c 0
 608 1 588 37 580 64 c 1
 521 -7 431 -21 386 -21 c 0
 254 -21 148 76 148 243 c 0
 148 480 360 704 562 704 c 0
 627 704 678 674 710 615 c 1
 775 695 l 2
 782 704 788 704 788 704 c 1
 788 704 797 704 797 695 c 2
 797 695 796 685 795 682 c 2
 734 438 l 2
 730 422 728 421 718 421 c 0
 713 421 705 421 705 430 c 2
 705 439 l 2
 708 454 710 477 710 492 c 0
 710 536 698 675 569 675 c 0
 500 675 414 637 344 552 c 0
 261 450 228 289 228 210 c 0
 228 52 332 8 405 8 c 0
 475 8 542 45 569 93 c 0
 584 120 604 218 604 222 c 0
 604 242 570 242 532 242 c 2
 525 242 l 2
 509 242 501 242 501 252 c 0
 501 271 512 271 521 271 c 0
 559 271 600 269 639 269 c 0
 672 269 707 271 739 271 c 0
 744 271 751 269 751 261 c 0
388 -104 m 0
 388 -190 300 -280 287 -280 c 0
 283 -280 280 -276 280 -273 c 0
 280 -271 281 -270 290 -261 c 0
 325 -231 358 -186 371 -124 c 1
 371 -124 359 -136 342 -136 c 0
 328 -136 312 -128 312 -107 c 0
 312 -84 332 -63 356 -63 c 0
 384 -63 388 -88 388 -104 c 0
EndSplineSet
EndChar

StartChar: gcedilla
Encoding: 65544 -1 8
Width: 450
Flags: MW
HStem: -204 19<163.5 209.5 163.5 219> 0 19<201 252.5> 422 19<310 355 279 362> 515 73<379.5 386> 712 20G<436.5 445>
VStem: 110 62<104 133 103 223>
LayerCount: 2
Fore
SplineSet
418 559 m 0
 418 536 398 515 374 515 c 0
 346 515 342 540 342 556 c 0
 342 642 430 732 443 732 c 0
 447 732 450 728 450 725 c 0
 450 723 449 722 440 713 c 0
 405 683 372 638 359 576 c 1
 359 576 371 588 388 588 c 0
 402 588 418 580 418 559 c 0
365 -60 m 2
 345 -139 270 -204 168 -204 c 0
 91 -204 52 -188 52 -150 c 0
 52 -118 77 -101 97 -101 c 0
 120 -101 129 -117 129 -130 c 0
 129 -144 120 -164 98 -173 c 1
 124 -184 158 -185 169 -185 c 0
 250 -185 288 -108 299 -77 c 2
 331 53 l 1
 324 46 279 0 226 0 c 0
 160 0 110 58 110 150 c 0
 110 296 226 441 332 441 c 0
 378 441 403 407 413 384 c 1
 414 384 l 1
 416 401 429 422 452 422 c 0
 470 422 478 409 478 398 c 2
 478 398 478 393 475 382 c 2
 365 -60 l 2
397 313 m 2
 399 322 400 329 400 329 c 2
 400 335 392 422 332 422 c 0
 288 422 243 370 218 308 c 0
 202 270 172 157 172 109 c 0
 172 97 174 19 228 19 c 0
 282 19 343 97 351 130 c 2
 397 313 l 2
EndSplineSet
EndChar

StartChar: germandbls.dup
Encoding: 65545 -1 9
Width: 525
Flags: MW
HStem: -204 20<39 65 39 96.5> -164 73 -10 20<333 374.5 333 385> 48 56 402 29<144 217 154 211> 684 20<408 460.5>
VStem: -22 77<-163 -110.5> 240 58<75 77.5> 389 45<322 332> 509 59<590.5 624>
LayerCount: 2
Fore
SplineSet
512 166 m 0
 512 91 434 -10 336 -10 c 0
 290 -10 240 12 240 61 c 0
 240 94 261 104 274 104 c 0
 289 104 298 96 298 81 c 0
 298 69 291 53 270 49 c 1
 285 10 330 10 336 10 c 0
 413 10 440 147 440 162 c 0
 440 192 422 215 415 226 c 0
 406 236 389 259 389 305 c 0
 389 359 407 382 448 424 c 0
 489 465 509 581 509 600 c 0
 509 648 486 684 435 684 c 0
 381 684 345 659 333 644 c 0
 325 632 312 604 299 539 c 2
 211 88 l 2
 194 -2 152 -204 41 -204 c 0
 8 -204 -22 -182 -22 -144 c 0
 -22 -104 7 -91 24 -91 c 0
 41 -91 55 -101 55 -120 c 0
 55 -123 55 -159 11 -165 c 1
 19 -182 36 -184 42 -184 c 0
 88 -184 112 -108 138 27 c 2
 211 402 l 1
 152 402 l 2
 136 402 128 402 128 412 c 0
 128 431 137 431 154 431 c 2
 217 431 l 1
 237 534 l 2
 259 644 315 704 435 704 c 0
 518 704 568 656 568 592 c 0
 568 522 505 442 479 411 c 0
 458 386 434 358 434 334 c 0
 434 310 456 282 468 266 c 0
 485 246 512 212 512 166 c 0
EndSplineSet
EndChar

StartChar: hyphen.dup
Encoding: 65546 -1 10
Width: 350
Flags: MW
HStem: 190 52<101 308 118 299>
VStem: 85 247<195 237>
LayerCount: 2
Fore
SplineSet
332 232 m 0
 332 226 326 207 324 201 c 0
 321 190 319 190 299 190 c 2
 109 190 l 2
 93 190 85 190 85 200 c 0
 85 206 91 225 93 231 c 0
 96 242 98 242 118 242 c 2
 308 242 l 2
 324 242 332 242 332 232 c 0
EndSplineSet
EndChar

StartChar: Kcedilla
Encoding: 65547 -1 11
Width: 752
Flags: MW
HStem: -280 21G<283 291.5> -136 73<342 348.5> 0 29<84 97.5 280.5 301.5 488.5 498 674.5 679> 654 29<245.5 266 244 267.5 449.5 463.5>
LayerCount: 2
Fore
SplineSet
693 19 m 0
 693 0 682 0 676 0 c 0
 673 0 659 2 588 2 c 0
 555 2 521 0 489 0 c 0
 485 0 475 0 475 10 c 0
 475 28 485 29 492 29 c 0
 504 29 540 31 540 61 c 0
 540 68 540 70 535 82 c 2
 430 367 l 1
 287 246 l 1
 246 84 238 54 238 46 c 0
 238 37 238 29 294 29 c 0
 309 29 317 29 317 19 c 0
 317 0 306 0 298 0 c 0
 263 0 224 2 188 2 c 0
 152 2 115 0 80 0 c 0
 76 0 66 0 66 10 c 0
 66 29 75 29 93 29 c 0
 154 29 160 37 169 72 c 2
 306 623 l 2
 308 629 308 632 308 638 c 0
 308 654 280 654 255 654 c 0
 236 654 229 654 229 664 c 0
 229 683 240 683 248 683 c 0
 284 683 322 681 359 681 c 0
 395 681 432 683 467 683 c 0
 472 683 481 683 481 672 c 0
 481 654 472 654 455 654 c 0
 393 654 387 646 378 612 c 2
 297 288 l 1
 653 586 l 2
 657 590 658 591 662 594 c 0
 664 597 665 598 668 600 c 0
 675 606 687 617 687 635 c 0
 687 648 677 653 664 654 c 0
 660 654 652 655 652 664 c 0
 652 683 663 683 671 683 c 0
 700 683 732 681 762 681 c 0
 785 681 811 683 833 683 c 0
 839 683 844 679 844 673 c 0
 844 656 835 655 827 654 c 0
 798 651 761 644 676 573 c 2
 490 417 l 1
 618 70 l 2
 630 38 643 30 674 29 c 0
 686 29 693 28 693 19 c 0
386 -104 m 0
 386 -190 298 -280 285 -280 c 0
 281 -280 278 -276 278 -273 c 0
 278 -271 279 -270 288 -261 c 0
 323 -231 356 -186 369 -124 c 1
 369 -124 357 -136 340 -136 c 0
 326 -136 310 -128 310 -107 c 0
 310 -84 330 -63 354 -63 c 0
 382 -63 386 -88 386 -104 c 0
EndSplineSet
EndChar

StartChar: kcedilla
Encoding: 65548 -1 12
Width: 450
Flags: MW
HStem: -280 21G<132 140.5> -136 73<191 197.5> -10 20<356 381.5> 421 20<406 439>
VStem: 289 60<141.5 177.5> 417 77<369 370.5>
LayerCount: 2
Fore
SplineSet
473 143 m 0
 473 138 460 82 441 48 c 0
 424 16 400 -10 363 -10 c 0
 326 -10 282 14 282 85 c 0
 282 99 282 104 287 124 c 0
 289 134 289 139 289 144 c 0
 289 211 212 227 188 230 c 1
 136 23 l 2
 134 16 128 -10 100 -10 c 0
 83 -10 74 2 74 15 c 0
 74 18 75 20 78 33 c 2
 224 617 l 2
 225 621 227 631 227 635 c 0
 227 645 227 654 177 654 c 0
 163 654 155 654 155 664 c 0
 155 682 164 683 178 684 c 2
 278 693 l 2
 294 694 301 693 301 684 c 0
 301 681 300 677 298 671 c 2
 195 259 l 1
 213 267 233 275 289 342 c 0
 328 388 372 441 431 441 c 0
 475 441 494 411 494 385 c 0
 494 353 471 334 448 334 c 0
 433 334 417 342 417 363 c 0
 417 378 425 403 459 408 c 1
 458 410 449 421 429 421 c 0
 383 421 343 379 307 335 c 0
 267 288 247 265 218 249 c 1
 264 241 349 220 349 145 c 0
 349 134 349 130 344 111 c 0
 335 76 335 74 335 52 c 0
 335 21 347 10 365 10 c 0
 408 10 427 71 441 128 c 0
 447 151 448 152 460 152 c 0
 464 152 473 152 473 143 c 0
235 -104 m 0
 235 -190 147 -280 134 -280 c 0
 130 -280 127 -276 127 -273 c 0
 127 -271 128 -270 137 -261 c 0
 172 -231 205 -186 218 -124 c 1
 218 -124 206 -136 189 -136 c 0
 175 -136 159 -128 159 -107 c 0
 159 -84 179 -63 203 -63 c 0
 231 -63 235 -88 235 -104 c 0
EndSplineSet
EndChar

StartChar: Lcedilla
Encoding: 65549 -1 13
Width: 613
Flags: MW
HStem: -280 21G<214 222.5> -136 73<273 279.5> 0 29<84 90 90 123.5 267 349 349 426.5> 654 29<245.5 267 244 267.5 467 469 469 476>
LayerCount: 2
Fore
SplineSet
607 234 m 2
 531 17 l 2
 525 0 524 0 503 0 c 2
 90 0 l 2
 74 0 66 0 66 10 c 0
 66 29 75 29 93 29 c 0
 154 29 160 37 169 72 c 2
 306 623 l 2
 308 629 308 632 308 638 c 0
 308 654 280 654 255 654 c 0
 236 654 229 654 229 664 c 0
 229 683 240 683 248 683 c 0
 286 683 326 681 365 681 c 0
 405 681 447 683 487 683 c 0
 495 683 503 683 503 672 c 0
 503 654 493 654 476 654 c 2
 469 654 l 2
 393 654 386 645 377 608 c 2
 241 64 l 2
 239 57 237 49 237 41 c 0
 237 30 238 29 267 29 c 2
 349 29 l 2
 504 29 547 148 576 230 c 0
 585 255 586 256 597 256 c 0
 604 256 610 253 610 246 c 0
 610 243 608 237 607 234 c 2
317 -104 m 0
 317 -190 229 -280 216 -280 c 0
 212 -280 209 -276 209 -273 c 0
 209 -271 210 -270 219 -261 c 0
 254 -231 287 -186 300 -124 c 1
 300 -124 288 -136 271 -136 c 0
 257 -136 241 -128 241 -107 c 0
 241 -84 261 -63 285 -63 c 0
 313 -63 317 -88 317 -104 c 0
EndSplineSet
EndChar

StartChar: lcedilla
Encoding: 65550 -1 14
Width: 250
Flags: MW
HStem: -280 21G<32 40.5> -136 73<91 97.5> -10 21G<150 190>
VStem: 93 55<51.5 56.5 40.5 85.5>
LayerCount: 2
Fore
SplineSet
273 142 m 0
 273 139 259 74 241 41 c 0
 227 13 207 -10 173 -10 c 0
 127 -10 93 25 93 78 c 0
 93 93 96 104 98 113 c 2
 224 617 l 2
 225 621 227 631 227 635 c 0
 227 645 227 654 177 654 c 0
 163 654 155 654 155 664 c 0
 155 682 164 683 178 684 c 2
 278 693 l 2
 294 694 301 693 301 684 c 0
 301 681 299 677 298 671 c 2
 156 104 l 2
 153 91 148 63 148 50 c 0
 148 31 153 10 175 10 c 0
 209 10 226 70 239 119 c 0
 242 128 246 143 247 146 c 0
 249 152 256 152 260 152 c 0
 265 152 273 152 273 142 c 0
135 -104 m 0
 135 -190 47 -280 34 -280 c 0
 30 -280 27 -276 27 -273 c 0
 27 -271 28 -270 37 -261 c 0
 72 -231 105 -186 118 -124 c 1
 118 -124 106 -136 89 -136 c 0
 75 -136 59 -128 59 -107 c 0
 59 -84 79 -63 103 -63 c 0
 131 -63 135 -88 135 -104 c 0
EndSplineSet
EndChar

StartChar: macron.dup
Encoding: 65551 -1 15
Width: 500
Flags: MW
HStem: 588 28<254.5 539 265 537>
LayerCount: 2
Fore
SplineSet
563 606 m 0
 563 588 555 588 537 588 c 2
 263 588 l 2
 246 588 239 588 239 599 c 0
 239 616 248 616 265 616 c 2
 539 616 l 2
 555 616 563 616 563 606 c 0
EndSplineSet
EndChar

StartChar: Ncedilla
Encoding: 65552 -1 16
Width: 727
Flags: MW
HStem: -280 21G<270 278.5> -136 73<329 335.5> 0 29<78.5 81 78.5 92> 654 29<256 259.5 637.5 638 816 818>
LayerCount: 2
Fore
SplineSet
831 672 m 0
 831 655 820 654 816 654 c 0
 779 652 737 645 721 583 c 2
 580 18 l 2
 576 1 573 0 562 0 c 0
 550 0 549 3 545 15 c 2
 337 622 l 1
 205 95 l 1
 205 95 201 80 201 71 c 0
 201 37 229 30 259 29 c 0
 265 29 273 28 273 19 c 0
 273 0 262 0 256 0 c 0
 227 0 196 2 166 2 c 0
 137 2 106 0 78 0 c 0
 74 0 66 1 66 10 c 0
 66 28 76 29 81 29 c 0
 111 31 159 33 176 100 c 2
 313 648 l 1
 291 654 264 654 255 654 c 0
 236 654 229 654 229 664 c 0
 229 683 238 683 256 683 c 2
 370 683 l 2
 391 683 392 682 397 667 c 2
 579 137 l 1
 691 585 l 2
 692 591 695 603 695 612 c 0
 695 642 675 653 638 654 c 0
 631 654 623 655 623 664 c 0
 623 683 634 683 641 683 c 0
 670 683 701 681 731 681 c 0
 760 681 790 683 818 683 c 0
 822 683 831 683 831 672 c 0
373 -104 m 0
 373 -190 285 -280 272 -280 c 0
 268 -280 265 -276 265 -273 c 0
 265 -271 266 -270 275 -261 c 0
 310 -231 343 -186 356 -124 c 1
 356 -124 344 -136 327 -136 c 0
 313 -136 297 -128 297 -107 c 0
 297 -84 317 -63 341 -63 c 0
 369 -63 373 -88 373 -104 c 0
EndSplineSet
EndChar

StartChar: ncedilla
Encoding: 65553 -1 17
Width: 550
Flags: MW
HStem: -280 21G<182 190.5> -136 73<241 247.5> -10 21G<141 161.5 427.5 494.5> 421 20G<173.5 196 376 427>
VStem: 376 52<44 52 28.5 78.5> 450 57<323 362.5>
LayerCount: 2
Fore
SplineSet
573 143 m 0
 573 139 541 -10 448 -10 c 0
 407 -10 376 20 376 68 c 0
 376 89 380 98 389 123 c 0
 406 172 450 292 450 354 c 0
 450 371 450 421 404 421 c 0
 308 421 254 293 248 271 c 2
 187 25 l 2
 183 8 173 -10 150 -10 c 0
 132 -10 124 2 124 14 c 0
 124 18 124 19 128 33 c 2
 201 325 l 2
 205 339 209 361 209 380 c 0
 209 392 209 421 183 421 c 0
 149 421 130 362 115 303 c 0
 109 280 108 279 97 279 c 0
 88 279 83 281 83 289 c 2
 83 289 96 351 115 388 c 0
 136 431 162 441 185 441 c 0
 231 441 262 405 265 360 c 1
 298 405 345 441 407 441 c 0
 484 441 507 392 507 339 c 0
 507 281 473 188 447 115 c 0
 439 95 428 64 428 40 c 0
 428 17 436 10 451 10 c 0
 507 10 534 100 543 134 c 0
 547 149 548 152 560 152 c 0
 564 152 573 152 573 143 c 0
285 -104 m 0
 285 -190 197 -280 184 -280 c 0
 180 -280 177 -276 177 -273 c 0
 177 -271 178 -270 187 -261 c 0
 222 -231 255 -186 268 -124 c 1
 268 -124 256 -136 239 -136 c 0
 225 -136 209 -128 209 -107 c 0
 209 -84 229 -63 253 -63 c 0
 281 -63 285 -88 285 -104 c 0
EndSplineSet
EndChar

StartChar: OE.dup
Encoding: 65554 -1 18
Width: 963
Flags: MW
HStem: -21 21G 0 29<595 700 700 772.5> 340 29<646 741 638 744> 654 29<739.5 756 756 860> 684 20G<485.5 570 463 595>
VStem: 159 84<159.5 341 153 351> 900 84<474.5 583>
LayerCount: 2
Fore
SplineSet
973 246 m 2x7e
 973 246 973 243 969 234 c 2
 881 16 l 2
 875 1 874 0 854 0 c 2
 526 0 l 2x44
 506 0 497 0 454 -10 c 0
 414 -19 401 -21 381 -21 c 0x80
 251 -21 159 84 159 235 c 0
 159 467 364 704 562 704 c 0
 578 704 592 702 619 695 c 0
 664 684 675 683 697 683 c 2
 1007 683 l 2
 1028 683 1033 683 1030 658 c 2
 1006 482 l 2
 1003 463 1003 460 990 460 c 0
 987 460 977 460 977 470 c 0
 977 474 978 483 979 487 c 0
 984 526 984 549 984 557 c 0
 984 609 980 654 860 654 c 2
 756 654 l 2
 723 654 716 654 707 616 c 2
 646 369 l 1
 744 369 l 2
 832 369 850 394 870 469 c 0
 874 482 875 486 886 486 c 0
 890 486 900 486 900 476 c 0
 900 473 899 470 897 463 c 2
 842 241 l 2
 838 223 834 223 825 223 c 0
 822 223 812 223 812 233 c 0
 812 236 814 244 814 247 c 0
 819 265 822 285 822 295 c 0
 822 327 807 340 741 340 c 2
 638 340 l 1
 569 61 l 2
 565 47 565 45 565 41 c 0
 565 30 566 29 595 29 c 2
 700 29 l 2
 845 29 882 92 934 220 c 0
 939 231 947 251 949 253 c 0
 952 256 955 256 960 256 c 0
 963 256 973 256 973 246 c 2x7e
531 173 m 2
 612 498 l 2
 622 538 632 578 632 621 c 0
 632 640 632 684 558 684 c 0
 413 684 243 462 243 220 c 0
 243 86 300 -1 388 -1 c 0
 457 -1 495 30 531 173 c 2
EndSplineSet
EndChar

StartChar: oe.dup
Encoding: 65555 -1 19
Width: 700
Flags: MW
HStem: -12 20<200.5 243> -10 20<473 523.5 473 553.5> 232 20<444 469 469 479 438 469> 421 20<594 626> 423 20<311.5 347.5>
VStem: 108 62<95.5 125 87 215> 391 32 669 34<305.5 376>
LayerCount: 2
Fore
SplineSet
682 105 m 0x73
 682 92 607 -10 500 -10 c 0x71
 412 -10 386 70 379 91 c 1
 320 8 262 -12 224 -12 c 0
 155 -12 108 50 108 141 c 0
 108 289 224 443 333 443 c 0x8c
 384 443 419 410 437 353 c 1
 503 427 570 441 607 441 c 0
 666 441 703 403 703 358 c 0
 703 232 517 232 479 232 c 2
 438 232 l 1
 429 195 423 171 423 128 c 0
 423 69 445 10 501 10 c 0
 546 10 608 38 657 111 c 0
 663 119 664 120 668 120 c 0
 674 120 682 112 682 105 c 0x73
669 359 m 0
 669 393 646 421 606 421 c 0
 582 421 485 405 444 252 c 1
 469 252 l 2
 505 252 669 252 669 359 c 0
391 326 m 0
 391 397 362 423 333 423 c 0
 290 423 244 371 218 308 c 0
 203 270 170 152 170 98 c 0
 170 76 176 8 225 8 c 0x8e
 329 8 391 235 391 326 c 0
EndSplineSet
EndChar

StartChar: Oslash.dup
Encoding: 65556 -1 20
Width: 750
Flags: MW
HStem: -58 21G<118 123.5> -21 20<352 415.5 352 469> 684 20<510 567> 722 20G<797.5 803>
VStem: 146 67<206 238.5 186.5 350.5> 706 67<446 488.5 328.5 495>
LayerCount: 2
Fore
SplineSet
773 446 m 0
 773 211 568 -21 370 -21 c 0
 284 -21 239 21 214 43 c 1
 133 -50 l 2
 127 -57 126 -58 121 -58 c 0
 115 -58 110 -54 110 -48 c 0
 110 -43 136 -13 152 4 c 2
 200 60 l 1
 161 112 146 177 146 235 c 0
 146 466 349 704 550 704 c 0
 628 704 678 668 705 639 c 1
 786 733 l 2
 793 742 796 742 799 742 c 0
 807 742 810 734 810 731 c 0
 810 727 809 726 802 718 c 2
 719 622 l 1
 743 592 773 531 773 446 c 0
678 609 m 1
 641 668 589 684 545 684 c 0
 475 684 378 640 304 520 c 0
 249 430 213 281 213 196 c 0
 213 177 213 137 231 96 c 1
 678 609 l 1
706 485 m 0
 706 505 706 542 689 587 c 1
 242 74 l 1
 275 17 329 -1 375 -1 c 0
 456 -1 552 56 616 162 c 0
 675 261 706 407 706 485 c 0
EndSplineSet
EndChar

StartChar: oslash.dup
Encoding: 65557 -1 21
Width: 500
Flags: MW
HStem: -106 21G<76 78> -12 20<238 307 238 309.5> 423 20<298 372 298 374.5> 517 20G<528 532.5>
VStem: 115 54<122 170 119 221.5> 437 55<255.5 303.5 210.5 317.5>
LayerCount: 2
Fore
SplineSet
492 283 m 0
 492 138 370 -12 249 -12 c 0
 220 -12 193 -3 170 15 c 1
 98 -83 l 2
 81 -105 80 -106 76 -106 c 2
 76 -106 67 -105 67 -96 c 1
 67 -96 67 -92 74 -83 c 2
 155 29 l 1
 132 56 115 96 115 148 c 0
 115 295 238 443 358 443 c 0
 386 443 413 435 437 416 c 1
 517 526 l 2
 523 534 525 537 531 537 c 0
 534 537 540 534 540 528 c 2
 540 528 540 524 532 513 c 2
 452 402 l 1
 480 370 492 324 492 283 c 0
418 390 m 1
 412 399 392 423 357 423 c 0
 238 423 169 221 169 119 c 1
 169 119 169 87 179 62 c 1
 418 390 l 1
437 311 m 0
 437 324 437 345 428 369 c 1
 189 41 l 1
 205 18 226 8 250 8 c 0
 364 8 437 200 437 311 c 0
EndSplineSet
EndChar

StartChar: quoteleft.dup
Encoding: 65558 -1 22
Width: 300
Flags: MW
HStem: 403 97<259 269> 673 20G<336.5 347.5>
VStem: 208 104<450.5 476 446.5 519>
LayerCount: 2
Fore
SplineSet
312 462 m 0
 312 431 285 403 253 403 c 0
 214 403 208 439 208 462 c 0
 208 576 328 693 345 693 c 0
 350 693 354 687 354 683 c 0
 354 680 353 679 338 665 c 0
 308 640 247 578 230 483 c 1
 237 490 246 500 272 500 c 0
 291 500 312 490 312 462 c 0
EndSplineSet
EndChar

StartChar: quoteright.dup
Encoding: 65559 -1 23
Width: 300
Flags: MW
HStem: 404 21G<226.5 236> 597 97<302.5 314>
VStem: 261 104<624 641.5 577 648.5>
LayerCount: 2
Fore
SplineSet
365 636 m 0
 365 518 243 404 229 404 c 0
 224 404 219 409 219 414 c 0
 219 417 220 418 230 427 c 0
 262 454 325 515 343 614 c 1
 336 606 327 597 301 597 c 0
 275 597 261 613 261 635 c 0
 261 662 284 694 321 694 c 0
 365 694 365 647 365 636 c 0
EndSplineSet
EndChar

StartChar: Rcedilla
Encoding: 65560 -1 24
Width: 713
Flags: MW
HStem: -280 21G<264 272.5> -136 73<323 329.5> -21 20<584 616.5 584 637> 0 29<85 98 279.5 300.5> 332 20<312 414 414 415 307 414> 654 29<257 268.5 448.5 489>
VStem: 511 71<234 255 216 260.5> 622 82<549 576 494 606>
LayerCount: 2
Fore
SplineSet
707 92 m 0
 707 83 677 -21 597 -21 c 0
 543 -21 480 4 480 82 c 0
 480 102 489 139 496 167 c 0
 503 192 511 226 511 242 c 0
 511 279 494 332 415 332 c 2
 307 332 l 1
 239 61 l 1
 237 46 l 2
 237 37 237 29 293 29 c 0
 308 29 316 29 316 19 c 0
 316 0 305 0 297 0 c 0
 262 0 224 2 188 2 c 0
 153 2 115 0 81 0 c 0
 77 0 67 0 67 10 c 0
 67 29 76 29 94 29 c 0
 155 29 161 37 170 72 c 2
 307 623 l 2
 309 629 309 632 309 638 c 0
 309 654 281 654 256 654 c 0
 237 654 230 654 230 664 c 0
 230 683 239 683 257 683 c 2
 508 683 l 2
 630 683 704 616 704 536 c 0
 704 452 620 369 496 340 c 1
 541 322 582 287 582 223 c 0
 582 209 577 170 577 170 c 2
 573 139 566 86 566 56 c 0
 566 28 568 -1 600 -1 c 0
 633 -1 661 34 677 86 c 0
 681 100 682 102 693 102 c 0
 697 102 707 102 707 92 c 0
622 558 m 0
 622 654 520 654 458 654 c 0
 439 654 409 654 402 652 c 0
 393 651 386 648 378 616 c 2
 312 352 l 1
 414 352 l 2
 617 352 622 540 622 558 c 0
367 -104 m 0
 367 -190 279 -280 266 -280 c 0
 262 -280 259 -276 259 -273 c 0
 259 -271 260 -270 269 -261 c 0
 304 -231 337 -186 350 -124 c 1
 350 -124 338 -136 321 -136 c 0
 307 -136 291 -128 291 -107 c 0
 291 -84 311 -63 335 -63 c 0
 363 -63 367 -88 367 -104 c 0
EndSplineSet
EndChar

StartChar: rcedilla
Encoding: 65561 -1 25
Width: 413
Flags: MW
HStem: -280 21G<57 65.5> -136 73<116 122.5> -10 21G<141 161.5> 421 20G<173.5 196 362 386.5>
VStem: 405 76<365 375.5>
LayerCount: 2
Fore
SplineSet
481 383 m 0
 481 347 454 334 436 334 c 0
 421 334 405 342 405 363 c 0
 405 388 424 403 439 407 c 1
 417 421 389 421 384 421 c 0
 300 421 255 298 252 286 c 2
 187 25 l 2
 183 9 173 -10 150 -10 c 0
 132 -10 124 2 124 14 c 0
 124 18 124 19 128 33 c 2
 201 325 l 2
 205 339 209 361 209 380 c 0
 209 392 209 421 183 421 c 0
 149 421 130 362 115 303 c 0
 109 280 108 279 97 279 c 0
 88 279 83 281 83 289 c 2
 83 289 96 351 115 388 c 0
 136 431 162 441 185 441 c 0
 212 441 255 426 264 367 c 1
 301 419 339 441 385 441 c 0
 413 441 481 434 481 383 c 0
160 -104 m 0
 160 -190 72 -280 59 -280 c 0
 55 -280 52 -276 52 -273 c 0
 52 -271 53 -270 62 -261 c 0
 97 -231 130 -186 143 -124 c 1
 143 -124 131 -136 114 -136 c 0
 100 -136 84 -128 84 -107 c 0
 84 -84 104 -63 128 -63 c 0
 156 -63 160 -88 160 -104 c 0
EndSplineSet
EndChar

StartChar: tilde.dup
Encoding: 65562 -1 26
Width: 500
Flags: MW
HStem: 553 33<441.5 457.5> 553 96<422 549> 554 96<248 379> 617 33<343.5 358.5>
LayerCount: 2
Fore
SplineSet
559 640 m 0x40
 559 631 480 553 435 553 c 0
 409 553 395 575 387 587 c 0
 372 611 365 617 352 617 c 0x90
 327 617 289 584 270 567 c 0
 257 554 255 554 251 554 c 0x20
 245 554 242 560 242 563 c 0
 242 571 321 650 366 650 c 0
 392 650 406 629 415 613 c 0
 427 594 435 586 448 586 c 0x90
 479 586 531 637 531 637 c 2
 537 643 544 649 549 649 c 2
 549 649 559 648 559 640 c 0x40
EndSplineSet
EndChar

StartChar: A
Encoding: 65 65 27
Width: 727
Flags: MW
HStem: 0 29<213 233 459 466 643 662> 234 29<299 512 299 514 282 512> 694 20G<534 548>
LayerCount: 2
Fore
SplineSet
677 18 m 0
 677 0 665 0 659 0 c 0
 627 0 593 2 560 2 c 0
 526 2 490 0 457 0 c 0
 453 0 443 0 443 10 c 0
 443 29 452 29 466 29 c 0
 528 30 526 57 525 73 c 2
 514 234 l 1
 282 234 l 1
 209 105 l 2
 200 89 192 76 192 62 c 0
 192 43 206 31 230 29 c 0
 236 29 244 28 244 19 c 0
 244 0 233 0 226 0 c 0
 200 0 171 2 144 2 c 0
 119 2 92 0 68 0 c 1
 68 0 56 0 56 10 c 0
 56 27 64 28 75 29 c 0
 125 34 153 57 184 112 c 2
 517 696 l 2
 524 708 527 714 541 714 c 0
 555 714 556 711 557 690 c 2
 601 62 l 2
 603 36 608 29 657 29 c 0
 670 29 677 29 677 18 c 0
512 263 m 1
 489 596 l 1
 299 263 l 1
 512 263 l 1
EndSplineSet
Position2: "'cpsp' Capital Spacing lookup 0 subtable" dx=7 dy=0 dh=14 dv=0
EndChar

StartChar: a
Encoding: 97 97 28
Width: 500
Flags: MW
HStem: -10 21G<179 233.5 400.5 431.5> 421 20G<300.5 335.5 267.5 352>
VStem: 98 62<97.5 125 94 215>
LayerCount: 2
Fore
SplineSet
513 143 m 0
 513 140 501 83 484 48 c 0
 471 19 451 -10 412 -10 c 0
 389 -10 344 0 333 61 c 1
 295 16 254 -10 213 -10 c 0
 145 -10 98 53 98 142 c 0
 98 288 213 441 322 441 c 0
 349 441 383 429 402 382 c 1
 403 383 l 1
 403 383 410 422 442 422 c 0
 460 422 468 409 468 398 c 2
 468 398 468 393 465 382 c 2
 395 103 l 2
 391 88 387 65 387 50 c 0
 387 31 392 10 414 10 c 0
 442 10 461 45 481 128 c 0
 487 151 488 152 500 152 c 0
 504 152 513 152 513 143 c 0
339 121 m 2
 386 311 l 1
 389 325 l 2
 389 332 382 421 322 421 c 0
 279 421 234 370 208 308 c 0
 192 268 160 150 160 100 c 0
 160 88 162 10 215 10 c 0
 273 10 333 95 339 121 c 2
EndSplineSet
EndChar

StartChar: ampersand
Encoding: 38 38 29
Width: 750
Flags: MW
HStem: -21 20<332.5 501 332.5 508.5> 312 20<314 348.5 314 355.5> 442 20<341.5 370> 526 73<470 493 468.5 495.5> 622 73 695 20<369.5 431.5>
VStem: 124 70<124 182 97.5 202.5> 194 15 396 28<387.5 417 382 420.5> 493 15 493 28<599 632 594 640> 690 29<264.5 320>
LayerCount: 2
Fore
SplineSet
719 313 m 0xf9d0
 719 209 645 -21 372 -21 c 0
 212 -21 124 73 124 175 c 0xe290
 124 230 158 324 220 389 c 1
 215 402 209 424 209 455 c 0
 209 584 316 715 418 715 c 0
 487 715 521 661 521 603 c 0x0520
 521 585 519 526 472 526 c 0
 468 526 441 526 441 555 c 0
 441 564 444 599 493 599 c 1
 493 681 445 695 418 695 c 0
 321 695 266 521 263 427 c 1
 276 436 319 462 361 462 c 0
 406 462 424 431 424 403 c 0
 424 361 383 312 328 312 c 0
 289 312 260 333 247 346 c 1
 221 299 194 207 194 157 c 0
 194 38 290 -1 375 -1 c 0
 627 -1 690 219 690 310 c 0
 690 330 690 386 638 450 c 1
 547 393 508 368 508 307 c 0
 508 296 511 290 513 283 c 1
 521 308 543 314 554 314 c 0
 565 314 584 310 584 285 c 0
 584 262 565 242 540 242 c 0
 511 242 481 262 481 311 c 0
 481 382 541 420 604 460 c 0
 644 485 711 528 748 622 c 1
 715 622 715 650 715 650 c 1
 715 671 734 694 759 694 c 0
 785 694 790 674 790 666 c 0
 790 652 762 541 662 467 c 1
 691 431 719 383 719 313 c 0xf9d0
396 407 m 0
 396 434 378 442 362 442 c 0
 321 442 288 404 269 382 c 1
 277 356 298 332 330 332 c 0
 367 332 396 368 396 407 c 0
EndSplineSet
Substitution2: "'lnum' Lining Figures lookup 5 subtable" ampersand
Substitution2: "'onum' Oldstyle Figures lookup 4 subtable" ampersand
Substitution2: "'aalt' Access All Alternates lookup 0 subtable" ampersand
EndChar

StartChar: asciicircum
Encoding: 94 94 30
Width: 556
Flags: MW
HStem: 562 21G<147 147 690 690>
LayerCount: 2
Fore
SplineSet
707 584 m 1
 690 562 l 1
 448 685 l 1
 147 562 l 1
 141 584 l 1
 464 744 l 1
 707 584 l 1
EndSplineSet
EndChar

StartChar: asciitilde
Encoding: 126 126 31
Width: 556
Flags: MW
HStem: 193 43<427 431.5> 264 43<248.5 253>
LayerCount: 2
Fore
SplineSet
627 290 m 1
 562 246 l 2
 542 232 519 221 497 211 c 0
 472 201 444 193 419 193 c 0
 379 193 352 210 328 227 c 0
 298 247 273 264 233 264 c 0
 182 264 121 234 62 193 c 1
 52 210 l 1
 117 254 l 2
 138 268 161 279 183 289 c 0
 208 299 236 307 261 307 c 0
 301 307 327 290 352 273 c 0
 382 253 407 236 447 236 c 0
 498 236 558 266 618 307 c 1
 627 290 l 1
EndSplineSet
EndChar

StartChar: asterisk
Encoding: 42 42 32
Width: 500
Flags: MW
HStem: 319 21G<326.5 342> 730 20G<424.5 442>
VStem: 192 382<425.5 638>
LayerCount: 2
Fore
SplineSet
527 446 m 0
 527 431 511 416 497 416 c 0
 491 416 488 416 477 427 c 2
 388 516 l 1
 360 351 l 2
 359 342 355 319 329 319 c 0
 324 319 311 321 311 336 c 0
 311 339 311 341 316 355 c 2
 368 516 l 1
 217 416 l 2
 210 416 192 416 192 435 c 0
 192 452 207 459 216 463 c 2
 365 535 l 1
 254 604 l 2
 240 613 239 619 239 623 c 0
 239 636 253 653 270 653 c 0
 275 653 278 653 289 642 c 2
 378 554 l 1
 406 717 l 2
 408 726 412 750 437 750 c 0
 447 750 456 743 456 733 c 0
 456 728 453 721 452 717 c 2
 398 553 l 1
 538 647 l 2
 542 650 547 653 555 653 c 0
 569 653 574 642 574 634 c 0
 574 617 559 610 550 606 c 2
 401 534 l 1
 511 465 l 2
 521 458 527 455 527 446 c 0
EndSplineSet
EndChar

StartChar: at
Encoding: 64 64 33
Width: 750
Flags: MW
HStem: -10 20<312 394.5> 129 20<377 417.5 377 442 615.5 650.5> 545 20<469 536.5 454.5 550> 684 20<457 606.5>
VStem: 149 28<182 355.5 182 363> 274 57<252.5 333 252.5 356.5> 544 57<167.5 178.5 162 197> 746 28<432.5 518>
LayerCount: 2
Fore
SplineSet
764 359 m 0
 728 197 686 129 615 129 c 0
 594 129 544 138 544 197 c 1
 526 179 476 129 408 129 c 0
 341 129 274 180 274 286 c 0
 274 427 396 565 513 565 c 0
 560 565 604 539 623 480 c 1
 648 480 l 2
 664 480 671 480 671 471 c 0
 671 467 670 461 669 457 c 2
 604 195 l 1
 604 195 601 183 601 174 c 0
 601 150 612 149 619 149 c 0
 708 149 746 402 746 449 c 0
 746 587 666 684 547 684 c 0
 367 684 177 466 177 245 c 0
 177 119 245 10 379 10 c 0
 468 10 555 34 636 70 c 0
 650 77 652 77 667 77 c 0
 684 77 690 77 690 69 c 0
 690 54 574 19 549 13 c 0
 469 -8 410 -10 379 -10 c 0
 232 -10 149 103 149 247 c 0
 149 479 352 704 548 704 c 0
 685 704 774 595 774 448 c 0
 774 417 769 384 764 359 c 0
601 430 m 2
 603 438 604 441 604 445 c 0
 604 458 587 545 513 545 c 0
 425 545 331 396 331 270 c 0
 331 235 343 149 411 149 c 0
 424 149 462 153 507 193 c 0
 530 214 552 238 560 268 c 2
 601 430 l 2
EndSplineSet
EndChar

StartChar: B
Encoding: 66 66 34
Width: 688
Flags: MW
HStem: 0 29<87 93 93 126.5 265 388 388 410> 345 20<315 446 446 480 309 446> 654 29<259 270.5 409.5 426 426 543>
VStem: 580 82<179.5 257.5>
LayerCount: 2
Fore
SplineSet
662 220 m 0
 662 114 547 0 410 0 c 2
 93 0 l 2
 77 0 69 0 69 10 c 0
 69 29 78 29 96 29 c 0
 157 29 163 37 172 72 c 2
 309 623 l 2
 311 629 311 632 311 638 c 0
 311 654 283 654 258 654 c 0
 239 654 232 654 232 664 c 0
 232 683 241 683 259 683 c 2
 556 683 l 2
 665 683 720 618 720 548 c 0
 720 460 632 378 525 357 c 1
 603 347 662 298 662 220 c 0
639 553 m 0
 639 595 622 654 543 654 c 2
 426 654 l 2
 393 654 386 654 377 616 c 2
 315 365 l 1
 446 365 l 2
 560 365 639 466 639 553 c 0
580 232 m 0
 580 283 558 345 480 345 c 2
 309 345 l 1
 239 61 l 2
 235 47 235 45 235 41 c 0
 235 30 236 29 265 29 c 2
 388 29 l 2
 494 29 580 127 580 232 c 0
EndSplineSet
Position2: "'cpsp' Capital Spacing lookup 0 subtable" dx=7 dy=0 dh=14 dv=0
EndChar

StartChar: b
Encoding: 98 98 35
Width: 450
Flags: MW
HStem: -10 20<202.5 240.5 202.5 280> 421 20<309 349>
VStem: 114 52<92.5 125.5 85 145.5> 386 63<303 332.5 217.5 357.5>
LayerCount: 2
Fore
SplineSet
449 289 m 0
 449 146 336 -10 224 -10 c 0
 162 -10 114 45 114 140 c 0
 114 151 114 177 123 213 c 2
 224 618 l 2
 225 623 227 630 227 635 c 0
 227 645 227 654 177 654 c 0
 163 654 155 654 155 664 c 0
 155 682 164 683 178 684 c 2
 278 693 l 2
 294 694 301 693 301 684 c 0
 301 681 300 678 298 671 c 2
 227 385 l 1
 243 401 284 441 334 441 c 0
 403 441 449 376 449 289 c 0
332 108 m 0
 352 150 386 275 386 331 c 0
 386 384 367 421 331 421 c 0
 278 421 217 344 207 305 c 0
 204 295 202 285 199 275 c 0
 177 185 166 145 166 106 c 0
 166 64 180 10 225 10 c 0
 256 10 297 38 332 108 c 0
EndSplineSet
EndChar

StartChar: backslash
Encoding: 92 92 36
Width: 500
Flags: MW
HStem: -250 21G<354 366.5> 730 20G<239 271>
LayerCount: 2
Fore
SplineSet
386 -230 m 2
 383 -241 372 -250 361 -250 c 0
 347 -250 345 -239 344 -228 c 2
 239 712 l 2
 237 725 239 730 239 730 c 2
 241 741 253 750 264 750 c 0
 278 750 279 739 280 728 c 2
 385 -212 l 2
 387 -225 386 -230 386 -230 c 2
EndSplineSet
EndChar

StartChar: bar
Encoding: 124 124 37
Width: 278
Flags: MW
HStem: -250 21G<67 87> 730 20G<317 337>
LayerCount: 2
Fore
SplineSet
105 -217 m 2
 101 -231 97 -250 77 -250 c 0
 57 -250 61 -231 65 -217 c 2
 298 717 l 2
 302 731 307 750 327 750 c 0
 347 750 342 731 338 717 c 2
 105 -217 l 2
EndSplineSet
EndChar

StartChar: braceleft
Encoding: 123 123 38
Width: 500
Flags: MW
HStem: -250 21G<329.5 351> 237 24 730 20G<545 601>
LayerCount: 2
Fore
SplineSet
612 739 m 0
 610 733 605 729 600 728 c 0
 529 724 500 700 478 682 c 0
 447 657 442 635 424 563 c 2
 379 383 l 2
 372 355 354 284 228 250 c 1
 264 239 321 213 318 147 c 0
 317 137 305 86 297 56 c 2
 260 -94 l 2
 251 -129 250 -131 251 -142 c 0
 251 -178 276 -223 354 -228 c 0
 364 -229 370 -229 367 -239 c 0
 365 -250 357 -250 345 -250 c 0
 314 -250 251 -242 215 -212 c 0
 172 -175 181 -141 195 -83 c 2
 245 115 l 2
 270 215 190 236 148 239 c 0
 138 240 132 240 135 250 c 0
 137 260 144 261 151 261 c 0
 215 265 249 292 267 306 c 0
 300 334 304 350 327 444 c 2
 373 627 l 2
 393 699 495 750 595 750 c 0
 607 750 615 750 612 739 c 0
EndSplineSet
EndChar

StartChar: braceright
Encoding: 125 125 39
Width: 500
Flags: MW
HStem: -250 21G<25 80> 239 21G<473 476.5> 730 20G<275 296>
LayerCount: 2
Fore
SplineSet
490 250 m 0
 487 240 480 239 473 239 c 0
 409 235 375 208 358 194 c 0
 325 166 321 150 297 56 c 2
 251 -127 l 2
 231 -199 130 -250 30 -250 c 0
 20 -250 10 -250 12 -239 c 0
 14 -233 19 -229 24 -228 c 0
 95 -224 124 -200 147 -182 c 0
 177 -157 182 -135 200 -63 c 2
 245 117 l 2
 252 145 270 216 397 250 c 1
 360 261 303 287 306 353 c 0
 307 363 320 414 327 444 c 2
 365 594 l 2
 373 629 374 631 374 642 c 0
 374 678 348 723 270 728 c 0
 260 729 254 729 257 739 c 0
 260 750 270 750 280 750 c 0
 312 750 373 741 409 712 c 0
 452 675 443 641 429 583 c 2
 379 385 l 2
 354 285 434 264 476 261 c 0
 486 260 492 260 490 250 c 0
EndSplineSet
EndChar

StartChar: bracketleft
Encoding: 91 91 40
Width: 300
Flags: MW
HStem: -250 37<87 175 115 170> 713 37<346 411 346 346>
LayerCount: 2
Fore
SplineSet
199 -224 m 0
 199 -250 187 -250 170 -250 c 2
 95 -250 l 2
 79 -250 71 -250 71 -240 c 0
 71 -237 72 -233 74 -227 c 2
 314 733 l 2
 318 749 319 750 341 750 c 2
 416 750 l 2
 432 750 440 750 440 740 c 0
 440 713 428 713 411 713 c 2
 346 713 l 1
 115 -213 l 1
 175 -213 l 2
 192 -213 199 -213 199 -224 c 0
EndSplineSet
EndChar

StartChar: bracketright
Encoding: 93 93 41
Width: 300
Flags: MW
HStem: -250 37<0 78 13 78 13 83> 713 37<240.5 329 254 309>
LayerCount: 2
Fore
SplineSet
110 -233 m 2
 106 -249 105 -250 83 -250 c 2
 8 -250 l 2
 -8 -250 -16 -250 -16 -240 c 0
 -16 -213 -4 -213 13 -213 c 2
 78 -213 l 1
 309 713 l 1
 249 713 l 2
 232 713 225 713 225 724 c 0
 225 750 237 750 254 750 c 2
 329 750 l 2
 345 750 353 750 353 740 c 0
 353 737 352 733 350 727 c 2
 110 -233 l 2
EndSplineSet
EndChar

StartChar: C
Encoding: 67 67 42
Width: 700
Flags: MW
HStem: -21 29<354.5 439.5> 675 29<523 594.5 461 633.5>
VStem: 148 79<158 222 140 361.5>
LayerCount: 2
Fore
SplineSet
734 438 m 2
 730 422 728 421 718 421 c 0
 713 421 705 421 705 430 c 2
 705 439 l 2
 708 454 710 477 710 492 c 0
 710 536 698 675 569 675 c 0
 477 675 386 610 335 541 c 0
 238 407 227 236 227 208 c 0
 227 72 309 8 400 8 c 0
 493 8 610 86 655 239 c 0
 658 248 662 249 670 249 c 0
 676 249 684 249 684 240 c 1
 684 240 668 150 581 64 c 0
 573 57 494 -21 385 -21 c 0
 258 -21 148 73 148 243 c 0
 148 480 360 704 562 704 c 0
 627 704 678 674 710 615 c 1
 775 695 l 2
 782 704 788 704 788 704 c 1
 788 704 797 704 797 695 c 2
 797 695 796 685 795 682 c 2
 734 438 l 2
EndSplineSet
Position2: "'cpsp' Capital Spacing lookup 0 subtable" dx=7 dy=0 dh=14 dv=0
EndChar

StartChar: c
Encoding: 99 99 43
Width: 450
Flags: MW
HStem: -10 21G<211 313> 299 75 421 20G<335.5 360>
VStem: 110 64<101 137 84.5 226> 383 78<331 341>
LayerCount: 2
Fore
SplineSet
457 105 m 0
 457 91 375 -10 251 -10 c 0
 171 -10 110 50 110 152 c 0
 110 300 236 441 358 441 c 0
 419 441 461 404 461 357 c 0
 461 305 424 299 414 299 c 0
 405 299 383 304 383 329 c 0
 383 353 405 372 430 373 c 1
 416 421 363 421 357 421 c 0
 314 421 265 387 231 327 c 0
 198 270 174 160 174 114 c 0
 174 55 201 10 252 10 c 0
 303 10 378 38 431 110 c 0
 439 119 440 120 443 120 c 0
 449 120 457 112 457 105 c 0
EndSplineSet
EndChar

StartChar: colon
Encoding: 58 58 44
Width: 300
Flags: MW
HStem: 0 97<157 165.5> 334 97<239 251.5>
VStem: 112 183
LayerCount: 2
Fore
SplineSet
295 392 m 0
 295 365 268 334 235 334 c 0
 208 334 195 354 195 373 c 0
 195 401 223 431 255 431 c 0
 280 431 295 413 295 392 c 0
211 58 m 0
 211 25 179 0 152 0 c 0
 128 0 112 17 112 39 c 0
 112 70 143 97 171 97 c 0
 188 97 211 88 211 58 c 0
EndSplineSet
EndChar

StartChar: comma
Encoding: 44 44 45
Width: 300
Flags: MW
HStem: -193 21G<76.5 87.5> 0 97<155 163.5>
VStem: 112 102<24 53 -15.5 53.5>
LayerCount: 2
Fore
SplineSet
214 42 m 0
 214 -73 96 -193 79 -193 c 0
 74 -193 70 -187 70 -183 c 0
 70 -180 71 -179 83 -167 c 0
 129 -127 174 -67 191 15 c 1
 191 15 175 0 152 0 c 0
 133 0 112 10 112 38 c 0
 112 69 139 97 171 97 c 0
 208 97 214 64 214 42 c 0
EndSplineSet
EndChar

StartChar: D
Encoding: 68 68 46
Width: 738
Flags: MW
HStem: 0 29<85 91 91 124.5 266 369 369 385> 654 29<257 268.5 410 427 427 525>
VStem: 684 75<448 514 326 525.5>
LayerCount: 2
Fore
SplineSet
759 440 m 0
 759 212 570 0 385 0 c 2
 91 0 l 2
 75 0 67 0 67 10 c 0
 67 29 76 29 94 29 c 0
 155 29 161 37 170 72 c 2
 307 623 l 2
 309 629 309 632 309 638 c 0
 309 654 281 654 256 654 c 0
 237 654 230 654 230 664 c 0
 230 683 239 683 257 683 c 2
 555 683 l 2
 677 683 759 588 759 440 c 0
684 477 m 0
 684 574 634 654 525 654 c 2
 427 654 l 2
 393 654 387 654 378 616 c 2
 240 64 l 2
 238 57 236 49 236 41 c 0
 236 30 237 29 266 29 c 2
 369 29 l 2
 462 29 542 85 593 162 c 0
 656 258 684 419 684 477 c 0
EndSplineSet
Position2: "'cpsp' Capital Spacing lookup 0 subtable" dx=7 dy=0 dh=14 dv=0
EndChar

StartChar: d
Encoding: 100 100 47
Width: 500
Flags: MW
HStem: -10 20<198.5 243.5 413 438> 421 20<310.5 353.5 277.5 362.5>
VStem: 108 62<97.5 125 94 215>
LayerCount: 2
Fore
SplineSet
523 143 m 0
 523 140 511 83 494 48 c 0
 481 19 461 -10 422 -10 c 0
 399 -10 354 0 343 61 c 1
 305 16 264 -10 223 -10 c 0
 155 -10 108 53 108 142 c 0
 108 288 223 441 332 441 c 0
 375 441 400 412 414 380 c 1
 473 618 l 2
 474 622 476 630 476 635 c 0
 476 645 476 654 426 654 c 0
 412 654 404 654 404 664 c 0
 404 682 413 683 427 684 c 2
 527 693 l 2
 543 694 550 693 550 684 c 0
 550 681 548 677 547 671 c 2
 405 104 l 2
 402 91 397 63 397 50 c 0
 397 31 402 10 424 10 c 0
 452 10 471 45 491 128 c 0
 497 151 498 152 510 152 c 0
 514 152 523 152 523 143 c 0
350 123 m 2
 396 311 l 1
 399 325 l 2
 399 328 393 421 332 421 c 0
 289 421 244 370 218 308 c 0
 202 268 170 150 170 100 c 0
 170 88 172 10 225 10 c 0
 283 10 343 96 350 123 c 2
EndSplineSet
EndChar

StartChar: dollar
Encoding: 36 36 48
Width: 490
Flags: MW
HStem: -56 21G<216 245 216 216> 141 83<130 144.5> 484 83<521 537 521 540.5> 674 29 730 20G<417 446 446 446>
LayerCount: 2
Fore
SplineSet
573 560 m 0
 571 540 565 484 516 484 c 0
 492 484 481 499 482 519 c 0
 485 547 509 567 533 567 c 0
 541 567 546 565 550 564 c 1
 550 584 551 669 427 675 c 1
 359 398 l 1
 393 390 430 381 458 344 c 0
 494 298 491 250 489 228 c 0
 481 138 408 13 260 -9 c 0
 258 -10 257 -11 253 -25 c 2
 245 -56 l 1
 216 -56 l 1
 227 -10 l 1
 159 -6 84 33 93 143 c 0
 95 167 100 224 150 224 c 0
 176 224 185 207 184 189 c 0
 181 160 156 141 133 141 c 0
 127 141 121 142 115 145 c 1
 110 52 171 23 235 19 c 1
 311 323 l 1
 268 335 236 343 210 375 c 0
 201 387 172 422 177 485 c 0
 186 592 290 695 406 704 c 1
 417 750 l 1
 446 750 l 1
 435 704 l 1
 532 698 579 641 573 560 c 0
331 406 m 1
 398 674 l 1
 303 663 238 585 232 520 c 0
 225 433 303 413 331 406 c 1
434 193 m 0
 442 294 357 311 337 315 c 1
 264 20 l 1
 359 32 428 117 434 193 c 0
EndSplineSet
Substitution2: "'onum' Oldstyle Figures lookup 4 subtable" dollar.oldstyle
Substitution2: "'aalt' Access All Alternates lookup 0 subtable" dollar.oldstyle
EndChar

StartChar: E
Encoding: 69 69 49
Width: 663
Flags: MW
HStem: 0 29<84 90 90 123.5 267 389 389 463.5> 339 29<317 397 310 400> 652 29<255 280.5 411 427 427 552>
LayerCount: 2
Fore
SplineSet
673 246 m 2
 673 246 673 243 669 234 c 2
 581 16 l 2
 575 1 574 0 554 0 c 2
 90 0 l 2
 74 0 66 0 66 10 c 0
 66 29 75 29 93 29 c 0
 154 29 160 37 169 72 c 2
 304 615 l 2
 308 629 308 631 308 634 c 0
 308 644 308 652 253 652 c 0
 237 652 229 652 229 662 c 0
 229 681 238 681 255 681 c 2
 706 681 l 2
 723 681 731 681 731 670 c 0
 731 667 729 659 729 656 c 2
 705 479 l 2
 702 461 702 458 690 458 c 0
 685 458 676 458 676 469 c 0
 676 474 678 484 678 489 c 0
 683 521 683 541 683 550 c 0
 683 611 672 652 552 652 c 2
 427 652 l 2
 395 652 388 651 379 616 c 2
 317 368 l 1
 400 368 l 2
 482 368 500 392 520 468 c 0
 523 482 524 485 536 485 c 0
 539 485 549 485 549 475 c 0
 549 471 548 465 547 461 c 2
 491 239 l 2
 488 226 487 222 475 222 c 0
 471 222 461 222 461 232 c 0
 461 235 463 241 463 241 c 2
 465 249 472 277 472 295 c 0
 472 323 464 339 397 339 c 2
 310 339 l 1
 241 61 l 2
 237 47 237 45 237 41 c 0
 237 30 238 29 267 29 c 2
 389 29 l 2
 538 29 579 86 634 220 c 0
 639 231 647 251 649 253 c 0
 652 256 655 256 660 256 c 0
 663 256 673 256 673 246 c 2
EndSplineSet
Position2: "'cpsp' Capital Spacing lookup 0 subtable" dx=7 dy=0 dh=14 dv=0
EndChar

StartChar: e
Encoding: 101 101 50
Width: 450
Flags: MW
HStem: -10 20<219 277.5 219 313> 232 20<200 221 221 230 194 221> 421 20<347 376>
VStem: 114 63<112.5 143 105 251> 419 34<305.5 376>
LayerCount: 2
Fore
SplineSet
457 105 m 0
 457 91 375 -10 251 -10 c 0
 166 -10 114 62 114 163 c 0
 114 339 253 441 357 441 c 0
 416 441 453 403 453 358 c 0
 453 232 265 232 230 232 c 2
 194 232 l 1
 184 193 177 165 177 121 c 0
 177 89 186 10 252 10 c 0
 303 10 378 38 431 110 c 0
 439 119 440 120 443 120 c 0
 449 120 457 112 457 105 c 0
419 359 m 0
 419 393 396 421 356 421 c 0
 338 421 240 411 200 252 c 1
 221 252 l 2
 253 252 419 252 419 359 c 0
EndSplineSet
EndChar

StartChar: eight
Encoding: 56 56 51
Width: 500
Flags: MW
HStem: -21 27<216 293.5 216 308> 641 24<374.5 436>
VStem: 96 46<83 154 83 156> 209 51<488 516> 428 55<151 190.5> 502 42<518 579.5>
LayerCount: 2
Fore
SplineSet
483 207 m 0
 483 95 370 -21 246 -21 c 0
 163 -21 96 31 96 114 c 0
 96 198 164 285 285 339 c 1
 235 381 209 403 209 465 c 0
 209 567 309 665 414 665 c 0
 481 665 544 625 544 548 c 0
 544 452 451 392 386 358 c 1
 447 308 483 279 483 207 c 0
502 550 m 0
 502 609 461 641 411 641 c 0
 338 641 260 578 260 506 c 0
 260 470 278 454 288 445 c 2
 369 374 l 1
 453 418 502 486 502 550 c 0
428 168 m 0
 428 213 410 229 373 262 c 2
 302 323 l 1
 215 284 142 195 142 113 c 0
 142 53 182 6 250 6 c 0
 337 6 428 84 428 168 c 0
EndSplineSet
Substitution2: "'pnum' Proportional Numbers lookup 6 subtable" eight.prop
Substitution2: "'onum' Oldstyle Figures lookup 4 subtable" eight.oldstyle
AlternateSubs2: "'aalt' Access All Alternates lookup 1 subtable" eight.oldstyle eight.prop
EndChar

StartChar: equal
Encoding: 61 61 52
Width: 750
Flags: MW
HStem: 138 37<139 681 146 681> 324 37<185 728 193 728>
VStem: 114 645<147.5 351.5>
LayerCount: 2
Fore
SplineSet
759 342 m 0
 759 324 740 324 728 324 c 2
 193 324 l 2
 177 324 161 324 161 343 c 0
 161 361 178 361 193 361 c 2
 728 361 l 2
 741 361 759 361 759 342 c 0
713 156 m 0
 713 138 695 138 681 138 c 2
 146 138 l 2
 132 138 114 138 114 157 c 0
 114 175 133 175 146 175 c 2
 681 175 l 2
 696 175 713 175 713 156 c 0
EndSplineSet
EndChar

StartChar: exclam
Encoding: 33 33 53
Width: 300
Flags: MW
HStem: 0 97<156 167> 180 21G<191.5 201> 695 20G<323.5 333>
VStem: 112 99<42 54.5>
LayerCount: 2
Fore
SplineSet
361 655 m 2
 214 196 l 2
 209 181 205 180 197 180 c 0
 186 180 183 183 183 191 c 2
 183 191 183 194 185 204 c 2
 266 660 l 2
 275 713 321 715 326 715 c 0
 340 715 366 708 366 677 c 0
 366 671 366 669 361 655 c 2
211 57 m 0
 211 27 182 0 152 0 c 0
 133 0 112 13 112 40 c 0
 112 69 141 97 171 97 c 0
 191 97 211 85 211 57 c 0
EndSplineSet
EndChar

StartChar: F
Encoding: 70 70 54
Width: 638
Flags: MW
HStem: 0 29<84 98.5 309 315 315 323> 326 29<314 391 307 393> 652 29<255 280.5 411 427 427 542>
CounterMasks: 1 e0
LayerCount: 2
Fore
SplineSet
692 479 m 2
 689 461 689 458 677 458 c 0
 672 458 663 458 663 469 c 0
 663 472 663 474 665 488 c 0
 668 511 671 529 671 554 c 0
 671 622 647 652 542 652 c 2
 427 652 l 2
 395 652 388 651 379 616 c 2
 314 355 l 1
 393 355 l 2
 476 355 492 380 511 455 c 0
 515 469 516 472 528 472 c 0
 531 472 541 472 541 462 c 2
 483 226 l 2
 480 212 478 209 467 209 c 0
 462 209 453 209 453 220 c 2
 455 229 l 2
 458 240 464 267 464 283 c 0
 464 311 454 326 391 326 c 2
 307 326 l 1
 243 69 l 2
 239 55 239 53 239 49 c 0
 239 29 270 29 309 29 c 2
 315 29 l 2
 331 29 339 29 339 19 c 0
 339 0 328 0 319 0 c 0
 279 0 236 2 195 2 c 0
 157 2 117 0 80 0 c 0
 76 0 66 0 66 10 c 0
 66 29 75 29 93 29 c 0
 154 29 160 37 169 72 c 2
 304 615 l 2
 308 629 308 631 308 634 c 0
 308 644 308 652 253 652 c 0
 237 652 229 652 229 662 c 0
 229 681 238 681 255 681 c 2
 693 681 l 2
 710 681 718 681 718 670 c 0
 718 667 716 659 716 656 c 2
 692 479 l 2
EndSplineSet
Position2: "'cpsp' Capital Spacing lookup 0 subtable" dx=7 dy=0 dh=14 dv=0
EndChar

StartChar: f
Encoding: 102 102 55
Width: 300
Flags: MW
HStem: -204 21G<30.5 91.5> -166 75 402 29<144 217 154 211 277 350> 591 71 684 20G<347.5 367.5>
VStem: -27 77<-161.5 -110.5> 369 77<610.5 661.5>
LayerCount: 2
Fore
SplineSet
446 642 m 0
 446 609 423 591 400 591 c 0
 383 591 369 601 369 620 c 0
 369 631 375 658 409 665 c 1
 394 684 369 684 366 684 c 0
 329 684 318 634 309 590 c 2
 277 431 l 1
 353 431 l 2
 370 431 377 431 377 420 c 0
 377 402 367 402 350 402 c 2
 272 402 l 1
 210 83 l 2
 179 -78 132 -204 51 -204 c 0
 10 -204 -27 -181 -27 -142 c 0
 -27 -109 -4 -91 19 -91 c 0
 36 -91 50 -101 50 -120 c 0
 50 -128 46 -158 9 -165 c 1
 22 -183 47 -184 51 -184 c 0
 87 -184 99 -137 110 -95 c 0
 126 -34 128 -25 140 35 c 2
 211 402 l 1
 152 402 l 2
 136 402 128 402 128 412 c 0
 128 431 137 431 154 431 c 2
 217 431 l 1
 238 540 l 2
 245 574 270 704 366 704 c 0
 407 704 446 681 446 642 c 0
EndSplineSet
EndChar

StartChar: five
Encoding: 53 53 56
Width: 500
Flags: MW
HStem: -21 27<197.5 252.5 197.5 294> 321 78 399 20<327.5 388> 564 69<392.5 421> 644 20G<286 290.5 550 551.5>
VStem: 105 86<78 188.5> 423 65<285.5 307 191 321.5>
LayerCount: 2
Fore
SplineSet
488 266 m 0x38
 488 116 357 -21 231 -21 c 0
 150 -21 105 40 105 116 c 0
 105 134 105 205 158 205 c 0
 161 205 191 204 191 173 c 0
 191 152 171 121 134 127 c 1
 129 67 163 6 232 6 c 0
 273 6 330 32 371 106 c 0
 398 155 423 263 423 308 c 0
 423 335 416 399 360 399 c 0
 286 399 238 345 224 329 c 0
 219 323 218 321 211 321 c 0xc6
 201 321 200 328 200 331 c 0
 200 335 201 341 202 345 c 2
 278 648 l 2
 281 661 283 664 289 664 c 0
 292 664 296 662 301 660 c 0
 333 642 373 633 412 633 c 0
 451 633 493 641 538 661 c 0
 547 664 550 664 550 664 c 2
 553 664 558 663 558 656 c 0
 558 642 475 564 367 564 c 0
 352 564 323 564 288 579 c 1
 237 371 l 2
 242 375 293 419 362 419 c 0
 444 419 488 348 488 266 c 0x38
EndSplineSet
Substitution2: "'pnum' Proportional Numbers lookup 6 subtable" five.prop
Substitution2: "'onum' Oldstyle Figures lookup 4 subtable" five.oldstyle
AlternateSubs2: "'aalt' Access All Alternates lookup 1 subtable" five.oldstyle five.prop
EndChar

StartChar: four
Encoding: 52 52 57
Width: 500
Flags: MW
HStem: -194 21G<269 287.5> -14 29<373.5 387.5> 1 29 37 29<158.5 175> 645 20G<425 448.5>
LayerCount: 2
Fore
SplineSet
463 13 m 0x20
 463 0 403 -14 372 -14 c 0x40
 366 -14 357 -14 351 -13 c 1
 315 -159 l 2
 310 -180 297 -194 278 -194 c 0
 260 -194 252 -181 252 -170 c 0
 252 -165 257 -144 261 -132 c 2
 294 3 l 1
 235 25 263 16 236 25 c 0
 201 37 186 37 164 37 c 0
 107 37 97 29 88 22 c 0
 76 12 63 1 57 1 c 0xb0
 51 1 43 14 43 17 c 0
 43 26 58 41 71 48 c 0
 116 73 201 167 258 264 c 0
 335 395 373 520 401 625 c 0
 405 640 411 665 439 665 c 0
 458 665 465 651 465 641 c 0
 465 631 423 456 325 297 c 0
 251 175 188 113 139 65 c 1
 148 66 150 66 167 66 c 0
 190 66 206 66 241 54 c 0
 255 50 289 37 302 32 c 1
 310 64 344 209 351 224 c 0
 359 238 375 242 382 242 c 0
 396 242 408 232 408 217 c 0
 408 214 407 211 404 199 c 2
 358 16 l 1
 363 15 371 15 376 15 c 0x58
 402 15 423 21 440 27 c 0
 446 29 446 30 449 30 c 0
 456 30 463 17 463 13 c 0x20
EndSplineSet
Substitution2: "'pnum' Proportional Numbers lookup 6 subtable" four.prop
Substitution2: "'onum' Oldstyle Figures lookup 4 subtable" four.oldstyle
AlternateSubs2: "'aalt' Access All Alternates lookup 1 subtable" four.oldstyle four.prop
EndChar

StartChar: G
Encoding: 71 71 58
Width: 757
Flags: MW
HStem: -21 29<368.5 408.5> 242 29<517 525 525 532 737 741.5> 675 29<534.5 594.5 461 633.5>
VStem: 148 80<159.5 249.5 131 361.5>
LayerCount: 2
Fore
SplineSet
751 261 m 0
 751 250 747 242 737 242 c 0
 685 241 684 240 671 188 c 2
 625 4 l 1
 625 4 622 1 618 1 c 0
 608 1 588 37 580 64 c 1
 521 -7 431 -21 386 -21 c 0
 254 -21 148 76 148 243 c 0
 148 480 360 704 562 704 c 0
 627 704 678 674 710 615 c 1
 775 695 l 2
 782 704 788 704 788 704 c 1
 788 704 797 704 797 695 c 2
 797 695 796 685 795 682 c 2
 734 438 l 2
 730 422 728 421 718 421 c 0
 713 421 705 421 705 430 c 2
 705 439 l 2
 708 454 710 477 710 492 c 0
 710 536 698 675 569 675 c 0
 500 675 414 637 344 552 c 0
 261 450 228 289 228 210 c 0
 228 52 332 8 405 8 c 0
 475 8 542 45 569 93 c 0
 584 120 604 218 604 222 c 0
 604 242 570 242 532 242 c 2
 525 242 l 2
 509 242 501 242 501 252 c 0
 501 271 512 271 521 271 c 0
 559 271 600 269 639 269 c 0
 672 269 707 271 739 271 c 0
 744 271 751 269 751 261 c 0
EndSplineSet
Position2: "'cpsp' Capital Spacing lookup 0 subtable" dx=7 dy=0 dh=14 dv=0
EndChar

StartChar: g
Encoding: 103 103 59
Width: 450
Flags: MW
HStem: -204 19<163.5 209.5 163.5 219> 0 19<201 252.5> 422 19<310 355 279 362>
VStem: 110 62<104 133 103 223>
LayerCount: 2
Fore
SplineSet
365 -60 m 2
 345 -139 270 -204 168 -204 c 0
 91 -204 52 -188 52 -150 c 0
 52 -118 77 -101 97 -101 c 0
 120 -101 129 -117 129 -130 c 0
 129 -144 120 -164 98 -173 c 1
 124 -184 158 -185 169 -185 c 0
 250 -185 288 -108 299 -77 c 2
 331 53 l 1
 324 46 279 0 226 0 c 0
 160 0 110 58 110 150 c 0
 110 296 226 441 332 441 c 0
 378 441 403 407 413 384 c 1
 414 384 l 1
 416 401 429 422 452 422 c 0
 470 422 478 409 478 398 c 2
 478 398 478 393 475 382 c 2
 365 -60 l 2
397 313 m 2
 399 322 400 329 400 329 c 2
 400 335 392 422 332 422 c 0
 288 422 243 370 218 308 c 0
 202 270 172 157 172 109 c 0
 172 97 174 19 228 19 c 0
 282 19 343 97 351 130 c 2
 397 313 l 2
EndSplineSet
EndChar

StartChar: grave
Encoding: 96 96 60
Width: 500
Flags: MW
HStem: 507 21G<414 418.5> 676 20G<336.5 351>
LayerCount: 2
Fore
SplineSet
437 522 m 0
 433 514 421 507 416 507 c 0
 412 507 407 510 406 513 c 2
 309 639 l 2
 304 644 296 654 304 669 c 0
 311 684 329 696 344 696 c 0
 358 696 365 682 365 682 c 1
 435 535 l 2
 440 527 439 525 437 522 c 0
EndSplineSet
EndChar

StartChar: greater
Encoding: 62 62 61
Width: 762
Flags: MW
HStem: -28 21G<88 94> 507 20G<227 233>
LayerCount: 2
Fore
SplineSet
742 250 m 0
 740 243 737 237 716 228 c 2
 113 -21 l 1
 94 -28 l 1
 82 -28 78 -18 80 -10 c 0
 81 -4 83 3 105 12 c 2
 680 250 l 1
 225 487 l 2
 213 493 206 497 209 509 c 0
 211 517 221 527 233 527 c 1
 233 527 237 526 248 520 c 2
 727 271 l 2
 743 263 743 256 742 250 c 0
EndSplineSet
EndChar

StartChar: H
Encoding: 72 72 62
Width: 727
Flags: MW
HStem: 0 29<84 97.5 280.5 301.5 434 447.5 630.5 651.5> 341 29<318 586 311 593> 654 29<245.5 266 244 267.5 449.5 463.5 595.5 616 799.5 813.5>
VStem: 66 765<5 677.5>
LayerCount: 2
Fore
SplineSet
831 672 m 0
 831 654 822 654 805 654 c 0
 743 654 737 646 728 612 c 2
 590 61 l 2
 589 59 588 54 588 46 c 0
 588 37 588 29 644 29 c 0
 659 29 667 29 667 19 c 0
 667 0 656 0 648 0 c 0
 613 0 574 2 538 2 c 0
 502 2 465 0 430 0 c 0
 426 0 416 0 416 10 c 0
 416 29 425 29 443 29 c 0
 504 29 510 37 519 72 c 2
 586 341 l 1
 311 341 l 1
 240 61 l 1
 238 46 l 2
 238 37 238 29 294 29 c 0
 309 29 317 29 317 19 c 0
 317 0 306 0 298 0 c 0
 263 0 224 2 188 2 c 0
 152 2 115 0 80 0 c 0
 76 0 66 0 66 10 c 0
 66 29 75 29 93 29 c 0
 154 29 160 37 169 72 c 2
 306 623 l 2
 308 629 308 632 308 638 c 0
 308 654 280 654 255 654 c 0
 236 654 229 654 229 664 c 0
 229 683 240 683 248 683 c 0
 284 683 322 681 359 681 c 0
 395 681 432 683 467 683 c 0
 472 683 481 683 481 672 c 0
 481 654 472 654 455 654 c 0
 393 654 387 646 378 612 c 2
 318 370 l 1
 593 370 l 1
 656 623 l 2
 658 629 658 632 658 638 c 0
 658 654 630 654 605 654 c 0
 586 654 579 654 579 664 c 0
 579 683 590 683 598 683 c 0
 634 683 672 681 709 681 c 0
 745 681 782 683 817 683 c 0
 822 683 831 683 831 672 c 0
EndSplineSet
Position2: "'cpsp' Capital Spacing lookup 0 subtable" dx=7 dy=0 dh=14 dv=0
EndChar

StartChar: h
Encoding: 104 104 63
Width: 500
Flags: MW
HStem: -10 20<393.5 429 393.5 444.5> 421 20<325 377>
VStem: 326 52<44 52 28.5 78.5> 400 57<323 362.5>
LayerCount: 2
Fore
SplineSet
523 143 m 0
 523 139 491 -10 398 -10 c 0
 357 -10 326 20 326 68 c 0
 326 89 330 98 339 123 c 0
 356 172 400 292 400 354 c 0
 400 371 400 421 354 421 c 0
 258 421 204 294 198 271 c 2
 136 23 l 2
 134 16 128 -10 100 -10 c 0
 83 -10 74 2 74 15 c 0
 74 18 75 20 78 33 c 2
 224 617 l 2
 225 621 227 631 227 635 c 0
 227 645 227 654 177 654 c 0
 163 654 155 654 155 664 c 0
 155 682 164 683 178 684 c 2
 278 693 l 2
 294 694 301 693 301 684 c 0
 301 681 300 677 298 671 c 2
 223 370 l 1
 251 404 293 441 357 441 c 0
 434 441 457 392 457 339 c 0
 457 281 423 188 397 115 c 0
 389 95 378 64 378 40 c 0
 378 17 386 10 401 10 c 0
 457 10 484 100 493 134 c 0
 497 149 498 152 510 152 c 0
 514 152 523 152 523 143 c 0
EndSplineSet
EndChar

StartChar: hyphen
Encoding: 45 45 64
Width: 350
Flags: MW
HStem: 190 52<101 308 118 299>
VStem: 85 247<195 237>
LayerCount: 2
Fore
SplineSet
332 232 m 0
 332 226 326 207 324 201 c 0
 321 190 319 190 299 190 c 2
 109 190 l 2
 93 190 85 190 85 200 c 0
 85 206 91 225 93 231 c 0
 96 242 98 242 118 242 c 2
 308 242 l 2
 324 242 332 242 332 232 c 0
EndSplineSet
EndChar

StartChar: I
Encoding: 73 73 65
Width: 377
Flags: MW
HStem: 0 29<79 94 284.5 305.5> 654 29<240.5 262.5 240 278.5 452.5 466.5>
VStem: 62 423
LayerCount: 2
Fore
SplineSet
322 19 m 0
 322 0 311 0 303 0 c 0
 266 0 226 2 188 2 c 0
 151 2 112 0 76 0 c 0
 72 0 62 0 62 10 c 0
 62 29 72 29 86 29 c 0
 154 29 160 36 169 72 c 2
 304 612 l 2
 308 628 308 636 308 636 c 2
 308 647 308 654 249 654 c 0
 232 654 225 654 225 665 c 0
 225 683 236 683 244 683 c 0
 281 683 320 681 358 681 c 0
 395 681 434 683 471 683 c 0
 475 683 485 683 485 673 c 0
 485 654 477 654 456 654 c 0
 396 654 386 647 378 613 c 2
 241 63 l 2
 239 54 239 52 239 46 c 0
 239 29 268 29 296 29 c 0
 315 29 322 29 322 19 c 0
EndSplineSet
Position2: "'cpsp' Capital Spacing lookup 0 subtable" dx=7 dy=0 dh=14 dv=0
EndChar

StartChar: i
Encoding: 105 105 66
Width: 300
Flags: MW
HStem: -10 21G<182.5 245> 421 20G<177 217> 553 97<295 306>
VStem: 127 51<40 52 27 73.5> 228 52<378 388.5 354 396.5>
LayerCount: 2
Fore
SplineSet
323 143 m 0
 323 139 291 -10 199 -10 c 0
 166 -10 127 11 127 69 c 0
 127 78 127 91 135 113 c 2
 215 330 l 2
 222 348 228 365 228 391 c 0
 228 402 228 421 206 421 c 0
 148 421 122 328 114 296 c 0
 110 282 109 279 97 279 c 0
 92 279 83 279 83 288 c 0
 83 293 116 441 208 441 c 0
 247 441 280 414 280 363 c 0
 280 345 278 337 269 312 c 2
 210 150 l 2
 192 101 178 65 178 39 c 0
 178 15 190 10 201 10 c 0
 258 10 284 100 293 134 c 0
 297 149 298 152 310 152 c 0
 314 152 323 152 323 143 c 0
350 610 m 0x20
 350 580 321 553 291 553 c 0
 272 553 251 566 251 593 c 0
 251 622 280 650 310 650 c 0
 330 650 350 638 350 610 c 0x20
EndSplineSet
EndChar

StartChar: J
Encoding: 74 74 67
Width: 513
Flags: MW
HStem: -21 21G<181 256.5> 70 88<154 155.5> 654 29<369.5 378 378 386 579 592>
VStem: 100 93<111.5 121.5>
LayerCount: 2
Fore
SplineSet
608 672 m 0
 608 654 598 654 586 654 c 0
 544 654 536 648 528 617 c 2
 410 141 l 2
 389 57 302 -21 211 -21 c 0
 151 -21 100 17 100 85 c 0
 100 158 152 158 156 158 c 0
 177 158 193 144 193 123 c 0
 193 100 172 70 139 70 c 0
 132 70 130 70 127 71 c 1
 133 23 171 -1 209 -1 c 0
 265 -1 321 75 338 144 c 2
 456 617 l 2
 457 621 459 629 459 633 c 0
 459 654 426 654 386 654 c 2
 378 654 l 2
 361 654 354 654 354 665 c 0
 354 683 365 683 374 683 c 0
 413 683 454 681 494 681 c 0
 527 681 563 683 595 683 c 0
 599 683 608 683 608 672 c 0
EndSplineSet
Position2: "'cpsp' Capital Spacing lookup 0 subtable" dx=7 dy=0 dh=14 dv=0
EndChar

StartChar: j
Encoding: 106 106 68
Width: 300
Flags: MW
HStem: -204 21G<31.5 90.5> 421 20G<205 242.5> 553 97<295 306>
VStem: -36 77<-170 -123.5> 258 56<374 376 345.5 391>
LayerCount: 2
Fore
SplineSet
215 -58 m 2
 197 -128 132 -204 49 -204 c 0
 14 -204 -36 -191 -36 -149 c 0
 -36 -120 -13 -101 9 -101 c 0
 32 -101 41 -117 41 -130 c 0
 41 -133 41 -162 7 -173 c 1
 25 -184 47 -184 50 -184 c 0
 119 -184 149 -81 154 -59 c 2
 251 330 l 2
 257 353 258 368 258 380 c 0
 258 402 255 421 230 421 c 0
 180 421 140 362 116 298 c 0
 109 280 108 279 97 279 c 0
 91 279 83 280 83 288 c 0
 83 294 134 441 232 441 c 0
 286 441 314 399 314 353 c 0
 314 338 309 318 309 318 c 1
 215 -58 l 2
350 610 m 0x20
 350 580 321 553 291 553 c 0
 272 553 251 566 251 593 c 0
 251 622 280 650 310 650 c 0
 330 650 350 638 350 610 c 0x20
EndSplineSet
EndChar

StartChar: K
Encoding: 75 75 69
Width: 752
Flags: MW
HStem: 0 29<84 97.5 280.5 301.5 488.5 498 674.5 679> 654 29<245.5 266 244 267.5 449.5 463.5>
LayerCount: 2
Fore
SplineSet
693 19 m 0
 693 0 682 0 676 0 c 0
 673 0 659 2 588 2 c 0
 555 2 521 0 489 0 c 0
 485 0 475 0 475 10 c 0
 475 28 485 29 492 29 c 0
 504 29 540 31 540 61 c 0
 540 68 540 70 535 82 c 2
 430 367 l 1
 287 246 l 1
 246 84 238 54 238 46 c 0
 238 37 238 29 294 29 c 0
 309 29 317 29 317 19 c 0
 317 0 306 0 298 0 c 0
 263 0 224 2 188 2 c 0
 152 2 115 0 80 0 c 0
 76 0 66 0 66 10 c 0
 66 29 75 29 93 29 c 0
 154 29 160 37 169 72 c 2
 306 623 l 2
 308 629 308 632 308 638 c 0
 308 654 280 654 255 654 c 0
 236 654 229 654 229 664 c 0
 229 683 240 683 248 683 c 0
 284 683 322 681 359 681 c 0
 395 681 432 683 467 683 c 0
 472 683 481 683 481 672 c 0
 481 654 472 654 455 654 c 0
 393 654 387 646 378 612 c 2
 297 288 l 1
 653 586 l 2
 657 590 658 591 662 594 c 0
 664 597 665 598 668 600 c 0
 675 606 687 617 687 635 c 0
 687 648 677 653 664 654 c 0
 660 654 652 655 652 664 c 0
 652 683 663 683 671 683 c 0
 700 683 732 681 762 681 c 0
 785 681 811 683 833 683 c 0
 839 683 844 679 844 673 c 0
 844 656 835 655 827 654 c 0
 798 651 761 644 676 573 c 2
 490 417 l 1
 618 70 l 2
 630 38 643 30 674 29 c 0
 686 29 693 28 693 19 c 0
EndSplineSet
Position2: "'cpsp' Capital Spacing lookup 0 subtable" dx=7 dy=0 dh=14 dv=0
EndChar

StartChar: k
Encoding: 107 107 70
Width: 450
Flags: MW
HStem: -10 20<356 381.5> 421 20<406 439>
VStem: 289 60<141.5 177.5> 417 77<369 370.5>
LayerCount: 2
Fore
SplineSet
473 143 m 0
 473 138 460 82 441 48 c 0
 424 16 400 -10 363 -10 c 0
 326 -10 282 14 282 85 c 0
 282 99 282 104 287 124 c 0
 289 134 289 139 289 144 c 0
 289 211 212 227 188 230 c 1
 136 23 l 2
 134 16 128 -10 100 -10 c 0
 83 -10 74 2 74 15 c 0
 74 18 75 20 78 33 c 2
 224 617 l 2
 225 621 227 631 227 635 c 0
 227 645 227 654 177 654 c 0
 163 654 155 654 155 664 c 0
 155 682 164 683 178 684 c 2
 278 693 l 2
 294 694 301 693 301 684 c 0
 301 681 300 677 298 671 c 2
 195 259 l 1
 213 267 233 275 289 342 c 0
 328 388 372 441 431 441 c 0
 475 441 494 411 494 385 c 0
 494 353 471 334 448 334 c 0
 433 334 417 342 417 363 c 0
 417 378 425 403 459 408 c 1
 458 410 449 421 429 421 c 0
 383 421 343 379 307 335 c 0
 267 288 247 265 218 249 c 1
 264 241 349 220 349 145 c 0
 349 134 349 130 344 111 c 0
 335 76 335 74 335 52 c 0
 335 21 347 10 365 10 c 0
 408 10 427 71 441 128 c 0
 447 151 448 152 460 152 c 0
 464 152 473 152 473 143 c 0
EndSplineSet
EndChar

StartChar: L
Encoding: 76 76 71
Width: 613
Flags: MW
HStem: 0 29<84 90 90 123.5 267 349 349 426.5> 654 29<245.5 267 244 267.5 467 469 469 476>
LayerCount: 2
Fore
SplineSet
607 234 m 2
 531 17 l 2
 525 0 524 0 503 0 c 2
 90 0 l 2
 74 0 66 0 66 10 c 0
 66 29 75 29 93 29 c 0
 154 29 160 37 169 72 c 2
 306 623 l 2
 308 629 308 632 308 638 c 0
 308 654 280 654 255 654 c 0
 236 654 229 654 229 664 c 0
 229 683 240 683 248 683 c 0
 286 683 326 681 365 681 c 0
 405 681 447 683 487 683 c 0
 495 683 503 683 503 672 c 0
 503 654 493 654 476 654 c 2
 469 654 l 2
 393 654 386 645 377 608 c 2
 241 64 l 2
 239 57 237 49 237 41 c 0
 237 30 238 29 267 29 c 2
 349 29 l 2
 504 29 547 148 576 230 c 0
 585 255 586 256 597 256 c 0
 604 256 610 253 610 246 c 0
 610 243 608 237 607 234 c 2
EndSplineSet
Position2: "'cpsp' Capital Spacing lookup 0 subtable" dx=7 dy=0 dh=14 dv=0
EndChar

StartChar: l
Encoding: 108 108 72
Width: 250
Flags: MW
HStem: -10 21G<150 190>
VStem: 93 55<51.5 56.5 40.5 85.5>
LayerCount: 2
Fore
SplineSet
273 142 m 0
 273 139 259 74 241 41 c 0
 227 13 207 -10 173 -10 c 0
 127 -10 93 25 93 78 c 0
 93 93 96 104 98 113 c 2
 224 617 l 2
 225 621 227 631 227 635 c 0
 227 645 227 654 177 654 c 0
 163 654 155 654 155 664 c 0
 155 682 164 683 178 684 c 2
 278 693 l 2
 294 694 301 693 301 684 c 0
 301 681 299 677 298 671 c 2
 156 104 l 2
 153 91 148 63 148 50 c 0
 148 31 153 10 175 10 c 0
 209 10 226 70 239 119 c 0
 242 128 246 143 247 146 c 0
 249 152 256 152 260 152 c 0
 265 152 273 152 273 142 c 0
EndSplineSet
EndChar

StartChar: less
Encoding: 60 60 73
Width: 762
Flags: MW
HStem: -28 21G<653 658.5> 507 20G<792 797.5>
LayerCount: 2
Fore
SplineSet
677 -9 m 0
 674 -20 664 -28 653 -28 c 1
 653 -28 649 -27 638 -21 c 2
 159 228 l 2
 142 237 143 243 145 250 c 0
 146 256 150 263 170 271 c 2
 773 520 l 1
 792 527 l 2
 803 527 809 519 806 508 c 0
 805 502 801 495 781 487 c 2
 206 249 l 1
 662 12 l 2
 678 4 678 -3 677 -9 c 0
EndSplineSet
EndChar

StartChar: M
Encoding: 77 77 74
Width: 877
Flags: MW
HStem: 0 29<82.5 85 82.5 96 587 599 777.5 797.5> 654 29<260 271.5 920 953 953 959.5>
LayerCount: 2
Fore
SplineSet
977 672 m 0
 977 654 968 654 951 654 c 0
 889 654 883 646 874 612 c 2
 736 61 l 2
 735 59 734 54 734 46 c 0
 734 37 734 29 790 29 c 0
 805 29 813 29 813 19 c 0
 813 0 802 0 795 0 c 0
 760 0 723 2 687 2 c 0
 652 2 616 0 582 0 c 0
 579 0 569 0 569 10 c 0
 569 29 578 29 596 29 c 0
 657 29 663 37 672 72 c 2
 814 642 l 1
 813 642 l 1
 442 18 l 2
 434 5 431 0 419 0 c 0
 407 0 405 3 403 22 c 2
 345 636 l 1
 344 636 l 1
 209 95 l 1
 209 95 205 80 205 71 c 0
 205 37 233 30 263 29 c 0
 269 29 277 28 277 19 c 0
 277 0 266 0 260 0 c 0
 231 0 200 2 170 2 c 0
 141 2 110 0 82 0 c 0
 78 0 70 1 70 10 c 0
 70 28 80 29 85 29 c 0
 115 31 163 33 180 100 c 2
 310 623 l 2
 312 629 312 632 312 638 c 0
 312 654 284 654 259 654 c 0
 240 654 233 654 233 664 c 0
 233 683 242 683 260 683 c 2
 381 683 l 2
 405 683 406 682 408 660 c 2
 462 94 l 1
 802 667 l 2
 812 683 815 683 836 683 c 2
 953 683 l 2
 970 683 977 683 977 672 c 0
EndSplineSet
Position2: "'cpsp' Capital Spacing lookup 0 subtable" dx=7 dy=0 dh=14 dv=0
EndChar

StartChar: m
Encoding: 109 109 75
Width: 800
Flags: MW
HStem: -10 21G<141 156 391 411.5 677.5 744.5> 421 20G<173.5 196 379 428 626 677>
VStem: 626 52<44 52 28.5 78.5> 700 57<323 362.5>
LayerCount: 2
Fore
SplineSet
823 143 m 0
 823 139 791 -10 698 -10 c 0
 657 -10 626 20 626 68 c 0
 626 89 630 98 639 123 c 0
 656 172 700 292 700 354 c 0
 700 371 700 421 654 421 c 0
 558 421 504 294 498 271 c 2
 437 25 l 2
 433 8 423 -10 400 -10 c 0
 382 -10 374 3 374 14 c 2
 374 14 374 19 377 30 c 2
 443 294 l 2
 447 312 451 334 451 354 c 0
 451 370 451 421 405 421 c 0
 312 421 257 304 247 267 c 0
 242 245 236 224 231 202 c 2
 185 17 l 2
 178 -3 162 -10 150 -10 c 0
 132 -10 124 2 124 14 c 0
 124 18 124 19 128 33 c 2
 201 325 l 2
 205 339 209 361 209 380 c 0
 209 392 209 421 183 421 c 0
 149 421 130 362 115 303 c 0
 109 280 108 279 97 279 c 0
 88 279 83 281 83 289 c 2
 83 289 96 351 115 388 c 0
 136 431 162 441 185 441 c 0
 231 441 262 405 265 360 c 1
 301 410 350 441 408 441 c 0
 456 441 503 418 509 350 c 1
 545 405 595 441 657 441 c 0
 734 441 757 392 757 339 c 0
 757 281 723 188 697 115 c 0
 689 95 678 64 678 40 c 0
 678 17 686 10 701 10 c 0
 757 10 784 100 793 134 c 0
 797 149 798 152 810 152 c 0
 814 152 823 152 823 143 c 0
EndSplineSet
EndChar

StartChar: N
Encoding: 78 78 76
Width: 727
Flags: MW
HStem: 0 29<78.5 81 78.5 92> 654 29<256 259.5 637.5 638 816 818>
LayerCount: 2
Fore
SplineSet
831 672 m 0
 831 655 820 654 816 654 c 0
 779 652 737 645 721 583 c 2
 580 18 l 2
 576 1 573 0 562 0 c 0
 550 0 549 3 545 15 c 2
 337 622 l 1
 205 95 l 1
 205 95 201 80 201 71 c 0
 201 37 229 30 259 29 c 0
 265 29 273 28 273 19 c 0
 273 0 262 0 256 0 c 0
 227 0 196 2 166 2 c 0
 137 2 106 0 78 0 c 0
 74 0 66 1 66 10 c 0
 66 28 76 29 81 29 c 0
 111 31 159 33 176 100 c 2
 313 648 l 1
 291 654 264 654 255 654 c 0
 236 654 229 654 229 664 c 0
 229 683 238 683 256 683 c 2
 370 683 l 2
 391 683 392 682 397 667 c 2
 579 137 l 1
 691 585 l 2
 692 591 695 603 695 612 c 0
 695 642 675 653 638 654 c 0
 631 654 623 655 623 664 c 0
 623 683 634 683 641 683 c 0
 670 683 701 681 731 681 c 0
 760 681 790 683 818 683 c 0
 822 683 831 683 831 672 c 0
EndSplineSet
Position2: "'cpsp' Capital Spacing lookup 0 subtable" dx=7 dy=0 dh=14 dv=0
EndChar

StartChar: n
Encoding: 110 110 77
Width: 550
Flags: MW
HStem: -10 21G<141 161.5 427.5 494.5> 421 20G<173.5 196 376 427>
VStem: 376 52<44 52 28.5 78.5> 450 57<323 362.5>
LayerCount: 2
Fore
SplineSet
573 143 m 0
 573 139 541 -10 448 -10 c 0
 407 -10 376 20 376 68 c 0
 376 89 380 98 389 123 c 0
 406 172 450 292 450 354 c 0
 450 371 450 421 404 421 c 0
 308 421 254 293 248 271 c 2
 187 25 l 2
 183 8 173 -10 150 -10 c 0
 132 -10 124 2 124 14 c 0
 124 18 124 19 128 33 c 2
 201 325 l 2
 205 339 209 361 209 380 c 0
 209 392 209 421 183 421 c 0
 149 421 130 362 115 303 c 0
 109 280 108 279 97 279 c 0
 88 279 83 281 83 289 c 2
 83 289 96 351 115 388 c 0
 136 431 162 441 185 441 c 0
 231 441 262 405 265 360 c 1
 298 405 345 441 407 441 c 0
 484 441 507 392 507 339 c 0
 507 281 473 188 447 115 c 0
 439 95 428 64 428 40 c 0
 428 17 436 10 451 10 c 0
 507 10 534 100 543 134 c 0
 547 149 548 152 560 152 c 0
 564 152 573 152 573 143 c 0
EndSplineSet
EndChar

StartChar: nine
Encoding: 57 57 78
Width: 500
Flags: MW
HStem: -21 27<196.5 233 196.5 250.5> 43 74 219 20<266 327> 641 24<383 446.5>
VStem: 163 67<323 446.5> 483 59<454 558>
LayerCount: 2
Fore
SplineSet
542 490 m 0
 542 418 518 244 421 115 c 0
 369 47 294 -21 207 -21 c 0
 172 -21 102 -11 102 56 c 0
 102 115 142 117 149 117 c 0
 166 117 180 107 180 88 c 0
 180 71 168 45 133 42 c 1
 147 11 184 6 209 6 c 0
 257 6 374 43 436 311 c 1
 403 258 357 219 297 219 c 0
 186 219 163 334 163 373 c 0
 163 520 288 665 417 665 c 0
 542 665 542 520 542 490 c 0
483 550 m 0
 483 566 478 641 415 641 c 0
 351 641 304 588 278 532 c 0
 264 502 230 374 230 328 c 0
 230 318 230 239 302 239 c 0
 439 239 483 477 483 550 c 0
EndSplineSet
Substitution2: "'pnum' Proportional Numbers lookup 6 subtable" nine.prop
Substitution2: "'onum' Oldstyle Figures lookup 4 subtable" nine.oldstyle
AlternateSubs2: "'aalt' Access All Alternates lookup 1 subtable" nine.oldstyle nine.prop
EndChar

StartChar: numbersign
Encoding: 35 35 79
Width: 800
Flags: MW
HStem: -194 21G<144.5 155.5 350.5 361.5> 138 37<139 302 146 283 343 489 146 324 549 731> 324 37<185 394 193 374 193 416 435 580 641 778> 674 20G<562.5 573.5 768.5 779.5>
VStem: 114 695<147.5 351.5>
LayerCount: 2
Fore
SplineSet
763 156 m 0
 763 138 745 138 731 138 c 2
 530 138 l 1
 376 -176 l 2
 372 -185 367 -194 356 -194 c 0
 345 -194 337 -184 337 -175 c 0
 337 -172 337 -170 344 -158 c 2
 489 138 l 1
 324 138 l 1
 170 -176 l 2
 166 -185 161 -194 150 -194 c 0
 139 -194 131 -184 131 -175 c 0
 131 -172 131 -170 138 -158 c 2
 283 138 l 1
 146 138 l 2
 132 138 114 138 114 157 c 0
 114 175 133 175 146 175 c 2
 302 175 l 1
 374 324 l 1
 193 324 l 2
 177 324 161 324 161 343 c 0
 161 361 178 361 193 361 c 2
 394 361 l 1
 548 676 l 2
 552 685 557 694 568 694 c 0
 579 694 587 684 587 675 c 0
 587 672 587 670 580 658 c 2
 435 361 l 1
 600 361 l 1
 754 676 l 2
 758 685 763 694 774 694 c 0
 785 694 793 684 793 675 c 0
 793 672 793 670 786 658 c 2
 641 361 l 1
 778 361 l 2
 791 361 809 361 809 342 c 0
 809 324 790 324 778 324 c 2
 622 324 l 1
 549 175 l 1
 731 175 l 2
 746 175 763 175 763 156 c 0
580 324 m 1
 416 324 l 1
 343 175 l 1
 508 175 l 1
 580 324 l 1
EndSplineSet
EndChar

StartChar: O
Encoding: 79 79 80
Width: 750
Flags: MW
HStem: -21 23<330.5 465.5 330.5 469> 682 22<512 585.5>
VStem: 146 82<163 236.5 145 350.5> 695 78<387.5 518.5 328.5 550.5>
LayerCount: 2
Fore
SplineSet
773 446 m 0
 773 211 568 -21 370 -21 c 0
 232 -21 146 91 146 235 c 0
 146 466 349 704 550 704 c 0
 688 704 773 591 773 446 c 0
695 485 m 0
 695 616 627 682 544 682 c 0
 480 682 399 640 332 546 c 0
 251 431 228 267 228 206 c 0
 228 84 286 2 375 2 c 0
 556 2 695 290 695 485 c 0
EndSplineSet
Position2: "'cpsp' Capital Spacing lookup 0 subtable" dx=7 dy=0 dh=14 dv=0
EndChar

StartChar: o
Encoding: 111 111 81
Width: 500
Flags: MW
HStem: -10 21G<213 310> 421 20G<337.5 381.5>
VStem: 110 64<98 137 80 226> 433 64<295.5 331 206 345.5>
LayerCount: 2
Fore
SplineSet
497 279 m 0
 497 133 371 -10 249 -10 c 0
 177 -10 110 44 110 152 c 0
 110 300 236 441 358 441 c 0
 433 441 497 383 497 279 c 0
433 317 m 0
 433 374 407 421 356 421 c 0
 319 421 268 391 231 327 c 0
 198 270 174 160 174 114 c 0
 174 46 208 10 250 10 c 0
 285 10 336 35 377 106 c 0
 409 161 433 274 433 317 c 0
EndSplineSet
EndChar

StartChar: one
Encoding: 49 49 82
Width: 500
Flags: MW
HStem: 0 29<128.5 151 387 391.5> 507 28 645 20G<440.5 446.5>
LayerCount: 2
Fore
SplineSet
407 18 m 0
 407 0 396 0 387 0 c 2
 258 2 l 1
 132 0 l 2
 125 0 116 0 116 10 c 0
 116 29 125 29 143 29 c 2
 151 29 l 2
 227 29 236 38 244 72 c 2
 363 549 l 1
 322 520 280 507 252 507 c 0
 243 507 238 510 238 518 c 0
 238 535 246 535 258 537 c 0
 331 544 386 594 428 652 c 0
 437 664 438 665 443 665 c 0
 450 665 453 659 453 655 c 0
 453 651 452 645 451 641 c 2
 308 72 l 2
 304 57 304 50 304 50 c 2
 304 38 304 29 375 29 c 2
 383 29 l 2
 400 29 407 29 407 18 c 0
EndSplineSet
Substitution2: "'pnum' Proportional Numbers lookup 6 subtable" one.prop
Substitution2: "'onum' Oldstyle Figures lookup 4 subtable" one.oldstyle
AlternateSubs2: "'aalt' Access All Alternates lookup 1 subtable" one.oldstyle one.prop
EndChar

StartChar: P
Encoding: 80 80 83
Width: 663
Flags: MW
HStem: 0 29<85 98.5 281.5 302.5> 318 24<310 436 436 459 306 436> 654 29<257 268.5 410.5 427 427 514>
VStem: 635 81<552 578.5 478 591>
LayerCount: 2
Fore
SplineSet
716 537 m 0
 716 419 584 318 459 318 c 2
 306 318 l 1
 241 61 l 1
 239 46 l 2
 239 37 239 29 295 29 c 0
 310 29 318 29 318 19 c 0
 318 0 307 0 299 0 c 0
 264 0 225 2 189 2 c 0
 153 2 116 0 81 0 c 0
 77 0 67 0 67 10 c 0
 67 29 76 29 94 29 c 0
 155 29 161 37 170 72 c 2
 307 623 l 2
 309 629 309 632 309 638 c 0
 309 654 281 654 256 654 c 0
 237 654 230 654 230 664 c 0
 230 683 239 683 257 683 c 2
 543 683 l 2
 650 683 716 620 716 537 c 0
635 561 m 0
 635 621 596 654 514 654 c 2
 427 654 l 2
 394 654 387 654 378 616 c 2
 310 342 l 1
 436 342 l 2
 527 342 571 390 575 393 c 0
 626 449 635 543 635 561 c 0
EndSplineSet
Position2: "'cpsp' Capital Spacing lookup 0 subtable" dx=7 dy=0 dh=14 dv=0
EndChar

StartChar: p
Encoding: 112 112 84
Width: 500
Flags: MW
HStem: -194 29<29.5 39 184.5 202> -10 20<251.5 290.5 244 329.5> 421 20<173.5 196 353.5 399>
VStem: 436 63<303 332.5 216.5 357.5>
LayerCount: 2
Fore
SplineSet
499 289 m 0
 499 144 384 -10 275 -10 c 0
 228 -10 203 25 193 50 c 1
 146 -134 145 -141 145 -150 c 0
 145 -165 171 -165 193 -165 c 0
 211 -165 217 -165 217 -176 c 0
 217 -194 205 -194 199 -194 c 0
 170 -194 138 -192 108 -192 c 0
 81 -192 52 -194 26 -194 c 0
 21 -194 14 -192 14 -184 c 0
 14 -165 24 -165 35 -165 c 0
 73 -165 80 -159 88 -128 c 2
 201 325 l 2
 205 340 209 361 209 380 c 0
 209 392 209 421 183 421 c 0
 149 421 130 362 115 303 c 0
 109 280 108 279 97 279 c 0
 88 279 83 281 83 289 c 2
 83 289 96 351 115 388 c 0
 136 431 162 441 185 441 c 0
 219 441 255 419 264 370 c 1
 269 377 321 441 384 441 c 0
 453 441 499 376 499 289 c 0
382 108 m 0
 402 150 436 275 436 331 c 0
 436 384 417 421 381 421 c 0
 326 421 265 339 257 308 c 2
 210 119 l 2
 208 111 207 108 207 105 c 2
 207 105 213 10 275 10 c 0
 306 10 347 38 382 108 c 0
EndSplineSet
EndChar

StartChar: parenleft
Encoding: 40 40 85
Width: 400
Flags: MW
HStem: -251 21G<246 255> 730 20G<494 504>
VStem: 148 46<10 47 -62.5 110.5>
LayerCount: 2
Fore
SplineSet
509 742 m 2
 509 739 508 738 498 728 c 0
 228 496 194 87 194 7 c 0
 194 -132 239 -203 256 -230 c 0
 262 -239 262 -243 262 -243 c 2
 262 -250 257 -251 253 -251 c 0
 239 -251 196 -189 173 -122 c 0
 158 -80 148 -21 148 41 c 0
 148 180 201 455 385 653 c 0
 433 705 489 750 499 750 c 0
 509 750 509 742 509 742 c 2
EndSplineSet
EndChar

StartChar: parenright
Encoding: 41 41 86
Width: 400
Flags: MW
HStem: -251 21G<20 30.5> 730 20G<273 276>
VStem: 330 45<449.5 510.5 370 519>
LayerCount: 2
Fore
SplineSet
375 457 m 0
 375 283 305 22 135 -158 c 0
 99 -197 37 -251 24 -251 c 0
 16 -251 15 -243 15 -243 c 2
 15 -240 16 -239 28 -227 c 0
 292 1 330 407 330 492 c 0
 330 546 323 643 269 727 c 0
 262 738 262 742 262 742 c 2
 262 750 270 750 276 750 c 1
 351 673 375 564 375 457 c 0
EndSplineSet
EndChar

StartChar: percent
Encoding: 37 37 87
Width: 800
Flags: MW
HStem: -56 21G<156.5 163 567 638.5> 327 40 624 19<584 619> 730 20G<346.5 408 346.5 409.5>
VStem: 203 48<434.5 482 427 545> 444 28<568.5 634.5 564 656> 502 48<35 69 30.5 141> 744 27<169 229>
LayerCount: 2
Fore
SplineSet
832 731 m 0
 832 724 828 720 821 712 c 2
 178 -43 l 2
 169 -53 167 -56 159 -56 c 0
 154 -56 141 -53 141 -37 c 0
 141 -34 141 -29 150 -19 c 2
 722 654 l 1
 722 655 l 1
 685 635 641 624 597 624 c 0
 571 624 521 627 468 666 c 1
 470 657 472 643 472 626 c 0
 472 502 384 347 295 347 c 0
 245 347 203 391 203 478 c 0
 203 612 302 750 391 750 c 0
 425 750 439 731 451 715 c 0
 495 653 560 643 598 643 c 0
 684 643 758 695 788 730 c 0
 801 746 804 750 813 750 c 0
 824 750 832 740 832 731 c 0
771 223 m 0
 771 98 683 -56 594 -56 c 0
 540 -56 502 -5 502 75 c 0
 502 207 600 347 690 347 c 0
 750 347 771 281 771 223 c 0
444 630 m 0
 444 682 428 730 391 730 c 0
 302 730 251 517 251 447 c 0
 251 407 262 367 297 367 c 0
 361 367 444 507 444 630 c 0
744 227 m 0
 744 231 744 327 690 327 c 0
 653 327 614 278 593 230 c 0
 577 191 550 94 550 44 c 0
 550 17 556 -36 596 -36 c 0
 663 -36 744 111 744 227 c 0
EndSplineSet
EndChar

StartChar: period
Encoding: 46 46 88
Width: 300
Flags: MW
HStem: 0 97<157 165.5>
VStem: 112 99<41.5 54.5>
LayerCount: 2
Fore
SplineSet
211 58 m 0
 211 25 179 0 152 0 c 0
 128 0 112 17 112 39 c 0
 112 70 143 97 171 97 c 0
 188 97 211 88 211 58 c 0
EndSplineSet
EndChar

StartChar: plus
Encoding: 43 43 89
Width: 750
Flags: MW
HStem: -51 21G<362 372.5> 231 37<162.5 422 169 413 461 704 169 451> 530 20G<500.5 513>
VStem: 138 598<240.5 258.5 240 259>
LayerCount: 2
Fore
SplineSet
736 249 m 0
 736 231 719 231 704 231 c 2
 451 231 l 1
 387 -28 l 2
 384 -41 379 -51 366 -51 c 0
 358 -51 348 -44 348 -32 c 0
 348 -28 348 -27 352 -13 c 2
 413 231 l 1
 169 231 l 2
 156 231 138 231 138 250 c 0
 138 268 157 268 169 268 c 2
 422 268 l 1
 486 525 l 2
 489 539 494 550 507 550 c 0
 519 550 526 540 526 531 c 0
 526 528 524 524 523 518 c 2
 461 268 l 1
 704 268 l 2
 720 268 736 268 736 249 c 0
EndSplineSet
EndChar

StartChar: Q
Encoding: 81 81 90
Width: 750
Flags: MW
HStem: -194 86<525.5 549.5> -21 22<370.5 385.5> 127 20<389 434> 682 22<504 590.5>
VStem: 146 78<163 225.5 162.5 350.5> 315 20<34.5 61.5 22 66> 449 39 695 78<434 518.5 373.5 540>
LayerCount: 2
Fore
SplineSet
679 -1 m 0
 679 -6 660 -77 629 -126 c 0
 608 -158 575 -194 524 -194 c 0
 449 -194 449 -128 449 -105 c 0
 449 -79 451 -69 460 -6 c 1
 431 -16 401 -21 370 -21 c 0
 232 -21 146 91 146 235 c 0
 146 466 349 704 550 704 c 0
 688 704 773 591 773 446 c 0
 773 301 683 94 488 6 c 1
 488 -80 503 -108 548 -108 c 0
 595 -108 640 -63 658 -6 c 0
 661 5 663 9 669 9 c 0
 675 9 679 6 679 -1 c 0
695 480 m 0
 695 600 636 682 545 682 c 0
 463 682 382 616 333 545 c 0
 241 411 224 249 224 202 c 0
 224 123 250 42 321 12 c 1
 317 21 315 26 315 43 c 0
 315 89 356 147 410 147 c 0
 475 147 485 88 487 39 c 1
 649 141 695 388 695 480 c 0
464 25 m 1
 465 35 466 47 466 57 c 0
 466 94 458 127 410 127 c 0
 368 127 335 80 335 43 c 0
 335 1 366 1 375 1 c 0
 415 1 451 18 464 25 c 1
EndSplineSet
Position2: "'cpsp' Capital Spacing lookup 0 subtable" dx=7 dy=0 dh=14 dv=0
EndChar

StartChar: q
Encoding: 113 113 91
Width: 450
Flags: MW
HStem: -194 29<207.5 214 207.5 221 382.5 401> -10 20<198.5 241> 421 20<310.5 356.5 277.5 362.5>
VStem: 108 62<97.5 125 94 215>
LayerCount: 2
Fore
SplineSet
416 -176 m 0
 416 -194 404 -194 398 -194 c 0
 367 -194 333 -192 301 -192 c 0
 270 -192 236 -194 206 -194 c 0
 202 -194 192 -194 192 -184 c 0
 192 -165 201 -165 214 -165 c 0
 278 -164 278 -162 292 -108 c 2
 330 44 l 1
 329 45 l 1
 295 10 259 -10 223 -10 c 0
 155 -10 108 53 108 142 c 0
 108 288 223 441 332 441 c 0
 381 441 405 404 416 375 c 1
 432 406 469 440 477 440 c 0
 482 440 486 436 486 431 c 0
 486 427 485 421 484 417 c 2
 346 -133 l 2
 344 -142 344 -144 344 -150 c 0
 344 -165 370 -165 392 -165 c 0
 410 -165 416 -165 416 -176 c 0
350 123 m 2
 396 311 l 1
 399 325 l 2
 399 328 393 421 332 421 c 0
 289 421 244 370 218 308 c 0
 202 268 170 150 170 100 c 0
 170 88 172 10 225 10 c 0
 283 10 343 96 350 123 c 2
EndSplineSet
EndChar

StartChar: question
Encoding: 63 63 92
Width: 500
Flags: MW
HStem: 0 97<256 267> 180 20<288 309 288 330.5> 431 74<232 234> 695 20<386.5 450>
VStem: 240 32<230 242 230 265.5> 381 25 510 32<568.5 627 567.5 632>
LayerCount: 2
Fore
SplineSet
542 592 m 0
 542 543 519 478 459 428 c 2
 359 346 l 2
 335 327 298 297 290 288 c 0
 279 273 272 248 272 236 c 0
 272 224 277 200 299 200 c 0
 319 200 359 217 378 273 c 0
 381 282 381 284 393 284 c 0
 399 284 406 284 406 275 c 0
 406 254 364 180 297 180 c 0
 265 180 240 207 240 249 c 0
 240 282 257 324 292 354 c 2
 425 463 l 2
 457 489 510 532 510 605 c 0
 510 659 475 695 425 695 c 0
 348 695 273 622 232 505 c 1
 238 505 267 505 267 476 c 0
 267 452 246 431 222 431 c 0
 205 431 191 441 191 460 c 0
 191 499 272 715 425 715 c 0
 497 715 542 662 542 592 c 0
311 57 m 0
 311 27 282 0 252 0 c 0
 233 0 212 13 212 40 c 0
 212 69 241 97 271 97 c 0
 291 97 311 85 311 57 c 0
EndSplineSet
EndChar

StartChar: quotedbl
Encoding: 34 34 93
Width: 388
Flags: MW
HStem: 423 21G<242 270 242 242 330 330 330 358> 684 20G<317.5 334.5 405.5 422.5>
LayerCount: 2
Fore
SplineSet
349 674 m 2
 270 423 l 1
 242 423 l 1
 289 674 l 2
 292 691 309 704 326 704 c 0
 343 704 354 691 349 674 c 2
437 674 m 2
 358 423 l 1
 330 423 l 1
 377 674 l 2
 380 691 397 704 414 704 c 0
 431 704 442 691 437 674 c 2
EndSplineSet
EndChar

StartChar: quotesingle
Encoding: 39 39 94
Width: 300
Flags: MW
HStem: 423 21G<242 270 242 242> 684 20G<317.5 334.5>
LayerCount: 2
Fore
SplineSet
349 674 m 2
 270 423 l 1
 242 423 l 1
 289 674 l 2
 292 691 309 704 326 704 c 0
 343 704 354 691 349 674 c 2
EndSplineSet
EndChar

StartChar: R
Encoding: 82 82 95
Width: 713
Flags: MW
HStem: -21 20<584 616.5 584 637> 0 29<85 98 279.5 300.5> 332 20<312 414 414 415 307 414> 654 29<257 268.5 448.5 489>
VStem: 511 71<234 255 216 260.5> 622 82<549 576 494 606>
LayerCount: 2
Fore
SplineSet
707 92 m 0
 707 83 677 -21 597 -21 c 0
 543 -21 480 4 480 82 c 0
 480 102 489 139 496 167 c 0
 503 192 511 226 511 242 c 0
 511 279 494 332 415 332 c 2
 307 332 l 1
 239 61 l 1
 237 46 l 2
 237 37 237 29 293 29 c 0
 308 29 316 29 316 19 c 0
 316 0 305 0 297 0 c 0
 262 0 224 2 188 2 c 0
 153 2 115 0 81 0 c 0
 77 0 67 0 67 10 c 0
 67 29 76 29 94 29 c 0
 155 29 161 37 170 72 c 2
 307 623 l 2
 309 629 309 632 309 638 c 0
 309 654 281 654 256 654 c 0
 237 654 230 654 230 664 c 0
 230 683 239 683 257 683 c 2
 508 683 l 2
 630 683 704 616 704 536 c 0
 704 452 620 369 496 340 c 1
 541 322 582 287 582 223 c 0
 582 209 577 170 577 170 c 2
 573 139 566 86 566 56 c 0
 566 28 568 -1 600 -1 c 0
 633 -1 661 34 677 86 c 0
 681 100 682 102 693 102 c 0
 697 102 707 102 707 92 c 0
622 558 m 0
 622 654 520 654 458 654 c 0
 439 654 409 654 402 652 c 0
 393 651 386 648 378 616 c 2
 312 352 l 1
 414 352 l 2
 617 352 622 540 622 558 c 0
EndSplineSet
Position2: "'cpsp' Capital Spacing lookup 0 subtable" dx=7 dy=0 dh=14 dv=0
EndChar

StartChar: r
Encoding: 114 114 96
Width: 413
Flags: MW
HStem: -10 21G<141 161.5> 421 20G<173.5 196 362 386.5>
VStem: 405 76<365 375.5>
LayerCount: 2
Fore
SplineSet
481 383 m 0
 481 347 454 334 436 334 c 0
 421 334 405 342 405 363 c 0
 405 388 424 403 439 407 c 1
 417 421 389 421 384 421 c 0
 300 421 255 298 252 286 c 2
 187 25 l 2
 183 9 173 -10 150 -10 c 0
 132 -10 124 2 124 14 c 0
 124 18 124 19 128 33 c 2
 201 325 l 2
 205 339 209 361 209 380 c 0
 209 392 209 421 183 421 c 0
 149 421 130 362 115 303 c 0
 109 280 108 279 97 279 c 0
 88 279 83 281 83 289 c 2
 83 289 96 351 115 388 c 0
 136 431 162 441 185 441 c 0
 212 441 255 426 264 367 c 1
 301 419 339 441 385 441 c 0
 413 441 481 434 481 383 c 0
EndSplineSet
EndChar

StartChar: S
Encoding: 83 83 97
Width: 550
Flags: MW
HStem: -21 29<257.5 341.5 257.5 353.5> 677 27<381 434 366.5 483>
VStem: 198 62<466.5 528> 465 61<172 224.5>
LayerCount: 2
Fore
SplineSet
526 237 m 0
 526 107 414 -21 293 -21 c 0
 214 -21 169 11 142 52 c 1
 97 -8 l 2
 87 -20 86 -21 82 -21 c 2
 82 -21 72 -21 72 -12 c 0
 72 -9 74 -1 75 2 c 2
 127 210 l 2
 131 226 133 227 144 227 c 0
 149 227 157 227 157 218 c 2
 156 210 l 2
 150 186 148 159 148 149 c 0
 148 47 219 8 296 8 c 0
 387 8 465 111 465 202 c 0
 465 247 447 286 405 300 c 2
 344 318 l 2
 275 338 257 343 236 366 c 0
 200 405 198 446 198 468 c 0
 198 588 308 704 425 704 c 0
 443 704 517 704 554 633 c 1
 599 693 l 2
 607 704 610 704 613 704 c 2
 613 704 623 704 623 695 c 0
 623 692 621 684 620 681 c 2
 568 473 l 2
 564 457 562 456 551 456 c 0
 544 456 537 456 537 466 c 2
 537 466 537 469 539 475 c 0
 543 504 543 521 543 534 c 0
 543 565 543 677 423 677 c 0
 339 677 260 590 260 504 c 0
 260 429 307 415 339 406 c 2
 436 377 l 2
 486 361 526 316 526 237 c 0
EndSplineSet
Position2: "'cpsp' Capital Spacing lookup 0 subtable" dx=7 dy=0 dh=14 dv=0
EndChar

StartChar: s
Encoding: 115 115 98
Width: 400
Flags: MW
HStem: -10 21G<165.5 270> 305 64 421 20G<264.5 325.5>
VStem: 74 78<55.5 126.5> 335 49<128 152.5>
LayerCount: 2
Fore
SplineSet
384 155 m 0
 384 101 340 -10 200 -10 c 0
 131 -10 74 25 74 86 c 0
 74 141 113 145 121 145 c 0
 134 145 152 137 152 116 c 1
 152 116 152 73 104 71 c 1
 115 24 165 10 201 10 c 0
 311 10 335 98 335 125 c 0
 335 180 284 192 259 197 c 0
 216 207 197 212 180 228 c 0
 171 238 152 259 152 296 c 0
 152 339 187 441 307 441 c 0
 371 441 411 403 411 357 c 0
 411 323 394 305 371 305 c 0
 351 305 344 319 344 330 c 0
 344 334 346 364 382 368 c 1
 375 400 346 421 305 421 c 0
 224 421 202 353 202 327 c 0
 202 282 238 274 265 268 c 0
 313 257 384 241 384 155 c 0
EndSplineSet
EndChar

StartChar: semicolon
Encoding: 59 59 99
Width: 300
Flags: MW
HStem: -193 21G<76.5 88> 0 97<142.5 187.5> 334 97<239 251.5>
VStem: 195 100<378.5 387>
LayerCount: 2
Fore
SplineSet
295 392 m 0
 295 365 268 334 235 334 c 0
 208 334 195 354 195 373 c 0
 195 401 223 431 255 431 c 0
 280 431 295 413 295 392 c 0
209 50 m 0
 209 -64 97 -193 79 -193 c 0
 74 -193 70 -187 70 -183 c 2
 70 -183 70 -179 83 -167 c 0
 118 -132 165 -74 182 8 c 1
 175 5 l 2
 169 2 167 2 160 1 c 2
 160 1 157 0 152 0 c 0
 133 0 112 10 112 38 c 0
 112 69 139 97 171 97 c 0
 204 97 209 68 209 50 c 0
EndSplineSet
EndChar

StartChar: seven
Encoding: 55 55 100
Width: 500
Flags: MW
HStem: -21 21G<284 315> 528 20<450 470.5> 601 64<360 383>
VStem: 145 468<427 661>
LayerCount: 2
Fore
SplineSet
613 657 m 0
 613 654 613 652 597 629 c 0
 461 421 385 185 351 52 c 0
 340 6 333 -21 297 -21 c 0
 271 -21 264 -2 264 9 c 0
 264 18 292 141 378 312 c 0
 404 365 435 424 508 541 c 1
 500 537 481 528 460 528 c 0
 431 528 421 547 412 567 c 0
 398 594 392 601 374 601 c 0
 318 601 237 556 177 439 c 0
 168 424 167 423 158 423 c 0
 153 423 145 423 145 431 c 2
 145 431 145 434 150 445 c 2
 244 650 l 2
 251 665 253 665 262 665 c 0
 269 665 276 665 276 656 c 2
 251 599 l 1
 286 634 334 665 386 665 c 0
 427 665 429 633 432 598 c 0
 435 561 439 548 461 548 c 0
 508 548 551 607 577 647 c 0
 590 664 591 665 600 665 c 0
 605 665 613 665 613 657 c 0
EndSplineSet
Substitution2: "'pnum' Proportional Numbers lookup 6 subtable" seven.prop
Substitution2: "'onum' Oldstyle Figures lookup 4 subtable" seven.oldstyle
AlternateSubs2: "'aalt' Access All Alternates lookup 1 subtable" seven.oldstyle seven.prop
EndChar

StartChar: six
Encoding: 54 54 101
Width: 500
Flags: MW
HStem: -21 27<225 289.5 225 312> 406 20<329.5 394> 527 72 641 24<445.5 477>
VStem: 118 61<123.5 144 76.5 182> 480 78<546.5 620> 497 61
LayerCount: 2
Fore
SplineSet
497 272 m 0xfc
 497 128 376 -21 248 -21 c 0
 136 -21 118 91 118 156 c 0
 118 208 137 380 223 503 c 0
 314 634 406 665 464 665 c 0
 505 665 558 651 558 589 c 0
 558 527 516 527 511 527 c 0
 494 527 480 537 480 556 c 1
 480 556 480 599 529 601 c 1
 521 632 492 641 462 641 c 0
 429 641 293 621 224 334 c 1
 252 377 296 426 363 426 c 0
 475 426 497 311 497 272 c 0xfc
376 99 m 0
 401 152 430 278 430 316 c 0
 430 329 430 406 358 406 c 0
 228 406 179 188 179 100 c 0
 179 53 199 6 251 6 c 0
 328 6 370 88 376 99 c 0
EndSplineSet
Substitution2: "'pnum' Proportional Numbers lookup 6 subtable" six.prop
Substitution2: "'onum' Oldstyle Figures lookup 4 subtable" six.oldstyle
AlternateSubs2: "'aalt' Access All Alternates lookup 1 subtable" six.oldstyle six.prop
EndChar

StartChar: slash
Encoding: 47 47 102
Width: 500
Flags: MW
HStem: -250 21G<30.5 41> 730 20G<583 593.5>
VStem: 17 590
LayerCount: 2
Fore
SplineSet
607 731 m 0
 607 726 603 719 600 714 c 2
 56 -233 l 2
 51 -243 46 -250 36 -250 c 0
 25 -250 17 -240 17 -231 c 0
 17 -226 21 -219 24 -214 c 2
 568 733 l 2
 573 743 578 750 588 750 c 0
 599 750 607 740 607 731 c 0
EndSplineSet
EndChar

StartChar: T
Encoding: 84 84 104
Width: 700
Flags: MW
HStem: 0 29<204 230 495 500> 649 29<346 414 414 448 606 658.5>
LayerCount: 2
Fore
SplineSet
760 474 m 2
 757 458 756 455 744 455 c 0
 740 455 730 455 730 466 c 2
 732 477 l 2
 735 493 743 544 743 574 c 0
 743 643 702 649 615 649 c 0
 597 649 568 649 561 647 c 0
 553 645 547 640 540 612 c 2
 404 68 l 2
 402 58 402 56 402 51 c 0
 402 35 412 34 431 32 c 0
 447 30 463 29 480 29 c 2
 492 29 l 2
 509 29 516 29 516 18 c 0
 516 0 505 0 495 0 c 2
 350 2 l 1
 208 0 l 2
 200 0 191 0 191 10 c 0
 191 29 200 29 218 29 c 2
 230 29 l 2
 315 29 323 39 332 76 c 2
 467 617 l 2
 468 619 471 632 471 638 c 0
 471 645 471 649 448 649 c 2
 414 649 l 2
 278 649 256 625 206 476 c 0
 198 456 197 455 187 455 c 0
 184 455 174 455 174 465 c 0
 174 468 176 475 177 478 c 2
 238 662 l 2
 243 678 245 678 266 678 c 2
 768 678 l 2
 785 678 792 678 792 667 c 2
 792 667 792 665 790 655 c 2
 760 474 l 2
EndSplineSet
Position2: "'cpsp' Capital Spacing lookup 0 subtable" dx=7 dy=0 dh=14 dv=0
EndChar

StartChar: t
Encoding: 116 116 105
Width: 325
Flags: MW
HStem: -10 21G<172.5 249> 402 29<106 202 117 195 263 339> 605 20G<266.5 288.5>
VStem: 118 55<55 57.5 33.5 80>
LayerCount: 2
Fore
SplineSet
348 143 m 0
 348 138 298 -10 200 -10 c 0
 145 -10 118 32 118 78 c 0
 118 82 118 94 123 114 c 2
 195 402 l 1
 114 402 l 2
 98 402 90 402 90 412 c 0
 90 431 99 431 117 431 c 2
 202 431 l 1
 241 588 l 2
 245 603 254 625 279 625 c 0
 298 625 305 610 305 601 c 2
 305 601 304 590 303 588 c 2
 263 431 l 1
 342 431 l 2
 359 431 366 431 366 420 c 0
 366 402 356 402 339 402 c 2
 256 402 l 1
 181 103 l 2
 177 88 173 65 173 50 c 0
 173 17 187 10 202 10 c 0
 267 10 306 108 318 139 c 0
 323 150 324 152 335 152 c 0
 339 152 348 152 348 143 c 0
EndSplineSet
EndChar

StartChar: three
Encoding: 51 51 106
Width: 500
Flags: MW
HStem: -21 20<196.5 242.5 196.5 285> 107 74<122 147.5 118.5 148> 320 29<289 321 299 321 321 325> 412 20<240 264.5 240 269> 645 20<362 431.5>
VStem: 94 28<70.5 107 70 111.5> 197 27<462 509.5 462 517.5> 312 20<478 498> 404 66<144 277.5> 496 57<548 568.5 498 589>
LayerCount: 2
Fore
SplineSet
553 533 m 0
 553 463 499 367 390 329 c 1
 459 299 470 238 470 203 c 0
 470 85 347 -21 223 -21 c 0
 141 -21 94 36 94 105 c 0
 94 118 94 181 143 181 c 0
 152 181 174 176 174 151 c 1
 174 151 174 107 122 107 c 1
 122 33 170 -1 223 -1 c 0
 262 -1 316 21 352 69 c 0
 393 126 404 217 404 235 c 0
 404 320 339 320 325 320 c 2
 298 320 l 2
 280 320 274 320 274 330 c 0
 274 349 282 349 299 349 c 2
 321 349 l 2
 487 349 496 541 496 555 c 0
 496 623 452 645 411 645 c 0
 313 645 224 548 224 471 c 0
 224 453 229 432 251 432 c 0
 278 432 312 460 312 496 c 0
 312 500 311 512 304 526 c 0
 300 532 300 536 300 536 c 2
 300 542 307 546 311 546 c 0
 321 546 332 517 332 497 c 0
 332 448 288 412 250 412 c 0
 224 412 197 428 197 475 c 0
 197 560 297 665 413 665 c 0
 502 665 553 604 553 533 c 0
EndSplineSet
Substitution2: "'pnum' Proportional Numbers lookup 6 subtable" three.prop
Substitution2: "'onum' Oldstyle Figures lookup 4 subtable" three.oldstyle
AlternateSubs2: "'aalt' Access All Alternates lookup 1 subtable" three.oldstyle three.prop
EndChar

StartChar: two
Encoding: 50 50 107
Width: 500
Flags: MW
HStem: -21 64<340 385.5 340 402> 54 20<169.5 184> 336 20<203.5 244.5 203.5 251.5> 645 20<325.5 409.5>
VStem: 164 27<380.5 422.5 380.5 429.5> 311 20<480 495.5> 476 27 476 66<524.5 547 453 572.5>
LayerCount: 2
Fore
SplineSet
503 163 m 0xfd
 503 155 459 -21 345 -21 c 0
 310 -21 282 -4 255 15 c 0
 226 35 200 54 168 54 c 0
 138 54 122 24 113 -8 c 0
 109 -19 108 -21 97 -21 c 0
 91 -21 83 -21 83 -12 c 0
 83 -3 119 146 269 233 c 0
 295 248 376 295 423 360 c 0
 474 433 476 516 476 533 c 0
 476 612 432 645 387 645 c 0
 264 645 191 456 191 389 c 0
 191 372 194 356 213 356 c 0
 276 356 311 466 311 494 c 0
 311 497 310 512 303 527 c 0
 300 532 300 536 300 536 c 2
 300 542 307 546 311 546 c 0
 321 546 331 515 331 494 c 0
 331 459 291 336 212 336 c 0
 177 336 164 364 164 397 c 0
 164 462 243 665 390 665 c 0
 479 665 542 595 542 499 c 0
 542 407 495 351 426 298 c 0
 402 281 378 264 353 250 c 2
 277 207 l 1
 277 207 197 162 146 71 c 1
 154 74 167 74 172 74 c 0
 198 74 225 68 266 58 c 0
 290 52 325 43 355 43 c 0
 416 43 458 105 474 156 c 0
 478 170 478 172 490 172 c 0
 494 172 503 172 503 163 c 0xfd
EndSplineSet
Substitution2: "'pnum' Proportional Numbers lookup 6 subtable" two.prop
Substitution2: "'onum' Oldstyle Figures lookup 4 subtable" two.oldstyle
AlternateSubs2: "'aalt' Access All Alternates lookup 1 subtable" two.oldstyle two.prop
EndChar

StartChar: U
Encoding: 85 85 108
Width: 727
Flags: MW
HStem: -21 29<346.5 425.5 346.5 431.5> 654 29<245.5 266 244 267.5 449.5 463.5 640.5 641 816 818>
VStem: 200 68<104 145.5 91 170.5>
LayerCount: 2
Fore
SplineSet
831 672 m 0
 831 655 820 654 816 654 c 0
 779 652 737 646 721 583 c 2
 631 221 l 2
 602 104 492 -21 371 -21 c 0
 281 -21 200 45 200 163 c 0
 200 178 200 197 208 229 c 2
 306 623 l 2
 308 629 308 632 308 638 c 0
 308 654 280 654 255 654 c 0
 236 654 229 654 229 664 c 0
 229 683 240 683 248 683 c 0
 284 683 322 681 359 681 c 0
 395 681 432 683 467 683 c 0
 472 683 481 683 481 672 c 0
 481 654 472 654 455 654 c 0
 393 654 387 646 378 612 c 2
 278 211 l 2
 272 189 268 157 268 134 c 0
 268 48 318 8 375 8 c 0
 476 8 576 112 605 227 c 2
 694 585 l 2
 696 591 698 603 698 612 c 0
 698 642 678 653 641 654 c 0
 634 654 626 655 626 664 c 0
 626 683 637 683 644 683 c 2
 644 683 673 681 732 681 c 0
 760 681 791 683 818 683 c 0
 822 683 831 683 831 672 c 0
EndSplineSet
Position2: "'cpsp' Capital Spacing lookup 0 subtable" dx=7 dy=0 dh=14 dv=0
EndChar

StartChar: u
Encoding: 117 117 109
Width: 525
Flags: MW
HStem: -10 21G<236.5 282 429.5 466.5> 421 20G<177 212>
VStem: 153 57<71.5 118 71.5 123.5> 229 52<379.5 383 353 404>
LayerCount: 2
Fore
SplineSet
548 143 m 0
 548 140 536 83 519 48 c 0
 506 19 486 -10 447 -10 c 0
 412 -10 381 11 370 50 c 1
 338 10 303 -10 261 -10 c 0
 212 -10 153 14 153 104 c 0
 153 143 166 194 198 283 c 0
 219 341 229 367 229 392 c 0
 229 416 218 421 206 421 c 0
 148 421 122 326 114 296 c 0
 110 282 109 279 97 279 c 0
 92 279 83 279 83 288 c 0
 83 294 117 441 208 441 c 0
 257 441 281 403 281 363 c 0
 281 343 276 330 268 307 c 0
 245 243 210 148 210 88 c 0
 210 55 219 10 264 10 c 0
 310 10 347 45 367 87 c 0
 369 92 369 103 369 103 c 1
 441 392 l 2
 444 406 452 431 480 431 c 0
 493 431 505 422 505 407 c 0
 505 403 505 401 501 387 c 2
 430 103 l 2
 426 88 422 65 422 50 c 0
 422 31 427 10 449 10 c 0
 477 10 496 45 516 128 c 0
 522 151 523 152 535 152 c 0
 539 152 548 152 548 143 c 0
EndSplineSet
EndChar

StartChar: underscore
Encoding: 95 95 110
Width: 727
Flags: MW
HStem: -139 28<-38.5 699 -28 692>
LayerCount: 2
Fore
SplineSet
710 -125 m 0
 708 -133 700 -139 692 -139 c 2
 -35 -139 l 2
 -42 -139 -47 -133 -45 -125 c 0
 -43 -117 -35 -111 -28 -111 c 2
 699 -111 l 2
 707 -111 712 -117 710 -125 c 0
EndSplineSet
EndChar

StartChar: V
Encoding: 86 86 111
Width: 727
Flags: MW
HStem: -21 21G<351.5 364.5> 654 29<222 240.5 222 251 414 421.5>
LayerCount: 2
Fore
SplineSet
853 673 m 0
 853 656 845 655 835 654 c 0
 780 648 756 619 727 571 c 2
 381 -5 l 2
 373 -18 371 -21 358 -21 c 0
 345 -21 343 -17 341 1 c 2
 281 618 l 2
 278 647 275 654 227 654 c 0
 217 654 208 654 208 664 c 0
 208 683 219 683 225 683 c 0
 256 683 290 681 322 681 c 0
 356 681 391 683 424 683 c 0
 429 683 438 683 438 672 c 0
 438 654 429 654 414 654 c 0
 353 653 355 626 357 608 c 2
 409 88 l 1
 709 591 l 2
 712 596 720 610 720 622 c 0
 720 651 689 653 683 654 c 0
 678 654 670 655 670 664 c 0
 670 683 681 683 687 683 c 0
 713 683 742 681 769 681 c 0
 792 681 819 683 841 683 c 1
 841 683 853 683 853 673 c 0
EndSplineSet
Position2: "'cpsp' Capital Spacing lookup 0 subtable" dx=7 dy=0 dh=14 dv=0
EndChar

StartChar: v
Encoding: 118 118 112
Width: 450
Flags: MW
HStem: -10 21G<251 355> 421 20G<177 212>
VStem: 154 57<74 122> 229 52<379.5 383 353 404> 402 82<394.5 402.5 364 410.5>
LayerCount: 2
Fore
SplineSet
484 377 m 0
 484 351 438 -10 272 -10 c 0
 230 -10 154 6 154 108 c 0
 154 136 158 172 198 283 c 0
 219 341 229 367 229 392 c 0
 229 416 218 421 206 421 c 0
 148 421 122 326 114 296 c 0
 110 282 109 279 97 279 c 0
 92 279 83 279 83 288 c 0
 83 294 117 441 208 441 c 0
 257 441 281 403 281 363 c 0
 281 343 276 330 268 306 c 0
 245 245 211 152 211 94 c 0
 211 54 225 10 276 10 c 0
 393 10 439 269 439 295 c 0
 439 311 436 348 413 375 c 0
 404 385 402 390 402 399 c 0
 402 422 427 441 446 441 c 0
 464 441 484 428 484 377 c 0
EndSplineSet
EndChar

StartChar: W
Encoding: 87 87 113
Width: 977
Flags: MW
HStem: -21 21G<306.5 320.5 645.5 656.5> 654 29<221.5 224 221.5 249 412 417 560.5 563 752 756.5>
LayerCount: 2
Fore
SplineSet
1103 673 m 0
 1103 656 1094 655 1087 654 c 0
 1065 652 1028 648 988 574 c 2
 676 -5 l 2
 667 -21 660 -21 653 -21 c 0
 638 -21 638 -18 637 1 c 2
 616 510 l 1
 337 -3 l 2
 329 -18 327 -21 314 -21 c 0
 299 -21 299 -17 298 1 c 2
 272 622 l 2
 271 646 271 654 227 654 c 0
 214 654 207 654 207 665 c 0
 207 683 219 683 224 683 c 2
 224 683 251 681 318 681 c 0
 351 681 386 683 418 683 c 0
 423 683 432 683 432 672 c 0
 432 654 422 654 412 654 c 0
 346 653 347 629 348 607 c 2
 368 107 l 1
 608 549 l 2
 609 551 613 559 613 562 c 2
 611 630 l 2
 609 647 604 654 567 654 c 0
 554 654 546 654 546 664 c 0
 546 683 557 683 563 683 c 2
 563 683 587 681 656 681 c 0
 689 681 724 683 757 683 c 0
 761 683 771 683 771 673 c 0
 771 654 761 654 752 654 c 0
 684 653 685 628 686 608 c 2
 707 107 l 1
 966 587 l 2
 970 595 976 605 976 617 c 0
 976 650 936 653 928 654 c 0
 922 654 915 655 915 665 c 0
 915 683 927 683 933 683 c 0
 961 683 991 681 1019 681 c 0
 1082 681 1089 683 1092 683 c 0
 1098 683 1103 680 1103 673 c 0
EndSplineSet
Position2: "'cpsp' Capital Spacing lookup 0 subtable" dx=7 dy=0 dh=14 dv=0
EndChar

StartChar: w
Encoding: 119 119 114
Width: 650
Flags: MW
HStem: -10 21G<253.5 292 471.5 523> 421 20G<177 212>
VStem: 154 58<80 119 80 128> 229 52<379.5 383 353 404> 366 57<101 108 74 112> 602 82<394.5 402.5 347 410.5>
LayerCount: 2
Fore
SplineSet
627 129 m 0
 600 57 561 -10 485 -10 c 0
 458 -10 397 -4 375 56 c 1
 339 -4 305 -10 279 -10 c 0
 228 -10 154 12 154 110 c 0
 154 146 165 193 198 283 c 0
 219 341 229 367 229 392 c 0
 229 416 218 421 206 421 c 0
 148 421 122 326 114 296 c 0
 110 282 109 279 97 279 c 0
 92 279 83 279 83 288 c 0
 83 294 117 441 208 441 c 0
 257 441 281 403 281 363 c 0
 281 343 277 333 262 292 c 0
 229 200 212 141 212 97 c 0
 212 63 223 10 281 10 c 0
 335 10 366 94 366 108 c 0
 366 116 367 140 374 170 c 2
 429 392 l 2
 433 406 440 431 468 431 c 0
 481 431 493 422 493 407 c 0
 493 402 482 358 476 333 c 2
 443 201 l 2
 430 149 423 122 423 94 c 0
 423 54 437 10 488 10 c 0
 539 10 571 58 592 112 c 0
 607 149 639 256 639 295 c 0
 639 311 636 348 613 375 c 0
 604 385 602 390 602 399 c 0
 602 422 627 441 646 441 c 0
 664 441 684 428 684 377 c 0
 684 317 642 170 627 129 c 0
EndSplineSet
EndChar

StartChar: X
Encoding: 88 88 115
Width: 727
Flags: MW
HStem: 0 29<220.5 243 652 671> 654 29<239.5 257.5 238.5 273>
LayerCount: 2
Fore
SplineSet
685 19 m 0
 685 0 674 0 668 0 c 0
 636 0 601 2 569 2 c 0
 535 2 499 0 466 0 c 0
 462 0 452 0 452 10 c 0
 452 19 455 28 465 29 c 0
 509 34 518 54 518 59 c 0
 518 62 516 69 515 71 c 2
 423 316 l 1
 233 99 l 2
 226 91 211 74 211 58 c 0
 211 33 235 30 243 29 c 1
 243 29 253 28 253 19 c 0
 253 0 242 0 235 0 c 0
 206 0 173 2 143 2 c 0
 116 2 86 0 60 0 c 0
 55 0 48 1 48 11 c 0
 48 28 57 28 67 29 c 0
 89 31 144 35 203 102 c 2
 414 342 l 1
 309 623 l 2
 302 642 298 654 248 654 c 0
 231 654 224 654 224 664 c 0
 224 683 235 683 242 683 c 0
 273 683 308 681 340 681 c 0
 374 681 410 683 444 683 c 0
 448 683 458 683 458 673 c 0
 458 656 449 655 441 654 c 0
 419 652 400 644 390 625 c 1
 471 407 l 1
 626 583 l 2
 636 594 648 610 648 626 c 0
 648 638 640 651 619 654 c 0
 612 655 606 655 606 665 c 0
 606 683 618 683 624 683 c 2
 716 681 l 2
 743 681 773 683 799 683 c 0
 802 683 811 682 811 673 c 0
 811 664 808 655 800 654 c 0
 764 652 714 648 648 573 c 2
 481 381 l 1
 601 59 l 2
 608 39 612 29 666 29 c 0
 676 29 685 29 685 19 c 0
EndSplineSet
Position2: "'cpsp' Capital Spacing lookup 0 subtable" dx=7 dy=0 dh=14 dv=0
EndChar

StartChar: x
Encoding: 120 120 116
Width: 450
Flags: MW
HStem: -10 21G<115 155.5 294 373> 25 72 334 75 421 20G<208 242.5 396 422.5>
VStem: 51 77<28 77.5> 429 76<365 373>
LayerCount: 2
Fore
SplineSet
473 143 m 0
 473 123 422 -10 324 -10 c 0
 264 -10 238 35 230 59 c 1
 208 17 176 -10 135 -10 c 0
 95 -10 51 8 51 48 c 0
 51 75 71 97 97 97 c 0
 114 97 128 87 128 68 c 0
 128 56 121 32 92 24 c 1
 110 10 132 10 137 10 c 0
 182 10 207 64 218 98 c 2
 259 263 l 2
 267 294 277 334 277 357 c 0
 277 405 254 421 231 421 c 0
 185 421 137 373 114 297 c 0
 109 281 108 279 97 279 c 0
 92 279 83 279 83 288 c 0
 83 308 133 441 233 441 c 0
 283 441 314 406 325 373 c 1
 340 400 371 441 421 441 c 0
 450 441 505 430 505 383 c 0
 505 347 478 334 460 334 c 0
 445 334 429 342 429 363 c 0
 429 383 442 401 464 407 c 1
 446 421 425 421 420 421 c 0
 360 421 340 344 321 267 c 2
 298 176 l 2
 286 127 278 95 278 74 c 0
 278 56 284 10 326 10 c 0
 375 10 422 65 443 133 c 0
 448 150 448 152 460 152 c 0
 464 152 473 152 473 143 c 0
EndSplineSet
EndChar

StartChar: Y
Encoding: 89 89 117
Width: 727
Flags: MW
HStem: 0 29<257.5 264 257.5 273 454.5 475> 654 29<215.5 234.5 215.5 242.5 411 420.5>
LayerCount: 2
Fore
SplineSet
860 673 m 0
 860 656 852 655 842 654 c 0
 797 650 764 634 713 572 c 2
 475 282 l 2
 467 273 467 271 462 254 c 0
 440 166 453 216 431 129 c 0
 424 101 412 54 412 46 c 0
 412 36 412 29 467 29 c 0
 483 29 491 29 491 19 c 0
 491 0 480 0 472 0 c 0
 437 0 399 2 363 2 c 0
 328 2 290 0 256 0 c 0
 252 0 242 0 242 10 c 0
 242 29 251 29 264 29 c 0
 326 30 334 34 343 64 c 0
 344 68 395 268 395 273 c 0
 395 277 392 284 391 288 c 2
 284 623 l 2
 276 648 265 654 220 654 c 0
 210 654 201 654 201 664 c 0
 201 683 212 683 219 683 c 0
 250 683 285 681 317 681 c 0
 351 681 387 683 421 683 c 0
 427 683 436 683 436 672 c 0
 436 654 425 654 416 654 c 0
 406 654 365 653 365 630 c 1
 365 630 367 620 368 618 c 2
 466 310 l 1
 691 585 l 2
 702 598 716 615 716 632 c 0
 716 650 698 653 687 654 c 0
 684 654 676 655 676 664 c 0
 676 683 687 683 693 683 c 0
 719 683 748 681 775 681 c 0
 799 681 825 683 848 683 c 1
 848 683 860 683 860 673 c 0
EndSplineSet
Position2: "'cpsp' Capital Spacing lookup 0 subtable" dx=7 dy=0 dh=14 dv=0
EndChar

StartChar: y
Encoding: 121 121 118
Width: 475
Flags: MW
HStem: -204 20<176.5 207.5 176.5 241> -133 73 -10 20<241.5 282.5> 421 20<177 212>
VStem: 153 57<71.5 118 71.5 123.5> 177 52 229 52<379.5 383 353 404>
LayerCount: 2
Fore
SplineSet
404 -3 m 2xba
 380 -98 293 -204 189 -204 c 0
 138 -204 99 -171 99 -120 c 0
 99 -62 139 -60 146 -60 c 0
 166 -60 177 -74 177 -89 c 1xc4
 177 -89 176 -132 128 -134 c 1
 135 -171 163 -184 190 -184 c 0
 225 -184 261 -163 293 -118 c 0
 328 -67 340 -16 350 28 c 1
 334 12 304 -10 261 -10 c 0
 212 -10 153 14 153 104 c 0
 153 143 166 194 198 283 c 0
 219 341 229 367 229 392 c 0
 229 416 218 421 206 421 c 0
 148 421 122 326 114 296 c 0
 110 282 109 279 97 279 c 0
 92 279 83 279 83 288 c 0
 83 294 117 441 208 441 c 0
 257 441 281 403 281 363 c 0
 281 343 276 330 268 307 c 0
 245 243 210 148 210 88 c 0
 210 55 219 10 264 10 c 0
 320 10 360 66 368 97 c 2
 441 392 l 2
 445 406 452 431 480 431 c 0
 493 431 505 422 505 407 c 0
 505 403 505 401 501 387 c 2
 404 -3 l 2xba
EndSplineSet
EndChar

StartChar: Z
Encoding: 90 90 119
Width: 600
Flags: MW
HStem: 0 31<167 316 316 397.5> 654 29<389.5 463 463 604>
LayerCount: 2
Fore
SplineSet
589 241 m 2
 520 18 l 2
 514 1 513 0 493 0 c 2
 100 0 l 2
 84 0 78 0 78 8 c 2
 78 8 78 20 89 34 c 2
 604 654 l 1
 463 654 l 2
 316 654 269 581 237 480 c 0
 231 462 231 460 219 460 c 0
 216 460 206 460 206 470 c 2
 206 470 207 476 209 483 c 2
 264 666 l 2
 269 682 270 683 291 683 c 2
 670 683 l 2
 686 683 692 683 692 675 c 0
 692 665 688 660 682 653 c 2
 167 31 l 1
 316 31 l 2
 479 31 520 114 556 230 c 0
 560 240 565 259 568 261 c 0
 571 264 574 264 579 264 c 0
 582 264 592 264 592 254 c 2
 592 254 592 251 589 241 c 2
EndSplineSet
Position2: "'cpsp' Capital Spacing lookup 0 subtable" dx=7 dy=0 dh=14 dv=0
EndChar

StartChar: z
Encoding: 122 122 120
Width: 400
Flags: MW
HStem: -10 60<276.5 299 276.5 322> 65 20<168.5 173> 346 20<357 367> 381 60<232.5 257>
LayerCount: 2
Fore
SplineSet
423 140 m 0
 423 117 369 -10 275 -10 c 0
 244 -10 230 8 213 33 c 0
 191 65 178 65 168 65 c 0
 134 65 107 27 92 3 c 0
 85 -9 85 -10 75 -10 c 0
 70 -10 61 -10 61 -2 c 0
 61 6 106 80 174 148 c 2
 316 290 l 2
 326 300 341 315 367 346 c 1
 347 346 337 346 298 366 c 0
 284 372 267 381 247 381 c 0
 218 381 184 362 173 332 c 0
 169 322 168 320 157 320 c 0
 153 320 144 320 144 329 c 0
 144 348 185 441 257 441 c 0
 289 441 303 421 319 398 c 0
 337 373 347 366 363 366 c 0
 383 366 398 380 425 427 c 0
 432 440 433 441 443 441 c 0
 448 441 456 441 456 433 c 0
 456 415 370 299 275 214 c 0
 230 174 188 129 149 83 c 1
 156 85 167 85 170 85 c 0
 182 85 194 85 226 69 c 0
 253 56 268 50 285 50 c 0
 313 50 370 70 394 138 c 0
 397 147 398 150 409 150 c 0
 417 150 423 148 423 140 c 0
EndSplineSet
EndChar

StartChar: zero
Encoding: 48 48 121
Width: 500
Flags: MW
HStem: -21 21G<188.5 285.5> 645 20G<393 423.5>
VStem: 116 59<115.5 136.5 66 181> 486 57<501.5 511 449.5 589.5>
LayerCount: 2
Fore
SplineSet
463 160 m 0
 404 36 326 -21 245 -21 c 0
 132 -21 116 86 116 145 c 0
 116 217 179 665 416 665 c 0
 543 665 543 525 543 497 c 0
 543 402 495 230 463 160 c 0
404 177 m 0
 410 196 486 455 486 548 c 0
 486 631 437 645 410 645 c 0
 376 645 328 622 292 560 c 0
 249 484 175 176 175 97 c 0
 175 35 206 -1 249 -1 c 0
 345 -1 389 134 404 177 c 0
EndSplineSet
Substitution2: "'zero' Slashed Zero lookup 14 subtable" zero.slash
Substitution2: "'pnum' Proportional Numbers lookup 6 subtable" zero.prop
Substitution2: "'onum' Oldstyle Figures lookup 4 subtable" zero.oldstyle
AlternateSubs2: "'aalt' Access All Alternates lookup 1 subtable" zero.oldstyle zero.prop zero.slash
EndChar

StartChar: f_f
Encoding: 64256 64256 122
Width: 600
Flags: MW
HStem: -204 21G<30.5 91.5 274.5 332.5> 402 29<144 217 154 211 277 501 567 640> 591 72 684 20G<398 423 650 662>
VStem: -27 77<-161.5 -110.5> 203 77<-131 -126.5> 444 77<626.5 629> 669 77<626.5 627>
LayerCount: 2
Fore
SplineSet
746 641 m 0
 746 612 725 591 700 591 c 0
 683 591 669 601 669 620 c 0
 669 634 678 658 708 665 c 1
 691 684 664 684 660 684 c 0
 640 684 618 665 609 632 c 0
 595 579 577 477 567 431 c 1
 643 431 l 2
 660 431 667 431 667 420 c 0
 667 402 657 402 640 402 c 2
 562 402 l 1
 502 93 l 2
 501 88 474 -53 438 -113 c 0
 421 -142 368 -204 297 -204 c 0
 252 -204 203 -185 203 -141 c 0
 203 -112 224 -91 249 -91 c 0
 266 -91 280 -101 280 -120 c 0
 280 -142 264 -160 242 -166 c 1
 256 -178 279 -184 298 -184 c 0
 352 -184 389 -115 389 -115 c 1
 406 -76 425 11 434 59 c 2
 501 402 l 1
 272 402 l 1
 210 83 l 2
 179 -78 132 -204 51 -204 c 0
 10 -204 -27 -181 -27 -142 c 0
 -27 -109 -4 -91 19 -91 c 0
 36 -91 50 -101 50 -120 c 0
 50 -128 46 -158 9 -165 c 1
 22 -183 47 -184 51 -184 c 0
 87 -184 99 -137 110 -95 c 0
 126 -34 128 -25 140 35 c 2
 211 402 l 1
 152 402 l 2
 136 402 128 402 128 412 c 0
 128 431 137 431 154 431 c 2
 217 431 l 1
 237 534 l 2
 251 607 284 704 416 704 c 0
 477 704 521 682 521 641 c 0
 521 612 500 591 475 591 c 0
 458 591 444 601 444 620 c 0
 444 638 456 659 482 665 c 1
 461 682 430 684 416 684 c 0
 380 684 357 668 346 660 c 0
 334 650 327 644 316 611 c 0
 301 562 288 482 277 431 c 1
 507 431 l 1
 529 543 l 2
 536 579 561 704 660 704 c 0
 703 704 746 683 746 641 c 0
EndSplineSet
Ligature2: "'liga' Standard Ligatures lookup 8 subtable" f f
EndChar

StartChar: f_f_i
Encoding: 64259 64259 123
Width: 863
Flags: MW
HStem: -204 20<48 69.5 48 94.5 300 320> -10 20<776 801 776 804.5> 402 29<144 217 154 211 278 511 578 782> 581 81 684 20<416.5 433.5 703.5 764.5>
VStem: -27 77<-161.5 -110.5> 50 78 203 77<-164.5 -110.5> 469 77<626.5 631.5> 705 55<51.5 59 40.5 80> 821 78<616 616.5>
LayerCount: 2
Fore
SplineSet
886 143 m 0xfae0
 886 140 874 83 857 48 c 0
 844 19 824 -10 785 -10 c 0
 739 -10 705 25 705 78 c 0
 705 82 705 94 710 114 c 2
 782 402 l 1
 572 402 l 1
 503 51 l 2
 496 16 486 -18 475 -51 c 0
 429 -185 338 -204 302 -204 c 0
 258 -204 203 -188 203 -141 c 0
 203 -112 224 -91 249 -91 c 0
 266 -91 280 -101 280 -120 c 0
 280 -123 280 -156 242 -164 c 1
 263 -184 297 -184 303 -184 c 0
 355 -184 393 -124 397 -117 c 0
 419 -73 434 3 444 56 c 2
 511 402 l 1
 272 402 l 1
 210 82 l 2
 182 -60 138 -204 51 -204 c 0
 11 -204 -27 -181 -27 -142 c 0xe540
 -27 -109 -4 -91 19 -91 c 0
 36 -91 50 -101 50 -120 c 0
 50 -128 46 -158 9 -165 c 1
 21 -181 44 -184 52 -184 c 0
 87 -184 100 -134 110 -98 c 0
 122 -50 133 -2 142 47 c 2
 211 402 l 1
 152 402 l 2
 136 402 128 402 128 412 c 0
 128 431 137 431 154 431 c 2
 217 431 l 1
 239 541 l 2
 255 610 284 704 429 704 c 0
 478 704 546 693 546 641 c 0
 546 612 525 591 500 591 c 0
 483 591 469 601 469 620 c 0
 469 643 486 660 506 665 c 1
 480 684 437 684 430 684 c 0
 403 684 343 678 321 622 c 0
 307 585 292 509 278 431 c 1
 517 431 l 1
 536 528 l 2
 566 679 653 704 754 704 c 0
 783 704 899 704 899 634 c 0
 899 598 874 581 853 581 c 0
 830 581 821 597 821 610 c 0
 821 623 831 650 862 655 c 1
 836 684 773 684 756 684 c 0
 623 684 613 629 578 431 c 1
 825 431 l 2
 841 431 847 431 847 422 c 2
 768 103 l 2
 764 86 760 68 760 50 c 0
 760 31 765 10 787 10 c 0
 815 10 834 45 854 128 c 0
 860 151 861 152 873 152 c 0
 877 152 886 152 886 143 c 0xfae0
EndSplineSet
Ligature2: "'liga' Standard Ligatures in Latin lookup 12 subtable" f_f i
Ligature2: "'liga' Standard Ligatures in Latin lookup 11 subtable" f_f i
Ligature2: "'liga' Standard Ligatures lookup 9 subtable" f_f i
EndChar

StartChar: f_f_l
Encoding: 64260 64260 124
Width: 875
Flags: MW
HStem: -204 20<49 69 49 91.5 299.5 328> -166 75 -10 20<788 813 788 816.5> 402 29<144 217 154 211 277 511 577 794> 591 20 684 20<398 423 683 738>
VStem: -27 77<-161.5 -110.5> 203 77<-163.5 -110.5> 444 77<626.5 629> 717 55<51.5 57.5 40.5 80>
LayerCount: 2
Fore
SplineSet
898 143 m 0
 898 140 886 83 869 48 c 0
 856 19 836 -10 797 -10 c 0
 751 -10 717 25 717 78 c 0
 717 82 717 94 722 114 c 2
 794 402 l 1
 572 402 l 1
 512 93 l 2
 509 80 480 -70 439 -125 c 0
 407 -167 357 -204 302 -204 c 0
 255 -204 203 -186 203 -141 c 0
 203 -112 224 -91 249 -91 c 0
 266 -91 280 -101 280 -120 c 0
 280 -123 280 -156 242 -164 c 1
 263 -184 297 -184 302 -184 c 0
 354 -184 393 -128 402 -104 c 0
 422 -54 433 2 445 62 c 2
 511 402 l 1
 272 402 l 1
 210 83 l 2
 179 -78 132 -204 51 -204 c 0
 10 -204 -27 -181 -27 -142 c 0
 -27 -109 -4 -91 19 -91 c 0
 36 -91 50 -101 50 -120 c 0
 50 -128 46 -158 9 -165 c 1
 22 -183 47 -184 51 -184 c 0
 87 -184 99 -137 110 -95 c 0
 126 -34 128 -25 140 35 c 2
 211 402 l 1
 152 402 l 2
 136 402 128 402 128 412 c 0
 128 431 137 431 154 431 c 2
 217 431 l 1
 237 534 l 2
 251 607 284 704 416 704 c 0
 477 704 521 682 521 641 c 0
 521 612 500 591 475 591 c 0
 458 591 444 601 444 620 c 0
 444 638 456 659 482 665 c 1
 461 682 430 684 416 684 c 0
 380 684 357 668 346 660 c 0
 334 650 327 644 316 611 c 0
 301 562 288 482 277 431 c 1
 517 431 l 1
 537 534 l 2
 559 645 612 704 733 704 c 0
 830 704 851 672 853 643 c 1
 854 643 l 1
 862 675 l 2
 867 693 868 694 888 694 c 2
 903 694 l 2
 918 694 925 694 925 685 c 2
 923 672 l 1
 780 103 l 2
 776 88 772 65 772 50 c 0
 772 31 777 10 799 10 c 0
 827 10 846 45 866 128 c 0
 872 151 873 152 885 152 c 0
 889 152 898 152 898 143 c 0
801 431 m 1
 846 611 l 1
 845 611 l 1
 843 607 828 591 807 591 c 0
 790 591 776 601 776 620 c 0
 776 643 793 660 813 665 c 1
 786 684 743 684 733 684 c 0
 633 684 619 624 606 571 c 0
 595 527 587 475 577 431 c 1
 801 431 l 1
EndSplineSet
Ligature2: "'liga' Standard Ligatures lookup 8 subtable" f f l
EndChar

StartChar: f_i
Encoding: 64257 64257 125
Width: 550
Flags: MW
HStem: -204 20<49 69 49 91.5> -166 75 -10 20<463 488 463 491.5> 402 29<144 217 154 211 277 469> 581 73 684 20<391 456.5>
VStem: -27 77<-161.5 -110.5> 50 78 392 55<51.5 59 40.5 80> 508 78<603.5 668.5>
LayerCount: 2
Fore
SplineSet
573 143 m 0xfdc0
 573 140 561 83 544 48 c 0
 531 19 511 -10 472 -10 c 0
 426 -10 392 25 392 78 c 0
 392 82 392 94 397 114 c 2
 469 402 l 1
 272 402 l 1
 210 83 l 2
 179 -78 132 -204 51 -204 c 0
 10 -204 -27 -181 -27 -142 c 0xb280
 -27 -109 -4 -91 19 -91 c 0
 36 -91 50 -101 50 -120 c 0
 50 -128 46 -158 9 -165 c 1
 22 -183 47 -184 51 -184 c 0
 87 -184 99 -136 107 -105 c 0
 113 -83 126 -34 138 29 c 2
 211 402 l 1
 152 402 l 2
 136 402 128 402 128 412 c 0
 128 431 137 431 154 431 c 2
 217 431 l 1
 236 529 l 2
 263 664 334 704 448 704 c 0
 472 704 586 704 586 633 c 0
 586 600 563 581 540 581 c 0
 517 581 508 597 508 610 c 0
 508 623 518 650 549 655 c 1
 524 684 464 684 449 684 c 0
 328 684 315 621 295 524 c 0
 286 479 285 468 277 431 c 1
 512 431 l 2
 528 431 534 431 534 422 c 2
 455 103 l 2
 451 86 447 68 447 50 c 0
 447 31 452 10 474 10 c 0
 502 10 521 45 541 128 c 0
 547 151 548 152 560 152 c 0
 564 152 573 152 573 143 c 0xfdc0
EndSplineSet
Ligature2: "'liga' Standard Ligatures in Latin lookup 12 subtable" f i
Ligature2: "'liga' Standard Ligatures in Latin lookup 11 subtable" f i
Ligature2: "'liga' Standard Ligatures lookup 9 subtable" f i
EndChar

StartChar: f_l
Encoding: 64258 64258 126
Width: 575
Flags: MW
HStem: -204 20<49 69 49 91.5> -166 75 -10 20<488 513 488 516.5> 402 29<144 217 154 211 277 494> 591 20 684 20<383 438>
VStem: -27 77<-161.5 -110.5> 417 55<51.5 57.5 40.5 80>
LayerCount: 2
Fore
SplineSet
598 143 m 0
 598 140 586 83 569 48 c 0
 556 19 536 -10 497 -10 c 0
 451 -10 417 25 417 78 c 0
 417 82 417 94 422 114 c 2
 494 402 l 1
 272 402 l 1
 210 83 l 2
 179 -78 132 -204 51 -204 c 0
 10 -204 -27 -181 -27 -142 c 0
 -27 -109 -4 -91 19 -91 c 0
 36 -91 50 -101 50 -120 c 0
 50 -128 46 -158 9 -165 c 1
 22 -183 47 -184 51 -184 c 0
 87 -184 99 -136 107 -105 c 0
 113 -83 126 -34 138 29 c 2
 211 402 l 1
 152 402 l 2
 136 402 128 402 128 412 c 0
 128 431 137 431 154 431 c 2
 217 431 l 1
 237 534 l 2
 259 645 312 704 433 704 c 0
 530 704 551 672 553 643 c 1
 554 643 l 1
 562 675 l 2
 567 693 568 694 588 694 c 2
 603 694 l 2
 618 694 625 694 625 685 c 2
 623 672 l 1
 480 103 l 2
 476 88 472 65 472 50 c 0
 472 31 477 10 499 10 c 0
 527 10 546 45 566 128 c 0
 572 151 573 152 585 152 c 0
 589 152 598 152 598 143 c 0
501 431 m 1
 546 611 l 1
 545 611 l 1
 543 607 528 591 507 591 c 0
 490 591 476 601 476 620 c 0
 476 643 493 660 513 665 c 1
 486 684 443 684 433 684 c 0
 333 684 319 624 306 571 c 0
 295 527 287 475 277 431 c 1
 501 431 l 1
EndSplineSet
Ligature2: "'liga' Standard Ligatures lookup 8 subtable" f l
EndChar

StartChar: Aacute
Encoding: 193 193 127
Width: 727
Flags: MW
HStem: 0 29<213 233 459 466 643 662> 234 29<299 512 299 514 282 512> 694 20G<534 548> 744 21G 881 20G<683.5 699>
LayerCount: 2
Fore
SplineSet
677 18 m 0
 677 0 665 0 659 0 c 0
 627 0 593 2 560 2 c 0
 526 2 490 0 457 0 c 0
 453 0 443 0 443 10 c 0
 443 29 452 29 466 29 c 0
 528 30 526 57 525 73 c 2
 514 234 l 1
 282 234 l 1
 209 105 l 2
 200 89 192 76 192 62 c 0
 192 43 206 31 230 29 c 0
 236 29 244 28 244 19 c 0
 244 0 233 0 226 0 c 0
 200 0 171 2 144 2 c 0
 119 2 92 0 68 0 c 1
 68 0 56 0 56 10 c 0
 56 27 64 28 75 29 c 0
 125 34 153 57 184 112 c 2
 517 696 l 2
 524 708 527 714 541 714 c 0
 555 714 556 711 557 690 c 2
 601 62 l 2
 603 36 608 29 657 29 c 0
 670 29 677 29 677 18 c 0
512 263 m 1
 489 596 l 1
 299 263 l 1
 512 263 l 1
716 870 m 0x18
 714 855 699 847 691 844 c 2
 512 747 l 2
 508 745 502 743 498 744 c 0
 493 745 485 753 487 761 c 0
 487 764 488 766 498 772 c 2
 664 892 l 1
 664 892 677 901 690 901 c 0
 708 901 719 888 716 870 c 0x18
EndSplineSet
Position2: "'cpsp' Capital Spacing lookup 0 subtable" dx=7 dy=0 dh=14 dv=0
EndChar

StartChar: aacute
Encoding: 225 225 128
Width: 500
Flags: MW
HStem: -10 21G<179 233.5 400.5 431.5> 421 20G<300.5 335.5 267.5 352> 507 21G<335.5 340> 676 20G<497 511.5>
VStem: 98 62<97.5 125 94 215>
LayerCount: 2
Fore
SplineSet
513 143 m 0
 513 140 501 83 484 48 c 0
 471 19 451 -10 412 -10 c 0
 389 -10 344 0 333 61 c 1
 295 16 254 -10 213 -10 c 0
 145 -10 98 53 98 142 c 0
 98 288 213 441 322 441 c 0
 349 441 383 429 402 382 c 1
 403 383 l 1
 403 383 410 422 442 422 c 0
 460 422 468 409 468 398 c 2
 468 398 468 393 465 382 c 2
 395 103 l 2
 391 88 387 65 387 50 c 0
 387 31 392 10 414 10 c 0
 442 10 461 45 481 128 c 0
 487 151 488 152 500 152 c 0
 504 152 513 152 513 143 c 0
339 121 m 2
 386 311 l 1
 389 325 l 2
 389 332 382 421 322 421 c 0
 279 421 234 370 208 308 c 0
 192 268 160 150 160 100 c 0
 160 88 162 10 215 10 c 0
 273 10 333 95 339 121 c 2
531 669 m 0x30
 531 654 518 644 511 639 c 2
 351 513 l 2
 348 510 342 507 338 507 c 0
 333 507 324 514 324 522 c 0
 324 525 324 527 333 535 c 2
 476 682 l 1
 476 682 490 696 504 696 c 0
 519 696 531 684 531 669 c 0x30
EndSplineSet
EndChar

StartChar: Abreve
Encoding: 258 258 129
Width: 727
Flags: MW
HStem: 0 29<213 233 459 466 643 662> 234 29<299 512 299 514 282 512> 694 20G<534 548> 744 33<528 580 528 607> 894 20G<457 468 710.5 717>
LayerCount: 2
Fore
SplineSet
677 18 m 0
 677 0 665 0 659 0 c 0
 627 0 593 2 560 2 c 0
 526 2 490 0 457 0 c 0
 453 0 443 0 443 10 c 0
 443 29 452 29 466 29 c 0
 528 30 526 57 525 73 c 2
 514 234 l 1
 282 234 l 1
 209 105 l 2
 200 89 192 76 192 62 c 0
 192 43 206 31 230 29 c 0
 236 29 244 28 244 19 c 0
 244 0 233 0 226 0 c 0
 200 0 171 2 144 2 c 0
 119 2 92 0 68 0 c 1
 68 0 56 0 56 10 c 0
 56 27 64 28 75 29 c 0
 125 34 153 57 184 112 c 2
 517 696 l 2
 524 708 527 714 541 714 c 0
 555 714 556 711 557 690 c 2
 601 62 l 2
 603 36 608 29 657 29 c 0
 670 29 677 29 677 18 c 0
512 263 m 1
 489 596 l 1
 299 263 l 1
 512 263 l 1
724 905 m 0x18
 724 877 662 744 552 744 c 0
 480 744 449 804 449 861 c 0
 449 869 449 914 465 914 c 0
 471 914 475 910 475 905 c 0
 475 902 470 881 470 869 c 0
 470 818 501 777 555 777 c 0
 605 777 673 815 702 900 c 0
 705 910 707 914 714 914 c 0
 720 914 724 910 724 905 c 0x18
EndSplineSet
Position2: "'cpsp' Capital Spacing lookup 0 subtable" dx=7 dy=0 dh=14 dv=0
EndChar

StartChar: abreve
Encoding: 259 259 130
Width: 500
Flags: MW
HStem: -10 21G<179 233.5 400.5 431.5> 421 20G<300.5 335.5 267.5 352> 517 33<358 410 358 437> 667 20G<287 298 540.5 547>
VStem: 98 62<97.5 125 94 215>
LayerCount: 2
Fore
SplineSet
513 143 m 0
 513 140 501 83 484 48 c 0
 471 19 451 -10 412 -10 c 0
 389 -10 344 0 333 61 c 1
 295 16 254 -10 213 -10 c 0
 145 -10 98 53 98 142 c 0
 98 288 213 441 322 441 c 0
 349 441 383 429 402 382 c 1
 403 383 l 1
 403 383 410 422 442 422 c 0
 460 422 468 409 468 398 c 2
 468 398 468 393 465 382 c 2
 395 103 l 2
 391 88 387 65 387 50 c 0
 387 31 392 10 414 10 c 0
 442 10 461 45 481 128 c 0
 487 151 488 152 500 152 c 0
 504 152 513 152 513 143 c 0
339 121 m 2
 386 311 l 1
 389 325 l 2
 389 332 382 421 322 421 c 0
 279 421 234 370 208 308 c 0
 192 268 160 150 160 100 c 0
 160 88 162 10 215 10 c 0
 273 10 333 95 339 121 c 2
554 678 m 0x30
 554 650 492 517 382 517 c 0
 310 517 279 577 279 634 c 0
 279 642 279 687 295 687 c 0
 301 687 305 683 305 678 c 0
 305 675 300 654 300 642 c 0
 300 591 331 550 385 550 c 0
 435 550 503 588 532 673 c 0
 535 683 537 687 544 687 c 0
 550 687 554 683 554 678 c 0x30
EndSplineSet
EndChar

StartChar: Abreveacute
Encoding: 7854 7854 131
Width: 727
Flags: MW
HStem: 0 29<213 233 459 466 643 662> 234 29<299 512 299 514 282 512> 694 20G<534 548> 744 33<528 580 528 607> 1071 20G<696.5 712>
LayerCount: 2
Fore
SplineSet
677 18 m 0
 677 0 665 0 659 0 c 0
 627 0 593 2 560 2 c 0
 526 2 490 0 457 0 c 0
 453 0 443 0 443 10 c 0
 443 29 452 29 466 29 c 0
 528 30 526 57 525 73 c 2
 514 234 l 1
 282 234 l 1
 209 105 l 2
 200 89 192 76 192 62 c 0
 192 43 206 31 230 29 c 0
 236 29 244 28 244 19 c 0
 244 0 233 0 226 0 c 0
 200 0 171 2 144 2 c 0
 119 2 92 0 68 0 c 1
 68 0 56 0 56 10 c 0
 56 27 64 28 75 29 c 0
 125 34 153 57 184 112 c 2
 517 696 l 2
 524 708 527 714 541 714 c 0
 555 714 556 711 557 690 c 2
 601 62 l 2
 603 36 608 29 657 29 c 0
 670 29 677 29 677 18 c 0
512 263 m 1
 489 596 l 1
 299 263 l 1
 512 263 l 1
724 905 m 0x18
 724 877 662 744 552 744 c 0
 480 744 449 804 449 861 c 0
 449 869 449 914 465 914 c 0
 471 914 475 910 475 905 c 0
 475 902 470 881 470 869 c 0
 470 818 501 777 555 777 c 0
 605 777 673 815 702 900 c 0
 705 910 707 914 714 914 c 0
 720 914 724 910 724 905 c 0x18
729 1060 m 0
 727 1045 712 1037 704 1034 c 2
 525 937 l 2
 521 935 515 933 511 934 c 0
 506 935 498 943 500 951 c 0
 500 954 501 956 511 962 c 2
 677 1082 l 1
 677 1082 690 1091 703 1091 c 0
 721 1091 732 1078 729 1060 c 0
EndSplineSet
Position2: "'cpsp' Capital Spacing lookup 0 subtable" dx=7 dy=0 dh=14 dv=0
EndChar

StartChar: abreveacute
Encoding: 7855 7855 132
Width: 500
Flags: MW
HStem: -10 21G<179 233.5 400.5 431.5> 421 20G<300.5 335.5 267.5 352> 517 33<358 410 358 437> 844 20G<526.5 542>
VStem: 98 62<97.5 125 94 215>
LayerCount: 2
Fore
SplineSet
513 143 m 0
 513 140 501 83 484 48 c 0
 471 19 451 -10 412 -10 c 0
 389 -10 344 0 333 61 c 1
 295 16 254 -10 213 -10 c 0
 145 -10 98 53 98 142 c 0
 98 288 213 441 322 441 c 0
 349 441 383 429 402 382 c 1
 403 383 l 1
 403 383 410 422 442 422 c 0
 460 422 468 409 468 398 c 2
 468 398 468 393 465 382 c 2
 395 103 l 2
 391 88 387 65 387 50 c 0
 387 31 392 10 414 10 c 0
 442 10 461 45 481 128 c 0
 487 151 488 152 500 152 c 0
 504 152 513 152 513 143 c 0
339 121 m 2
 386 311 l 1
 389 325 l 2
 389 332 382 421 322 421 c 0
 279 421 234 370 208 308 c 0
 192 268 160 150 160 100 c 0
 160 88 162 10 215 10 c 0
 273 10 333 95 339 121 c 2
554 678 m 0x30
 554 650 492 517 382 517 c 0
 310 517 279 577 279 634 c 0
 279 642 279 687 295 687 c 0
 301 687 305 683 305 678 c 0
 305 675 300 654 300 642 c 0
 300 591 331 550 385 550 c 0
 435 550 503 588 532 673 c 0
 535 683 537 687 544 687 c 0
 550 687 554 683 554 678 c 0x30
559 833 m 0
 557 818 542 810 534 807 c 2
 355 710 l 2
 351 708 345 706 341 707 c 0
 336 708 328 716 330 724 c 0
 330 727 331 729 341 735 c 2
 507 855 l 1
 507 855 520 864 533 864 c 0
 551 864 562 851 559 833 c 0
EndSplineSet
EndChar

StartChar: Abrevedotbelow
Encoding: 7862 7862 133
Width: 727
Flags: MW
HStem: 0 29<213 233 459 466 643 662> 234 29<299 512 299 514 282 512> 694 20G<534 548> 744 33<528 580 528 607> 894 20G<457 468 710.5 717>
LayerCount: 2
Fore
SplineSet
677 18 m 0
 677 0 665 0 659 0 c 0
 627 0 593 2 560 2 c 0
 526 2 490 0 457 0 c 0
 453 0 443 0 443 10 c 0
 443 29 452 29 466 29 c 0
 528 30 526 57 525 73 c 2
 514 234 l 1
 282 234 l 1
 209 105 l 2
 200 89 192 76 192 62 c 0
 192 43 206 31 230 29 c 0
 236 29 244 28 244 19 c 0
 244 0 233 0 226 0 c 0
 200 0 171 2 144 2 c 0
 119 2 92 0 68 0 c 1
 68 0 56 0 56 10 c 0
 56 27 64 28 75 29 c 0
 125 34 153 57 184 112 c 2
 517 696 l 2
 524 708 527 714 541 714 c 0
 555 714 556 711 557 690 c 2
 601 62 l 2
 603 36 608 29 657 29 c 0
 670 29 677 29 677 18 c 0
512 263 m 1
 489 596 l 1
 299 263 l 1
 512 263 l 1
724 905 m 0
 724 877 662 744 552 744 c 0
 480 744 449 804 449 861 c 0
 449 869 449 914 465 914 c 0
 471 914 475 910 475 905 c 0
 475 902 470 881 470 869 c 0
 470 818 501 777 555 777 c 0
 605 777 673 815 702 900 c 0
 705 910 707 914 714 914 c 0
 720 914 724 910 724 905 c 0
375 -143 m 0
 375 -173 346 -200 316 -200 c 0
 297 -200 276 -187 276 -160 c 0
 276 -131 305 -103 335 -103 c 0
 355 -103 375 -115 375 -143 c 0
EndSplineSet
Position2: "'cpsp' Capital Spacing lookup 0 subtable" dx=7 dy=0 dh=14 dv=0
EndChar

StartChar: abrevedotbelow
Encoding: 7863 7863 134
Width: 500
Flags: MW
HStem: -10 21G<179 233.5 400.5 431.5> 421 20G<300.5 335.5 267.5 352> 517 33<358 410 358 437> 667 20G<287 298 540.5 547>
VStem: 98 62<97.5 125 94 215>
LayerCount: 2
Fore
SplineSet
513 143 m 0
 513 140 501 83 484 48 c 0
 471 19 451 -10 412 -10 c 0
 389 -10 344 0 333 61 c 1
 295 16 254 -10 213 -10 c 0
 145 -10 98 53 98 142 c 0
 98 288 213 441 322 441 c 0
 349 441 383 429 402 382 c 1
 403 383 l 1
 403 383 410 422 442 422 c 0
 460 422 468 409 468 398 c 2
 468 398 468 393 465 382 c 2
 395 103 l 2
 391 88 387 65 387 50 c 0
 387 31 392 10 414 10 c 0
 442 10 461 45 481 128 c 0
 487 151 488 152 500 152 c 0
 504 152 513 152 513 143 c 0
339 121 m 2
 386 311 l 1
 389 325 l 2
 389 332 382 421 322 421 c 0
 279 421 234 370 208 308 c 0
 192 268 160 150 160 100 c 0
 160 88 162 10 215 10 c 0
 273 10 333 95 339 121 c 2
554 678 m 0
 554 650 492 517 382 517 c 0
 310 517 279 577 279 634 c 0
 279 642 279 687 295 687 c 0
 301 687 305 683 305 678 c 0
 305 675 300 654 300 642 c 0
 300 591 331 550 385 550 c 0
 435 550 503 588 532 673 c 0
 535 683 537 687 544 687 c 0
 550 687 554 683 554 678 c 0
262 -143 m 0
 262 -173 233 -200 203 -200 c 0
 184 -200 163 -187 163 -160 c 0
 163 -131 192 -103 222 -103 c 0
 242 -103 262 -115 262 -143 c 0
EndSplineSet
EndChar

StartChar: Abrevegrave
Encoding: 7856 7856 135
Width: 727
Flags: MW
HStem: 0 29<213 233 459 466 643 662> 234 29<299 512 299 514 282 512> 694 20G<534 548> 744 33<528 580 528 607> 894 20G<457 468 710.5 717>
LayerCount: 2
Fore
SplineSet
677 18 m 0
 677 0 665 0 659 0 c 0
 627 0 593 2 560 2 c 0
 526 2 490 0 457 0 c 0
 453 0 443 0 443 10 c 0
 443 29 452 29 466 29 c 0
 528 30 526 57 525 73 c 2
 514 234 l 1
 282 234 l 1
 209 105 l 2
 200 89 192 76 192 62 c 0
 192 43 206 31 230 29 c 0
 236 29 244 28 244 19 c 0
 244 0 233 0 226 0 c 0
 200 0 171 2 144 2 c 0
 119 2 92 0 68 0 c 1
 68 0 56 0 56 10 c 0
 56 27 64 28 75 29 c 0
 125 34 153 57 184 112 c 2
 517 696 l 2
 524 708 527 714 541 714 c 0
 555 714 556 711 557 690 c 2
 601 62 l 2
 603 36 608 29 657 29 c 0
 670 29 677 29 677 18 c 0
512 263 m 1
 489 596 l 1
 299 263 l 1
 512 263 l 1
724 905 m 0x18
 724 877 662 744 552 744 c 0
 480 744 449 804 449 861 c 0
 449 869 449 914 465 914 c 0
 471 914 475 910 475 905 c 0
 475 902 470 881 470 869 c 0
 470 818 501 777 555 777 c 0
 605 777 673 815 702 900 c 0
 705 910 707 914 714 914 c 0
 720 914 724 910 724 905 c 0x18
702 951 m 0
 704 954 704 956 697 962 c 2
 591 1082 l 1
 591 1082 582 1091 569 1091 c 0
 551 1091 533 1078 528 1060 c 0
 522 1045 533 1037 540 1034 c 2
 670 937 l 2
 673 935 678 933 683 934 c 0
 688 935 700 943 702 951 c 0
EndSplineSet
Position2: "'cpsp' Capital Spacing lookup 0 subtable" dx=7 dy=0 dh=14 dv=0
EndChar

StartChar: abrevegrave
Encoding: 7857 7857 136
Width: 500
Flags: MW
HStem: -10 21G<179 233.5 400.5 431.5> 421 20G<300.5 335.5 267.5 352> 517 33<358 410 358 437> 667 20G<287 298 540.5 547>
VStem: 98 62<97.5 125 94 215>
LayerCount: 2
Fore
SplineSet
513 143 m 0
 513 140 501 83 484 48 c 0
 471 19 451 -10 412 -10 c 0
 389 -10 344 0 333 61 c 1
 295 16 254 -10 213 -10 c 0
 145 -10 98 53 98 142 c 0
 98 288 213 441 322 441 c 0
 349 441 383 429 402 382 c 1
 403 383 l 1
 403 383 410 422 442 422 c 0
 460 422 468 409 468 398 c 2
 468 398 468 393 465 382 c 2
 395 103 l 2
 391 88 387 65 387 50 c 0
 387 31 392 10 414 10 c 0
 442 10 461 45 481 128 c 0
 487 151 488 152 500 152 c 0
 504 152 513 152 513 143 c 0
339 121 m 2
 386 311 l 1
 389 325 l 2
 389 332 382 421 322 421 c 0
 279 421 234 370 208 308 c 0
 192 268 160 150 160 100 c 0
 160 88 162 10 215 10 c 0
 273 10 333 95 339 121 c 2
554 678 m 0x30
 554 650 492 517 382 517 c 0
 310 517 279 577 279 634 c 0
 279 642 279 687 295 687 c 0
 301 687 305 683 305 678 c 0
 305 675 300 654 300 642 c 0
 300 591 331 550 385 550 c 0
 435 550 503 588 532 673 c 0
 535 683 537 687 544 687 c 0
 550 687 554 683 554 678 c 0x30
532 724 m 0
 534 727 534 729 527 735 c 2
 421 855 l 1
 421 855 412 864 399 864 c 0
 381 864 363 851 358 833 c 0
 352 818 363 810 370 807 c 2
 500 710 l 2
 503 708 508 706 513 707 c 0
 518 708 530 716 532 724 c 0
EndSplineSet
EndChar

StartChar: Abrevehookabove
Encoding: 7858 7858 137
Width: 727
Flags: MW
HStem: 0 29<213 233 459 466 643 662> 234 29<299 512 299 514 282 512> 694 20G<534 548> 744 33<528 580 528 607> 1105 20G<616 650.5>
LayerCount: 2
Fore
SplineSet
677 18 m 0
 677 0 665 0 659 0 c 0
 627 0 593 2 560 2 c 0
 526 2 490 0 457 0 c 0
 453 0 443 0 443 10 c 0
 443 29 452 29 466 29 c 0
 528 30 526 57 525 73 c 2
 514 234 l 1
 282 234 l 1
 209 105 l 2
 200 89 192 76 192 62 c 0
 192 43 206 31 230 29 c 0
 236 29 244 28 244 19 c 0
 244 0 233 0 226 0 c 0
 200 0 171 2 144 2 c 0
 119 2 92 0 68 0 c 1
 68 0 56 0 56 10 c 0
 56 27 64 28 75 29 c 0
 125 34 153 57 184 112 c 2
 517 696 l 2
 524 708 527 714 541 714 c 0
 555 714 556 711 557 690 c 2
 601 62 l 2
 603 36 608 29 657 29 c 0
 670 29 677 29 677 18 c 0
512 263 m 1
 489 596 l 1
 299 263 l 1
 512 263 l 1
724 905 m 0x18
 724 877 662 744 552 744 c 0
 480 744 449 804 449 861 c 0
 449 869 449 914 465 914 c 0
 471 914 475 910 475 905 c 0
 475 902 470 881 470 869 c 0
 470 818 501 777 555 777 c 0
 605 777 673 815 702 900 c 0
 705 910 707 914 714 914 c 0
 720 914 724 910 724 905 c 0x18
716 1057 m 0
 712 1039 698 1024 680 1015 c 0
 639 994 609 970 601 939 c 2
 596 920 l 2
 595 916 592 914 588 914 c 2
 586 914 l 2
 583 915 580 918 580 922 c 2
 581 924 l 1
 585 943 l 2
 594 976 618 1006 650 1029 c 0
 660 1036 667 1048 670 1060 c 0
 673 1072 674 1079 674 1085 c 0
 674 1090 673 1094 671 1097 c 0
 666 1105 653 1109 637 1109 c 0
 613 1109 589 1098 574 1082 c 1
 583 1080 590 1074 590 1063 c 2
 590 1063 590 1059 589 1056 c 0
 586 1043 573 1034 561 1034 c 0
 550 1034 541 1042 541 1054 c 2
 541 1060 l 1
 542 1061 l 1
 551 1099 595 1125 637 1125 c 0
 664 1125 686 1121 702 1108 c 0
 712 1099 718 1086 718 1072 c 0
 718 1067 717 1062 716 1057 c 0
EndSplineSet
Position2: "'cpsp' Capital Spacing lookup 0 subtable" dx=7 dy=0 dh=14 dv=0
EndChar

StartChar: abrevehookabove
Encoding: 7859 7859 138
Width: 500
Flags: MW
HStem: -10 21G<179 233.5 400.5 431.5> 421 20G<300.5 335.5 267.5 352> 517 33<358 410 358 437> 878 20G<446 480.5>
VStem: 98 62<97.5 125 94 215>
LayerCount: 2
Fore
SplineSet
513 143 m 0
 513 140 501 83 484 48 c 0
 471 19 451 -10 412 -10 c 0
 389 -10 344 0 333 61 c 1
 295 16 254 -10 213 -10 c 0
 145 -10 98 53 98 142 c 0
 98 288 213 441 322 441 c 0
 349 441 383 429 402 382 c 1
 403 383 l 1
 403 383 410 422 442 422 c 0
 460 422 468 409 468 398 c 2
 468 398 468 393 465 382 c 2
 395 103 l 2
 391 88 387 65 387 50 c 0
 387 31 392 10 414 10 c 0
 442 10 461 45 481 128 c 0
 487 151 488 152 500 152 c 0
 504 152 513 152 513 143 c 0
339 121 m 2
 386 311 l 1
 389 325 l 2
 389 332 382 421 322 421 c 0
 279 421 234 370 208 308 c 0
 192 268 160 150 160 100 c 0
 160 88 162 10 215 10 c 0
 273 10 333 95 339 121 c 2
554 678 m 0x30
 554 650 492 517 382 517 c 0
 310 517 279 577 279 634 c 0
 279 642 279 687 295 687 c 0
 301 687 305 683 305 678 c 0
 305 675 300 654 300 642 c 0
 300 591 331 550 385 550 c 0
 435 550 503 588 532 673 c 0
 535 683 537 687 544 687 c 0
 550 687 554 683 554 678 c 0x30
546 830 m 0
 542 812 528 797 510 788 c 0
 469 767 439 743 431 712 c 2
 426 693 l 2
 425 689 422 687 418 687 c 2
 416 687 l 2
 413 688 410 691 410 695 c 2
 411 697 l 1
 415 716 l 2
 424 749 448 779 480 802 c 0
 490 809 497 821 500 833 c 0
 503 845 504 852 504 858 c 0
 504 863 503 867 501 870 c 0
 496 878 483 882 467 882 c 0
 443 882 419 871 404 855 c 1
 413 853 420 847 420 836 c 2
 420 836 420 832 419 829 c 0
 416 816 403 807 391 807 c 0
 380 807 371 815 371 827 c 2
 371 833 l 1
 372 834 l 1
 381 872 425 898 467 898 c 0
 494 898 516 894 532 881 c 0
 542 872 548 859 548 845 c 0
 548 840 547 835 546 830 c 0
EndSplineSet
EndChar

StartChar: Abrevetilde
Encoding: 7860 7860 139
Width: 727
Flags: MW
HStem: 0 29<213 233 459 466 643 662> 234 29<299 512 299 514 282 512> 694 20G<534 548> 744 33<528 580 528 607> 954 33<655.5 671.5> 954 96<636 763> 955 96<462 593> 1018 33<557.5 572.5>
LayerCount: 2
Fore
SplineSet
677 18 m 0xe0
 677 0 665 0 659 0 c 0
 627 0 593 2 560 2 c 0
 526 2 490 0 457 0 c 0
 453 0 443 0 443 10 c 0
 443 29 452 29 466 29 c 0
 528 30 526 57 525 73 c 2
 514 234 l 1
 282 234 l 1
 209 105 l 2
 200 89 192 76 192 62 c 0
 192 43 206 31 230 29 c 0
 236 29 244 28 244 19 c 0
 244 0 233 0 226 0 c 0
 200 0 171 2 144 2 c 0
 119 2 92 0 68 0 c 1
 68 0 56 0 56 10 c 0
 56 27 64 28 75 29 c 0
 125 34 153 57 184 112 c 2
 517 696 l 2
 524 708 527 714 541 714 c 0
 555 714 556 711 557 690 c 2
 601 62 l 2
 603 36 608 29 657 29 c 0
 670 29 677 29 677 18 c 0xe0
512 263 m 1
 489 596 l 1
 299 263 l 1
 512 263 l 1
724 905 m 0x14
 724 877 662 744 552 744 c 0
 480 744 449 804 449 861 c 0
 449 869 449 914 465 914 c 0
 471 914 475 910 475 905 c 0
 475 902 470 881 470 869 c 0
 470 818 501 777 555 777 c 0
 605 777 673 815 702 900 c 0
 705 910 707 914 714 914 c 0
 720 914 724 910 724 905 c 0x14
773 1041 m 0
 773 1032 694 954 649 954 c 0
 623 954 609 976 601 988 c 0
 586 1012 579 1018 566 1018 c 0x09
 541 1018 503 985 484 968 c 0
 471 955 469 955 465 955 c 0x02
 459 955 456 961 456 964 c 0
 456 972 535 1051 580 1051 c 0
 606 1051 620 1030 629 1014 c 0
 641 995 649 987 662 987 c 0x09
 693 987 745 1038 745 1038 c 2
 751 1044 758 1050 763 1050 c 2
 763 1050 773 1049 773 1041 c 0
EndSplineSet
Position2: "'cpsp' Capital Spacing lookup 0 subtable" dx=7 dy=0 dh=14 dv=0
EndChar

StartChar: abrevetilde
Encoding: 7861 7861 140
Width: 500
Flags: MW
HStem: -10 21G<179 233.5 400.5 431.5> 421 20G<300.5 335.5 267.5 352> 517 33<358 410 358 437> 727 33<485.5 501.5> 727 96<466 593> 728 96<292 423> 791 33<387.5 402.5>
VStem: 98 62<97.5 125 94 215>
LayerCount: 2
Fore
SplineSet
513 143 m 0xc1
 513 140 501 83 484 48 c 0
 471 19 451 -10 412 -10 c 0
 389 -10 344 0 333 61 c 1
 295 16 254 -10 213 -10 c 0
 145 -10 98 53 98 142 c 0
 98 288 213 441 322 441 c 0
 349 441 383 429 402 382 c 1
 403 383 l 1
 403 383 410 422 442 422 c 0
 460 422 468 409 468 398 c 2
 468 398 468 393 465 382 c 2
 395 103 l 2
 391 88 387 65 387 50 c 0
 387 31 392 10 414 10 c 0
 442 10 461 45 481 128 c 0
 487 151 488 152 500 152 c 0
 504 152 513 152 513 143 c 0xc1
339 121 m 2
 386 311 l 1
 389 325 l 2
 389 332 382 421 322 421 c 0
 279 421 234 370 208 308 c 0
 192 268 160 150 160 100 c 0
 160 88 162 10 215 10 c 0
 273 10 333 95 339 121 c 2
554 678 m 0x28
 554 650 492 517 382 517 c 0
 310 517 279 577 279 634 c 0
 279 642 279 687 295 687 c 0
 301 687 305 683 305 678 c 0
 305 675 300 654 300 642 c 0
 300 591 331 550 385 550 c 0
 435 550 503 588 532 673 c 0
 535 683 537 687 544 687 c 0
 550 687 554 683 554 678 c 0x28
603 814 m 0
 603 805 524 727 479 727 c 0
 453 727 439 749 431 761 c 0
 416 785 409 791 396 791 c 0x12
 371 791 333 758 314 741 c 0
 301 728 299 728 295 728 c 0x04
 289 728 286 734 286 737 c 0
 286 745 365 824 410 824 c 0
 436 824 450 803 459 787 c 0
 471 768 479 760 492 760 c 0x12
 523 760 575 811 575 811 c 2
 581 817 588 823 593 823 c 2
 593 823 603 822 603 814 c 0
EndSplineSet
EndChar

StartChar: Acaron
Encoding: 461 461 141
Width: 727
Flags: MW
HStem: 0 29<213 233 459 466 643 662> 234 29<299 512 299 514 282 512> 694 20G<534 548>
LayerCount: 2
Fore
SplineSet
677 18 m 0
 677 0 665 0 659 0 c 0
 627 0 593 2 560 2 c 0
 526 2 490 0 457 0 c 0
 453 0 443 0 443 10 c 0
 443 29 452 29 466 29 c 0
 528 30 526 57 525 73 c 2
 514 234 l 1
 282 234 l 1
 209 105 l 2
 200 89 192 76 192 62 c 0
 192 43 206 31 230 29 c 0
 236 29 244 28 244 19 c 0
 244 0 233 0 226 0 c 0
 200 0 171 2 144 2 c 0
 119 2 92 0 68 0 c 1
 68 0 56 0 56 10 c 0
 56 27 64 28 75 29 c 0
 125 34 153 57 184 112 c 2
 517 696 l 2
 524 708 527 714 541 714 c 0
 555 714 556 711 557 690 c 2
 601 62 l 2
 603 36 608 29 657 29 c 0
 670 29 677 29 677 18 c 0
512 263 m 1
 489 596 l 1
 299 263 l 1
 512 263 l 1
708 834 m 2
 554 736 l 2
 549 734 544 734 542 736 c 2
 435 834 l 2
 428 841 441 857 451 852 c 2
 563 797 l 1
 703 852 l 2
 716 857 721 841 708 834 c 2
EndSplineSet
EndChar

StartChar: acaron
Encoding: 462 462 142
Width: 500
Flags: MW
HStem: -10 21G<179 233.5 400.5 431.5> 421 20G<300.5 335.5 267.5 352>
VStem: 98 62<97.5 125 94 215>
LayerCount: 2
Fore
SplineSet
513 143 m 0
 513 140 501 83 484 48 c 0
 471 19 451 -10 412 -10 c 0
 389 -10 344 0 333 61 c 1
 295 16 254 -10 213 -10 c 0
 145 -10 98 53 98 142 c 0
 98 288 213 441 322 441 c 0
 349 441 383 429 402 382 c 1
 403 383 l 1
 403 383 410 422 442 422 c 0
 460 422 468 409 468 398 c 2
 468 398 468 393 465 382 c 2
 395 103 l 2
 391 88 387 65 387 50 c 0
 387 31 392 10 414 10 c 0
 442 10 461 45 481 128 c 0
 487 151 488 152 500 152 c 0
 504 152 513 152 513 143 c 0
339 121 m 2
 386 311 l 1
 389 325 l 2
 389 332 382 421 322 421 c 0
 279 421 234 370 208 308 c 0
 192 268 160 150 160 100 c 0
 160 88 162 10 215 10 c 0
 273 10 333 95 339 121 c 2
555 666 m 2
 389 522 l 2
 384 518 377 518 374 522 c 2
 280 666 l 2
 272 676 290 690 298 682 c 2
 395 583 l 1
 544 682 l 2
 556 690 565 676 555 666 c 2
EndSplineSet
EndChar

StartChar: Acircumflex
Encoding: 194 194 143
Width: 727
Flags: MW
HStem: 0 29<213 233 459 466 643 662> 234 29<299 512 299 514 282 512> 694 20G<534 548>
LayerCount: 2
Fore
SplineSet
677 18 m 0
 677 0 665 0 659 0 c 0
 627 0 593 2 560 2 c 0
 526 2 490 0 457 0 c 0
 453 0 443 0 443 10 c 0
 443 29 452 29 466 29 c 0
 528 30 526 57 525 73 c 2
 514 234 l 1
 282 234 l 1
 209 105 l 2
 200 89 192 76 192 62 c 0
 192 43 206 31 230 29 c 0
 236 29 244 28 244 19 c 0
 244 0 233 0 226 0 c 0
 200 0 171 2 144 2 c 0
 119 2 92 0 68 0 c 1
 68 0 56 0 56 10 c 0
 56 27 64 28 75 29 c 0
 125 34 153 57 184 112 c 2
 517 696 l 2
 524 708 527 714 541 714 c 0
 555 714 556 711 557 690 c 2
 601 62 l 2
 603 36 608 29 657 29 c 0
 670 29 677 29 677 18 c 0
512 263 m 1
 489 596 l 1
 299 263 l 1
 512 263 l 1
689 753 m 2
 697 746 684 730 673 735 c 2
 562 790 l 1
 421 735 l 2
 409 730 404 746 416 753 c 2
 570 851 l 2
 575 853 580 853 582 851 c 2
 689 753 l 2
EndSplineSet
Position2: "'cpsp' Capital Spacing lookup 0 subtable" dx=7 dy=0 dh=14 dv=0
EndChar

StartChar: acircumflex
Encoding: 226 226 144
Width: 500
Flags: MW
HStem: -10 21G<179 233.5 400.5 431.5> 421 20G<300.5 335.5 267.5 352>
VStem: 98 62<97.5 125 94 215>
LayerCount: 2
Fore
SplineSet
513 143 m 0
 513 140 501 83 484 48 c 0
 471 19 451 -10 412 -10 c 0
 389 -10 344 0 333 61 c 1
 295 16 254 -10 213 -10 c 0
 145 -10 98 53 98 142 c 0
 98 288 213 441 322 441 c 0
 349 441 383 429 402 382 c 1
 403 383 l 1
 403 383 410 422 442 422 c 0
 460 422 468 409 468 398 c 2
 468 398 468 393 465 382 c 2
 395 103 l 2
 391 88 387 65 387 50 c 0
 387 31 392 10 414 10 c 0
 442 10 461 45 481 128 c 0
 487 151 488 152 500 152 c 0
 504 152 513 152 513 143 c 0
339 121 m 2
 386 311 l 1
 389 325 l 2
 389 332 382 421 322 421 c 0
 279 421 234 370 208 308 c 0
 192 268 160 150 160 100 c 0
 160 88 162 10 215 10 c 0
 273 10 333 95 339 121 c 2
521 537 m 2
 529 527 511 513 503 521 c 2
 406 620 l 1
 257 521 l 2
 245 513 236 527 246 537 c 2
 412 681 l 2
 417 685 424 685 427 681 c 2
 521 537 l 2
EndSplineSet
EndChar

StartChar: Acircumflexacute
Encoding: 7844 7844 145
Width: 727
Flags: MW
HStem: 0 29<213 233 459 466 643 662> 234 29<299 512 299 514 282 512> 694 20G<534 548> 1010 20G<681.5 697>
LayerCount: 2
Fore
SplineSet
677 18 m 0
 677 0 665 0 659 0 c 0
 627 0 593 2 560 2 c 0
 526 2 490 0 457 0 c 0
 453 0 443 0 443 10 c 0
 443 29 452 29 466 29 c 0
 528 30 526 57 525 73 c 2
 514 234 l 1
 282 234 l 1
 209 105 l 2
 200 89 192 76 192 62 c 0
 192 43 206 31 230 29 c 0
 236 29 244 28 244 19 c 0
 244 0 233 0 226 0 c 0
 200 0 171 2 144 2 c 0
 119 2 92 0 68 0 c 1
 68 0 56 0 56 10 c 0
 56 27 64 28 75 29 c 0
 125 34 153 57 184 112 c 2
 517 696 l 2
 524 708 527 714 541 714 c 0
 555 714 556 711 557 690 c 2
 601 62 l 2
 603 36 608 29 657 29 c 0
 670 29 677 29 677 18 c 0
512 263 m 1
 489 596 l 1
 299 263 l 1
 512 263 l 1
689 753 m 2x10
 697 746 684 730 673 735 c 2
 562 790 l 1
 421 735 l 2
 409 730 404 746 416 753 c 2
 570 851 l 2
 575 853 580 853 582 851 c 2
 689 753 l 2x10
714 999 m 0
 712 984 697 976 689 973 c 2
 510 876 l 2
 506 874 500 872 496 873 c 0
 491 874 483 882 485 890 c 0
 485 893 486 895 496 901 c 2
 662 1021 l 1
 662 1021 675 1030 688 1030 c 0
 706 1030 717 1017 714 999 c 0
EndSplineSet
Position2: "'cpsp' Capital Spacing lookup 0 subtable" dx=7 dy=0 dh=14 dv=0
EndChar

StartChar: acircumflexacute
Encoding: 7845 7845 146
Width: 500
Flags: MW
HStem: -10 21G<179 233.5 400.5 431.5> 421 20G<300.5 335.5 267.5 352> 795 20G<513.5 529>
VStem: 98 62<97.5 125 94 215>
LayerCount: 2
Fore
SplineSet
513 143 m 0
 513 140 501 83 484 48 c 0
 471 19 451 -10 412 -10 c 0
 389 -10 344 0 333 61 c 1
 295 16 254 -10 213 -10 c 0
 145 -10 98 53 98 142 c 0
 98 288 213 441 322 441 c 0
 349 441 383 429 402 382 c 1
 403 383 l 1
 403 383 410 422 442 422 c 0
 460 422 468 409 468 398 c 2
 468 398 468 393 465 382 c 2
 395 103 l 2
 391 88 387 65 387 50 c 0
 387 31 392 10 414 10 c 0
 442 10 461 45 481 128 c 0
 487 151 488 152 500 152 c 0
 504 152 513 152 513 143 c 0
339 121 m 2
 386 311 l 1
 389 325 l 2
 389 332 382 421 322 421 c 0
 279 421 234 370 208 308 c 0
 192 268 160 150 160 100 c 0
 160 88 162 10 215 10 c 0
 273 10 333 95 339 121 c 2
521 538 m 2x20
 529 531 516 515 505 520 c 2
 394 575 l 1
 253 520 l 2
 241 515 236 531 248 538 c 2
 402 636 l 2
 407 638 412 638 414 636 c 2
 521 538 l 2x20
546 784 m 0
 544 769 529 761 521 758 c 2
 342 661 l 2
 338 659 332 657 328 658 c 0
 323 659 315 667 317 675 c 0
 317 678 318 680 328 686 c 2
 494 806 l 1
 494 806 507 815 520 815 c 0
 538 815 549 802 546 784 c 0
EndSplineSet
EndChar

StartChar: Acircumflexdotbelow
Encoding: 7852 7852 147
Width: 727
Flags: MW
HStem: 0 29<213 233 459 466 643 662> 234 29<299 512 299 514 282 512> 694 20G<534 548>
LayerCount: 2
Fore
SplineSet
677 18 m 0
 677 0 665 0 659 0 c 0
 627 0 593 2 560 2 c 0
 526 2 490 0 457 0 c 0
 453 0 443 0 443 10 c 0
 443 29 452 29 466 29 c 0
 528 30 526 57 525 73 c 2
 514 234 l 1
 282 234 l 1
 209 105 l 2
 200 89 192 76 192 62 c 0
 192 43 206 31 230 29 c 0
 236 29 244 28 244 19 c 0
 244 0 233 0 226 0 c 0
 200 0 171 2 144 2 c 0
 119 2 92 0 68 0 c 1
 68 0 56 0 56 10 c 0
 56 27 64 28 75 29 c 0
 125 34 153 57 184 112 c 2
 517 696 l 2
 524 708 527 714 541 714 c 0
 555 714 556 711 557 690 c 2
 601 62 l 2
 603 36 608 29 657 29 c 0
 670 29 677 29 677 18 c 0
512 263 m 1
 489 596 l 1
 299 263 l 1
 512 263 l 1
689 753 m 2
 697 746 684 730 673 735 c 2
 562 790 l 1
 421 735 l 2
 409 730 404 746 416 753 c 2
 570 851 l 2
 575 853 580 853 582 851 c 2
 689 753 l 2
375 -143 m 0
 375 -173 346 -200 316 -200 c 0
 297 -200 276 -187 276 -160 c 0
 276 -131 305 -103 335 -103 c 0
 355 -103 375 -115 375 -143 c 0
EndSplineSet
Position2: "'cpsp' Capital Spacing lookup 0 subtable" dx=7 dy=0 dh=14 dv=0
EndChar

StartChar: acircumflexdotbelow
Encoding: 7853 7853 148
Width: 500
Flags: MW
HStem: -10 21G<179 233.5 400.5 431.5> 421 20G<300.5 335.5 267.5 352>
VStem: 98 62<97.5 125 94 215>
LayerCount: 2
Fore
SplineSet
513 143 m 0
 513 140 501 83 484 48 c 0
 471 19 451 -10 412 -10 c 0
 389 -10 344 0 333 61 c 1
 295 16 254 -10 213 -10 c 0
 145 -10 98 53 98 142 c 0
 98 288 213 441 322 441 c 0
 349 441 383 429 402 382 c 1
 403 383 l 1
 403 383 410 422 442 422 c 0
 460 422 468 409 468 398 c 2
 468 398 468 393 465 382 c 2
 395 103 l 2
 391 88 387 65 387 50 c 0
 387 31 392 10 414 10 c 0
 442 10 461 45 481 128 c 0
 487 151 488 152 500 152 c 0
 504 152 513 152 513 143 c 0
339 121 m 2
 386 311 l 1
 389 325 l 2
 389 332 382 421 322 421 c 0
 279 421 234 370 208 308 c 0
 192 268 160 150 160 100 c 0
 160 88 162 10 215 10 c 0
 273 10 333 95 339 121 c 2
521 537 m 2
 529 527 511 513 503 521 c 2
 406 620 l 1
 257 521 l 2
 245 513 236 527 246 537 c 2
 412 681 l 2
 417 685 424 685 427 681 c 2
 521 537 l 2
262 -143 m 0
 262 -173 233 -200 203 -200 c 0
 184 -200 163 -187 163 -160 c 0
 163 -131 192 -103 222 -103 c 0
 242 -103 262 -115 262 -143 c 0
EndSplineSet
EndChar

StartChar: Acircumflexgrave
Encoding: 7846 7846 149
Width: 727
Flags: MW
HStem: 0 29<213 233 459 466 643 662> 234 29<299 512 299 514 282 512> 694 20G<534 548>
LayerCount: 2
Fore
SplineSet
677 18 m 0
 677 0 665 0 659 0 c 0
 627 0 593 2 560 2 c 0
 526 2 490 0 457 0 c 0
 453 0 443 0 443 10 c 0
 443 29 452 29 466 29 c 0
 528 30 526 57 525 73 c 2
 514 234 l 1
 282 234 l 1
 209 105 l 2
 200 89 192 76 192 62 c 0
 192 43 206 31 230 29 c 0
 236 29 244 28 244 19 c 0
 244 0 233 0 226 0 c 0
 200 0 171 2 144 2 c 0
 119 2 92 0 68 0 c 1
 68 0 56 0 56 10 c 0
 56 27 64 28 75 29 c 0
 125 34 153 57 184 112 c 2
 517 696 l 2
 524 708 527 714 541 714 c 0
 555 714 556 711 557 690 c 2
 601 62 l 2
 603 36 608 29 657 29 c 0
 670 29 677 29 677 18 c 0
512 263 m 1
 489 596 l 1
 299 263 l 1
 512 263 l 1
689 753 m 2
 697 746 684 730 673 735 c 2
 562 790 l 1
 421 735 l 2
 409 730 404 746 416 753 c 2
 570 851 l 2
 575 853 580 853 582 851 c 2
 689 753 l 2
687 890 m 0
 689 893 689 895 682 901 c 2
 576 1021 l 1
 576 1021 567 1030 554 1030 c 0
 536 1030 518 1017 513 999 c 0
 507 984 518 976 525 973 c 2
 655 876 l 2
 658 874 663 872 668 873 c 0
 673 874 685 882 687 890 c 0
EndSplineSet
Position2: "'cpsp' Capital Spacing lookup 0 subtable" dx=7 dy=0 dh=14 dv=0
EndChar

StartChar: acircumflexgrave
Encoding: 7847 7847 150
Width: 500
Flags: MW
HStem: -10 21G<179 233.5 400.5 431.5> 421 20G<300.5 335.5 267.5 352>
VStem: 98 62<97.5 125 94 215>
LayerCount: 2
Fore
SplineSet
513 143 m 0
 513 140 501 83 484 48 c 0
 471 19 451 -10 412 -10 c 0
 389 -10 344 0 333 61 c 1
 295 16 254 -10 213 -10 c 0
 145 -10 98 53 98 142 c 0
 98 288 213 441 322 441 c 0
 349 441 383 429 402 382 c 1
 403 383 l 1
 403 383 410 422 442 422 c 0
 460 422 468 409 468 398 c 2
 468 398 468 393 465 382 c 2
 395 103 l 2
 391 88 387 65 387 50 c 0
 387 31 392 10 414 10 c 0
 442 10 461 45 481 128 c 0
 487 151 488 152 500 152 c 0
 504 152 513 152 513 143 c 0
339 121 m 2
 386 311 l 1
 389 325 l 2
 389 332 382 421 322 421 c 0
 279 421 234 370 208 308 c 0
 192 268 160 150 160 100 c 0
 160 88 162 10 215 10 c 0
 273 10 333 95 339 121 c 2
521 538 m 2
 529 531 516 515 505 520 c 2
 394 575 l 1
 253 520 l 2
 241 515 236 531 248 538 c 2
 402 636 l 2
 407 638 412 638 414 636 c 2
 521 538 l 2
519 675 m 0
 521 678 521 680 514 686 c 2
 408 806 l 1
 408 806 399 815 386 815 c 0
 368 815 350 802 345 784 c 0
 339 769 350 761 357 758 c 2
 487 661 l 2
 490 659 495 657 500 658 c 0
 505 659 517 667 519 675 c 0
EndSplineSet
EndChar

StartChar: Acircumflexhookabove
Encoding: 7848 7848 151
Width: 727
Flags: MW
HStem: 0 29<213 233 459 466 643 662> 234 29<299 512 299 514 282 512> 694 20G<534 548> 1044 20G<688 722.5>
LayerCount: 2
Fore
SplineSet
677 18 m 0
 677 0 665 0 659 0 c 0
 627 0 593 2 560 2 c 0
 526 2 490 0 457 0 c 0
 453 0 443 0 443 10 c 0
 443 29 452 29 466 29 c 0
 528 30 526 57 525 73 c 2
 514 234 l 1
 282 234 l 1
 209 105 l 2
 200 89 192 76 192 62 c 0
 192 43 206 31 230 29 c 0
 236 29 244 28 244 19 c 0
 244 0 233 0 226 0 c 0
 200 0 171 2 144 2 c 0
 119 2 92 0 68 0 c 1
 68 0 56 0 56 10 c 0
 56 27 64 28 75 29 c 0
 125 34 153 57 184 112 c 2
 517 696 l 2
 524 708 527 714 541 714 c 0
 555 714 556 711 557 690 c 2
 601 62 l 2
 603 36 608 29 657 29 c 0
 670 29 677 29 677 18 c 0
512 263 m 1
 489 596 l 1
 299 263 l 1
 512 263 l 1
689 753 m 2x10
 697 746 684 730 673 735 c 2
 562 790 l 1
 421 735 l 2
 409 730 404 746 416 753 c 2
 570 851 l 2
 575 853 580 853 582 851 c 2
 689 753 l 2x10
788 996 m 0
 784 978 770 963 752 954 c 0
 711 933 681 909 673 878 c 2
 668 859 l 2
 667 855 664 853 660 853 c 2
 658 853 l 2
 655 854 652 857 652 861 c 2
 653 863 l 1
 657 882 l 2
 666 915 690 945 722 968 c 0
 732 975 739 987 742 999 c 0
 745 1011 746 1018 746 1024 c 0
 746 1029 745 1033 743 1036 c 0
 738 1044 725 1048 709 1048 c 0
 685 1048 661 1037 646 1021 c 1
 655 1019 662 1013 662 1002 c 2
 662 1002 662 998 661 995 c 0
 658 982 645 973 633 973 c 0
 622 973 613 981 613 993 c 2
 613 999 l 1
 614 1000 l 1
 623 1038 667 1064 709 1064 c 0
 736 1064 758 1060 774 1047 c 0
 784 1038 790 1025 790 1011 c 0
 790 1006 789 1001 788 996 c 0
EndSplineSet
Position2: "'cpsp' Capital Spacing lookup 0 subtable" dx=7 dy=0 dh=14 dv=0
EndChar

StartChar: acircumflexhookabove
Encoding: 7849 7849 152
Width: 500
Flags: MW
HStem: -10 21G<179 233.5 400.5 431.5> 421 20G<300.5 335.5 267.5 352> 829 20G<520 554.5>
VStem: 98 62<97.5 125 94 215>
LayerCount: 2
Fore
SplineSet
513 143 m 0
 513 140 501 83 484 48 c 0
 471 19 451 -10 412 -10 c 0
 389 -10 344 0 333 61 c 1
 295 16 254 -10 213 -10 c 0
 145 -10 98 53 98 142 c 0
 98 288 213 441 322 441 c 0
 349 441 383 429 402 382 c 1
 403 383 l 1
 403 383 410 422 442 422 c 0
 460 422 468 409 468 398 c 2
 468 398 468 393 465 382 c 2
 395 103 l 2
 391 88 387 65 387 50 c 0
 387 31 392 10 414 10 c 0
 442 10 461 45 481 128 c 0
 487 151 488 152 500 152 c 0
 504 152 513 152 513 143 c 0
339 121 m 2
 386 311 l 1
 389 325 l 2
 389 332 382 421 322 421 c 0
 279 421 234 370 208 308 c 0
 192 268 160 150 160 100 c 0
 160 88 162 10 215 10 c 0
 273 10 333 95 339 121 c 2
521 538 m 2x20
 529 531 516 515 505 520 c 2
 394 575 l 1
 253 520 l 2
 241 515 236 531 248 538 c 2
 402 636 l 2
 407 638 412 638 414 636 c 2
 521 538 l 2x20
620 781 m 0
 616 763 602 748 584 739 c 0
 543 718 513 694 505 663 c 2
 500 644 l 2
 499 640 496 638 492 638 c 2
 490 638 l 2
 487 639 484 642 484 646 c 2
 485 648 l 1
 489 667 l 2
 498 700 522 730 554 753 c 0
 564 760 571 772 574 784 c 0
 577 796 578 803 578 809 c 0
 578 814 577 818 575 821 c 0
 570 829 557 833 541 833 c 0
 517 833 493 822 478 806 c 1
 487 804 494 798 494 787 c 2
 494 787 494 783 493 780 c 0
 490 767 477 758 465 758 c 0
 454 758 445 766 445 778 c 2
 445 784 l 1
 446 785 l 1
 455 823 499 849 541 849 c 0
 568 849 590 845 606 832 c 0
 616 823 622 810 622 796 c 0
 622 791 621 786 620 781 c 0
EndSplineSet
EndChar

StartChar: Acircumflextilde
Encoding: 7850 7850 153
Width: 727
Flags: MW
HStem: 0 29<213 233 459 466 643 662> 234 29<299 512 299 514 282 512> 694 20G<534 548> 893 33<639.5 655.5> 893 96<620 747> 894 96<446 577> 957 33<541.5 556.5>
LayerCount: 2
Fore
SplineSet
677 18 m 0xe0
 677 0 665 0 659 0 c 0
 627 0 593 2 560 2 c 0
 526 2 490 0 457 0 c 0
 453 0 443 0 443 10 c 0
 443 29 452 29 466 29 c 0
 528 30 526 57 525 73 c 2
 514 234 l 1
 282 234 l 1
 209 105 l 2
 200 89 192 76 192 62 c 0
 192 43 206 31 230 29 c 0
 236 29 244 28 244 19 c 0
 244 0 233 0 226 0 c 0
 200 0 171 2 144 2 c 0
 119 2 92 0 68 0 c 1
 68 0 56 0 56 10 c 0
 56 27 64 28 75 29 c 0
 125 34 153 57 184 112 c 2
 517 696 l 2
 524 708 527 714 541 714 c 0
 555 714 556 711 557 690 c 2
 601 62 l 2
 603 36 608 29 657 29 c 0
 670 29 677 29 677 18 c 0xe0
512 263 m 1
 489 596 l 1
 299 263 l 1
 512 263 l 1
689 753 m 2x08
 697 746 684 730 673 735 c 2
 562 790 l 1
 421 735 l 2
 409 730 404 746 416 753 c 2
 570 851 l 2
 575 853 580 853 582 851 c 2
 689 753 l 2x08
757 980 m 0
 757 971 678 893 633 893 c 0
 607 893 593 915 585 927 c 0
 570 951 563 957 550 957 c 0x12
 525 957 487 924 468 907 c 0
 455 894 453 894 449 894 c 0x04
 443 894 440 900 440 903 c 0
 440 911 519 990 564 990 c 0
 590 990 604 969 613 953 c 0
 625 934 633 926 646 926 c 0x12
 677 926 729 977 729 977 c 2
 735 983 742 989 747 989 c 2
 747 989 757 988 757 980 c 0
EndSplineSet
Position2: "'cpsp' Capital Spacing lookup 0 subtable" dx=7 dy=0 dh=14 dv=0
EndChar

StartChar: acircumflextilde
Encoding: 7851 7851 154
Width: 500
Flags: MW
HStem: -10 21G<179 233.5 400.5 431.5> 421 20G<300.5 335.5 267.5 352> 678 33<471.5 487.5> 678 96<452 579> 679 96<278 409> 742 33<373.5 388.5>
VStem: 98 62<97.5 125 94 215>
LayerCount: 2
Fore
SplineSet
513 143 m 0xc2
 513 140 501 83 484 48 c 0
 471 19 451 -10 412 -10 c 0
 389 -10 344 0 333 61 c 1
 295 16 254 -10 213 -10 c 0
 145 -10 98 53 98 142 c 0
 98 288 213 441 322 441 c 0
 349 441 383 429 402 382 c 1
 403 383 l 1
 403 383 410 422 442 422 c 0
 460 422 468 409 468 398 c 2
 468 398 468 393 465 382 c 2
 395 103 l 2
 391 88 387 65 387 50 c 0
 387 31 392 10 414 10 c 0
 442 10 461 45 481 128 c 0
 487 151 488 152 500 152 c 0
 504 152 513 152 513 143 c 0xc2
339 121 m 2
 386 311 l 1
 389 325 l 2
 389 332 382 421 322 421 c 0
 279 421 234 370 208 308 c 0
 192 268 160 150 160 100 c 0
 160 88 162 10 215 10 c 0
 273 10 333 95 339 121 c 2
521 538 m 2x10
 529 531 516 515 505 520 c 2
 394 575 l 1
 253 520 l 2
 241 515 236 531 248 538 c 2
 402 636 l 2
 407 638 412 638 414 636 c 2
 521 538 l 2x10
589 765 m 0
 589 756 510 678 465 678 c 0
 439 678 425 700 417 712 c 0
 402 736 395 742 382 742 c 0x24
 357 742 319 709 300 692 c 0
 287 679 285 679 281 679 c 0x08
 275 679 272 685 272 688 c 0
 272 696 351 775 396 775 c 0
 422 775 436 754 445 738 c 0
 457 719 465 711 478 711 c 0x24
 509 711 561 762 561 762 c 2
 567 768 574 774 579 774 c 2
 579 774 589 773 589 765 c 0
EndSplineSet
EndChar

StartChar: acute
Encoding: 180 180 155
Width: 500
Flags: MW
HStem: 507 21G<335.5 340> 676 20G<497 511.5>
LayerCount: 2
Fore
SplineSet
531 669 m 0
 531 654 518 644 511 639 c 2
 351 513 l 2
 348 510 342 507 338 507 c 0
 333 507 324 514 324 522 c 0
 324 525 324 527 333 535 c 2
 476 682 l 1
 476 682 490 696 504 696 c 0
 519 696 531 684 531 669 c 0
EndSplineSet
EndChar

StartChar: uni0301
Encoding: 769 769 156
Width: 0
Flags: MW
HStem: 507 21G<-164.5 -160> 676 20G<-3 11.5>
LayerCount: 2
Fore
SplineSet
31 669 m 0
 31 654 18 644 11 639 c 2
 -149 513 l 2
 -152 510 -158 507 -162 507 c 0
 -167 507 -176 514 -176 522 c 0
 -176 525 -176 527 -167 535 c 2
 -24 682 l 1
 -24 682 -10 696 4 696 c 0
 19 696 31 684 31 669 c 0
EndSplineSet
EndChar

StartChar: Adblgrave
Encoding: 512 512 157
Width: 727
Flags: MW
HStem: 0 29<213 233 459 466 643 662> 234 29<299 512 299 514 282 512> 694 20G<534 548> 744 21G 913 20G<443.5 464.5 593.5 614.5>
LayerCount: 2
Fore
SplineSet
677 18 m 0
 677 0 665 0 659 0 c 0
 627 0 593 2 560 2 c 0
 526 2 490 0 457 0 c 0
 453 0 443 0 443 10 c 0
 443 29 452 29 466 29 c 0
 528 30 526 57 525 73 c 2
 514 234 l 1
 282 234 l 1
 209 105 l 2
 200 89 192 76 192 62 c 0
 192 43 206 31 230 29 c 0
 236 29 244 28 244 19 c 0
 244 0 233 0 226 0 c 0
 200 0 171 2 144 2 c 0
 119 2 92 0 68 0 c 1
 68 0 56 0 56 10 c 0
 56 27 64 28 75 29 c 0
 125 34 153 57 184 112 c 2
 517 696 l 2
 524 708 527 714 541 714 c 0
 555 714 556 711 557 690 c 2
 601 62 l 2
 603 36 608 29 657 29 c 0
 670 29 677 29 677 18 c 0
512 263 m 1
 489 596 l 1
 299 263 l 1
 512 263 l 1
641 758 m 1x18
 637 751 624 745 619 744 c 0
 614 746 613 747 610 756 c 2
 564 881 l 2
 563 885 559 897 565 908 c 0
 568 915 582 933 605 933 c 0
 624 933 625 919 626 909 c 2
 641 772 l 2
 643 762 641 758 641 758 c 1x18
491 758 m 1
 487 751 474 745 469 744 c 0
 464 746 463 747 460 756 c 2
 414 881 l 2
 413 885 409 897 415 908 c 0
 418 915 432 933 455 933 c 0
 474 933 475 919 476 909 c 2
 491 772 l 2
 493 762 491 758 491 758 c 1
EndSplineSet
Position2: "'cpsp' Capital Spacing lookup 0 subtable" dx=7 dy=0 dh=14 dv=0
EndChar

StartChar: adblgrave
Encoding: 513 513 158
Width: 500
Flags: MW
HStem: -10 21G<179 233.5 400.5 431.5> 421 20G<300.5 335.5 267.5 352> 507 21G 676 20G<296.5 317.5 446.5 467.5>
VStem: 98 62<97.5 125 94 215>
LayerCount: 2
Fore
SplineSet
513 143 m 0
 513 140 501 83 484 48 c 0
 471 19 451 -10 412 -10 c 0
 389 -10 344 0 333 61 c 1
 295 16 254 -10 213 -10 c 0
 145 -10 98 53 98 142 c 0
 98 288 213 441 322 441 c 0
 349 441 383 429 402 382 c 1
 403 383 l 1
 403 383 410 422 442 422 c 0
 460 422 468 409 468 398 c 2
 468 398 468 393 465 382 c 2
 395 103 l 2
 391 88 387 65 387 50 c 0
 387 31 392 10 414 10 c 0
 442 10 461 45 481 128 c 0
 487 151 488 152 500 152 c 0
 504 152 513 152 513 143 c 0
339 121 m 2
 386 311 l 1
 389 325 l 2
 389 332 382 421 322 421 c 0
 279 421 234 370 208 308 c 0
 192 268 160 150 160 100 c 0
 160 88 162 10 215 10 c 0
 273 10 333 95 339 121 c 2
494 521 m 1x30
 490 514 477 508 472 507 c 0
 467 509 466 510 463 519 c 2
 417 644 l 2
 416 648 412 660 418 671 c 0
 421 678 435 696 458 696 c 0
 477 696 478 682 479 672 c 2
 494 535 l 2
 496 525 494 521 494 521 c 1x30
344 521 m 1
 340 514 327 508 322 507 c 0
 317 509 316 510 313 519 c 2
 267 644 l 2
 266 648 262 660 268 671 c 0
 271 678 285 696 308 696 c 0
 327 696 328 682 329 672 c 2
 344 535 l 2
 346 525 344 521 344 521 c 1
EndSplineSet
EndChar

StartChar: Adieresis
Encoding: 196 196 159
Width: 727
Flags: MW
HStem: 0 29<213 233 459 466 643 662> 234 29<299 512 299 514 282 512> 694 20G<534 548> 734 87<457.5 467.5 647.5 657.5>
LayerCount: 2
Fore
SplineSet
677 18 m 0
 677 0 665 0 659 0 c 0
 627 0 593 2 560 2 c 0
 526 2 490 0 457 0 c 0
 453 0 443 0 443 10 c 0
 443 29 452 29 466 29 c 0
 528 30 526 57 525 73 c 2
 514 234 l 1
 282 234 l 1
 209 105 l 2
 200 89 192 76 192 62 c 0
 192 43 206 31 230 29 c 0
 236 29 244 28 244 19 c 0
 244 0 233 0 226 0 c 0
 200 0 171 2 144 2 c 0
 119 2 92 0 68 0 c 1
 68 0 56 0 56 10 c 0
 56 27 64 28 75 29 c 0
 125 34 153 57 184 112 c 2
 517 696 l 2
 524 708 527 714 541 714 c 0
 555 714 556 711 557 690 c 2
 601 62 l 2
 603 36 608 29 657 29 c 0
 670 29 677 29 677 18 c 0
512 263 m 1
 489 596 l 1
 299 263 l 1
 512 263 l 1
507 785 m 0x10
 507 758 481 734 454 734 c 0
 437 734 418 746 418 770 c 0
 418 796 444 821 471 821 c 0
 489 821 508 811 507 785 c 0x10
697 785 m 0
 697 758 671 734 644 734 c 0
 627 734 608 746 608 770 c 0
 608 796 634 821 661 821 c 0
 679 821 698 811 697 785 c 0
EndSplineSet
Position2: "'cpsp' Capital Spacing lookup 0 subtable" dx=7 dy=0 dh=14 dv=0
EndChar

StartChar: adieresis
Encoding: 228 228 160
Width: 500
Flags: MW
HStem: -10 21G<179 233.5 400.5 431.5> 421 20G<300.5 335.5 267.5 352> 558 87<315.5 325.5 475.5 485.5>
VStem: 98 62<97.5 125 94 215>
LayerCount: 2
Fore
SplineSet
513 143 m 0
 513 140 501 83 484 48 c 0
 471 19 451 -10 412 -10 c 0
 389 -10 344 0 333 61 c 1
 295 16 254 -10 213 -10 c 0
 145 -10 98 53 98 142 c 0
 98 288 213 441 322 441 c 0
 349 441 383 429 402 382 c 1
 403 383 l 1
 403 383 410 422 442 422 c 0
 460 422 468 409 468 398 c 2
 468 398 468 393 465 382 c 2
 395 103 l 2
 391 88 387 65 387 50 c 0
 387 31 392 10 414 10 c 0
 442 10 461 45 481 128 c 0
 487 151 488 152 500 152 c 0
 504 152 513 152 513 143 c 0
339 121 m 2
 386 311 l 1
 389 325 l 2
 389 332 382 421 322 421 c 0
 279 421 234 370 208 308 c 0
 192 268 160 150 160 100 c 0
 160 88 162 10 215 10 c 0
 273 10 333 95 339 121 c 2
365 609 m 0x20
 365 582 339 558 312 558 c 0
 295 558 276 570 276 594 c 0
 276 620 302 645 329 645 c 0
 347 645 365 635 365 609 c 0x20
525 609 m 0
 525 582 499 558 472 558 c 0
 455 558 436 570 436 594 c 0
 436 620 462 645 489 645 c 0
 507 645 525 635 525 609 c 0
EndSplineSet
EndChar

StartChar: Adotbelow
Encoding: 7840 7840 161
Width: 727
Flags: MW
HStem: 0 29<213 233 459 466 643 662> 234 29<299 512 299 514 282 512> 694 20G<534 548>
LayerCount: 2
Fore
SplineSet
677 18 m 0
 677 0 665 0 659 0 c 0
 627 0 593 2 560 2 c 0
 526 2 490 0 457 0 c 0
 453 0 443 0 443 10 c 0
 443 29 452 29 466 29 c 0
 528 30 526 57 525 73 c 2
 514 234 l 1
 282 234 l 1
 209 105 l 2
 200 89 192 76 192 62 c 0
 192 43 206 31 230 29 c 0
 236 29 244 28 244 19 c 0
 244 0 233 0 226 0 c 0
 200 0 171 2 144 2 c 0
 119 2 92 0 68 0 c 1
 68 0 56 0 56 10 c 0
 56 27 64 28 75 29 c 0
 125 34 153 57 184 112 c 2
 517 696 l 2
 524 708 527 714 541 714 c 0
 555 714 556 711 557 690 c 2
 601 62 l 2
 603 36 608 29 657 29 c 0
 670 29 677 29 677 18 c 0
512 263 m 1
 489 596 l 1
 299 263 l 1
 512 263 l 1
375 -143 m 0
 375 -173 346 -200 316 -200 c 0
 297 -200 276 -187 276 -160 c 0
 276 -131 305 -103 335 -103 c 0
 355 -103 375 -115 375 -143 c 0
EndSplineSet
Position2: "'cpsp' Capital Spacing lookup 0 subtable" dx=7 dy=0 dh=14 dv=0
EndChar

StartChar: adotbelow
Encoding: 7841 7841 162
Width: 500
Flags: MW
HStem: -10 21G<179 233.5 400.5 431.5> 421 20G<300.5 335.5 267.5 352>
VStem: 98 62<97.5 125 94 215>
LayerCount: 2
Fore
SplineSet
513 143 m 0
 513 140 501 83 484 48 c 0
 471 19 451 -10 412 -10 c 0
 389 -10 344 0 333 61 c 1
 295 16 254 -10 213 -10 c 0
 145 -10 98 53 98 142 c 0
 98 288 213 441 322 441 c 0
 349 441 383 429 402 382 c 1
 403 383 l 1
 403 383 410 422 442 422 c 0
 460 422 468 409 468 398 c 2
 468 398 468 393 465 382 c 2
 395 103 l 2
 391 88 387 65 387 50 c 0
 387 31 392 10 414 10 c 0
 442 10 461 45 481 128 c 0
 487 151 488 152 500 152 c 0
 504 152 513 152 513 143 c 0
339 121 m 2
 386 311 l 1
 389 325 l 2
 389 332 382 421 322 421 c 0
 279 421 234 370 208 308 c 0
 192 268 160 150 160 100 c 0
 160 88 162 10 215 10 c 0
 273 10 333 95 339 121 c 2
262 -143 m 0
 262 -173 233 -200 203 -200 c 0
 184 -200 163 -187 163 -160 c 0
 163 -131 192 -103 222 -103 c 0
 242 -103 262 -115 262 -143 c 0
EndSplineSet
EndChar

StartChar: AE
Encoding: 198 198 163
Width: 863
Flags: MW
HStem: 0 29<213 234 353.5 361 361 382 511 604 604 675.5> 314 29<347 478 331 486 555 631> 654 29<444 907 455 469 655.5 672 672 763>
LayerCount: 2
Fore
SplineSet
873 246 m 2
 873 246 873 243 869 234 c 2
 781 16 l 2
 775 1 774 0 754 0 c 2
 361 0 l 2
 345 0 337 0 337 10 c 0
 337 29 346 29 361 29 c 0
 403 29 409 37 417 68 c 2
 478 314 l 1
 331 314 l 1
 208 103 l 2
 206 100 193 77 193 62 c 0
 193 38 213 31 231 29 c 0
 237 29 244 28 244 18 c 0
 244 0 232 0 226 0 c 0
 200 0 171 2 144 2 c 0
 88 2 68 0 68 0 c 2
 59 0 57 6 57 10 c 0
 57 27 65 28 75 29 c 0
 108 32 145 41 185 111 c 2
 498 653 l 1
 490 654 478 654 469 654 c 2
 452 654 l 2
 436 654 428 654 428 664 c 0
 428 683 437 683 455 683 c 2
 907 683 l 2
 928 683 933 683 930 658 c 2
 906 482 l 2
 903 463 903 460 890 460 c 0
 887 460 877 460 877 470 c 0
 877 473 879 490 879 495 c 0
 882 517 885 539 885 561 c 0
 885 618 870 654 763 654 c 2
 672 654 l 2
 639 654 632 654 623 616 c 2
 555 343 l 1
 634 343 l 2
 715 343 731 368 750 443 c 0
 754 457 755 460 767 460 c 0
 770 460 780 460 780 450 c 2
 722 214 l 2
 719 200 717 197 706 197 c 0
 701 197 692 197 692 208 c 2
 692 208 692 210 694 218 c 0
 702 251 703 262 703 272 c 0
 703 300 693 314 631 314 c 2
 548 314 l 1
 485 61 l 2
 481 47 481 45 481 41 c 0
 481 30 482 29 511 29 c 2
 604 29 l 2
 747 29 782 93 834 220 c 0
 839 231 847 251 849 253 c 0
 852 256 855 256 860 256 c 0
 863 256 873 256 873 246 c 2
486 343 m 1
 552 610 l 2
 556 624 556 626 556 630 c 0
 556 639 552 651 526 651 c 1
 347 343 l 1
 486 343 l 1
EndSplineSet
Position2: "'cpsp' Capital Spacing lookup 0 subtable" dx=7 dy=0 dh=14 dv=0
EndChar

StartChar: ae
Encoding: 230 230 164
Width: 699
Flags: W
HStem: -9 20<200.645 257.871 466.505 550.03> 233 20<440 570.364> 421 20<300.859 364.847 560.762 639.253>
VStem: 110 61<48.8733 226.792> 668 35<306.779 402.409>
LayerCount: 2
Fore
SplineSet
377 117 m 1
 342 72 300 -9 225 -9 c 0
 138 -9 110 79 110 145 c 0
 110 259 195 441 332 441 c 0
 371 441 398 419 419 382 c 1
 422 405 429 441 458 441 c 0
 470 441 480 434 480 419 c 0
 480 408 475 396 473 387 c 1
 511 415 556 441 604 441 c 0
 661 441 703 407 703 358 c 0
 703 238 550 233 456 233 c 2
 434 233 l 1
 429 199 420 166 420 132 c 0
 420 82 439 11 502 11 c 0
 553 11 599 45 633 81 c 0
 644 93 658 121 668 121 c 0
 674 121 681 114 682 108 c 2
 682 106 l 2
 682 97 672 86 667 80 c 0
 628 31 567 -9 502 -9 c 0
 436 -9 381 47 377 117 c 1
405 328 m 1
 405 332 l 2
 405 370 377 421 334 421 c 2
 329 421 l 2
 302 419 281 401 263 382 c 0
 222 339 206 280 192 224 c 0
 183 185 173 145 171 104 c 0
 171 62 186 11 226 11 c 0
 280 11 353 99 373 171 c 0
 375 179 374 187 375 195 c 0
 381 240 401 284 405 328 c 1
440 253 m 1
 452 253 l 2
 526 253 668 256 668 359 c 0
 668 392 644 421 605 421 c 0
 525 421 457 332 440 253 c 1
EndSplineSet
EndChar

StartChar: AEacute
Encoding: 508 508 165
Width: 863
Flags: MW
HStem: 0 29<213 234 353.5 361 361 382 511 604 604 675.5> 314 29<347 478 331 486 555 631> 654 29<444 907 455 469 655.5 672 672 763> 744 21G 881 20G<751.5 767>
LayerCount: 2
Fore
SplineSet
873 246 m 2
 873 246 873 243 869 234 c 2
 781 16 l 2
 775 1 774 0 754 0 c 2
 361 0 l 2
 345 0 337 0 337 10 c 0
 337 29 346 29 361 29 c 0
 403 29 409 37 417 68 c 2
 478 314 l 1
 331 314 l 1
 208 103 l 2
 206 100 193 77 193 62 c 0
 193 38 213 31 231 29 c 0
 237 29 244 28 244 18 c 0
 244 0 232 0 226 0 c 0
 200 0 171 2 144 2 c 0
 88 2 68 0 68 0 c 2
 59 0 57 6 57 10 c 0
 57 27 65 28 75 29 c 0
 108 32 145 41 185 111 c 2
 498 653 l 1
 490 654 478 654 469 654 c 2
 452 654 l 2
 436 654 428 654 428 664 c 0
 428 683 437 683 455 683 c 2
 907 683 l 2
 928 683 933 683 930 658 c 2
 906 482 l 2
 903 463 903 460 890 460 c 0
 887 460 877 460 877 470 c 0
 877 473 879 490 879 495 c 0
 882 517 885 539 885 561 c 0
 885 618 870 654 763 654 c 2
 672 654 l 2
 639 654 632 654 623 616 c 2
 555 343 l 1
 634 343 l 2
 715 343 731 368 750 443 c 0
 754 457 755 460 767 460 c 0
 770 460 780 460 780 450 c 2
 722 214 l 2
 719 200 717 197 706 197 c 0
 701 197 692 197 692 208 c 2
 692 208 692 210 694 218 c 0
 702 251 703 262 703 272 c 0
 703 300 693 314 631 314 c 2
 548 314 l 1
 485 61 l 2
 481 47 481 45 481 41 c 0
 481 30 482 29 511 29 c 2
 604 29 l 2
 747 29 782 93 834 220 c 0
 839 231 847 251 849 253 c 0
 852 256 855 256 860 256 c 0
 863 256 873 256 873 246 c 2
486 343 m 1
 552 610 l 2
 556 624 556 626 556 630 c 0
 556 639 552 651 526 651 c 1
 347 343 l 1
 486 343 l 1
784 870 m 0x18
 782 855 767 847 759 844 c 2
 580 747 l 2
 576 745 570 743 566 744 c 0
 561 745 553 753 555 761 c 0
 555 764 556 766 566 772 c 2
 732 892 l 1
 732 892 745 901 758 901 c 0
 776 901 787 888 784 870 c 0x18
EndSplineSet
Position2: "'cpsp' Capital Spacing lookup 0 subtable" dx=7 dy=0 dh=14 dv=0
EndChar

StartChar: aeacute
Encoding: 509 509 166
Width: 700
Flags: MW
HStem: -10 20<211 249.5 471 523.5> 232 20<440 468 468 479 434 468> 421 20<579.5 626> 507 21G<435.5 440> 676 20G<597 611.5>
VStem: 92 67<66 104.5> 669 34<310 376.5>
LayerCount: 2
Fore
SplineSet
682 105 m 0
 682 92 607 -10 500 -10 c 0
 439 -10 406 32 392 63 c 1
 380 16 l 2
 374 -5 360 -10 350 -10 c 0
 334 -10 327 2 327 11 c 0
 327 15 334 44 337 58 c 1
 317 35 277 -10 222 -10 c 0
 151 -10 92 33 92 99 c 0
 92 110 92 287 428 416 c 1
 434 441 458 441 458 441 c 1
 472 441 480 433 480 419 c 0
 480 412 475 393 473 386 c 1
 501 410 552 441 607 441 c 0
 666 441 703 403 703 358 c 0
 703 232 519 232 479 232 c 2
 434 232 l 1
 420 171 420 136 420 132 c 0
 420 76 441 10 501 10 c 0
 546 10 608 38 657 111 c 0
 663 119 664 120 668 120 c 0
 674 120 682 112 682 105 c 0
669 359 m 0
 669 394 646 421 606 421 c 0
 552 421 470 371 440 252 c 1
 468 252 l 2
 533 252 669 261 669 359 c 0
360 144 m 2
 421 391 l 1
 241 315 159 161 159 74 c 0
 159 25 197 10 225 10 c 0
 292 10 354 119 360 144 c 2
631 669 m 0x18
 631 654 618 644 611 639 c 2
 451 513 l 2
 448 510 442 507 438 507 c 0
 433 507 424 514 424 522 c 0
 424 525 424 527 433 535 c 2
 576 682 l 1
 576 682 590 696 604 696 c 0
 619 696 631 684 631 669 c 0x18
EndSplineSet
EndChar

StartChar: Agrave
Encoding: 192 192 167
Width: 727
Flags: MW
HStem: 0 29<213 233 459 466 643 662> 234 29<299 512 299 514 282 512> 694 20G<534 548> 744 21G 881 20G<479 494.5>
LayerCount: 2
Fore
SplineSet
677 18 m 0
 677 0 665 0 659 0 c 0
 627 0 593 2 560 2 c 0
 526 2 490 0 457 0 c 0
 453 0 443 0 443 10 c 0
 443 29 452 29 466 29 c 0
 528 30 526 57 525 73 c 2
 514 234 l 1
 282 234 l 1
 209 105 l 2
 200 89 192 76 192 62 c 0
 192 43 206 31 230 29 c 0
 236 29 244 28 244 19 c 0
 244 0 233 0 226 0 c 0
 200 0 171 2 144 2 c 0
 119 2 92 0 68 0 c 1
 68 0 56 0 56 10 c 0
 56 27 64 28 75 29 c 0
 125 34 153 57 184 112 c 2
 517 696 l 2
 524 708 527 714 541 714 c 0
 555 714 556 711 557 690 c 2
 601 62 l 2
 603 36 608 29 657 29 c 0
 670 29 677 29 677 18 c 0
512 263 m 1
 489 596 l 1
 299 263 l 1
 512 263 l 1
621 761 m 0x18
 619 753 607 745 602 744 c 0
 597 743 592 745 589 747 c 2
 459 844 l 2
 452 847 441 855 447 870 c 0
 452 888 470 901 488 901 c 0
 501 901 510 892 510 892 c 1
 616 772 l 2
 623 766 623 764 621 761 c 0x18
EndSplineSet
Position2: "'cpsp' Capital Spacing lookup 0 subtable" dx=7 dy=0 dh=14 dv=0
EndChar

StartChar: agrave
Encoding: 224 224 168
Width: 500
Flags: MW
HStem: -10 21G<179 233.5 400.5 431.5> 421 20G<300.5 335.5 267.5 352> 507 21G<414 418.5> 676 20G<336.5 351>
VStem: 98 62<97.5 125 94 215>
LayerCount: 2
Fore
SplineSet
513 143 m 0
 513 140 501 83 484 48 c 0
 471 19 451 -10 412 -10 c 0
 389 -10 344 0 333 61 c 1
 295 16 254 -10 213 -10 c 0
 145 -10 98 53 98 142 c 0
 98 288 213 441 322 441 c 0
 349 441 383 429 402 382 c 1
 403 383 l 1
 403 383 410 422 442 422 c 0
 460 422 468 409 468 398 c 2
 468 398 468 393 465 382 c 2
 395 103 l 2
 391 88 387 65 387 50 c 0
 387 31 392 10 414 10 c 0
 442 10 461 45 481 128 c 0
 487 151 488 152 500 152 c 0
 504 152 513 152 513 143 c 0
339 121 m 2
 386 311 l 1
 389 325 l 2
 389 332 382 421 322 421 c 0
 279 421 234 370 208 308 c 0
 192 268 160 150 160 100 c 0
 160 88 162 10 215 10 c 0
 273 10 333 95 339 121 c 2
437 522 m 0x30
 433 514 421 507 416 507 c 0
 412 507 407 510 406 513 c 2
 309 639 l 2
 304 644 296 654 304 669 c 0
 311 684 329 696 344 696 c 0
 358 696 365 682 365 682 c 1
 435 535 l 2
 440 527 439 525 437 522 c 0x30
EndSplineSet
EndChar

StartChar: Ahookabove
Encoding: 7842 7842 169
Width: 727
Flags: MW
HStem: 0 29<213 233 459 466 643 662> 234 29<299 512 299 514 282 512> 694 20G<534 548> 755 21G<546 548 546 546> 946 20G<576 610.5>
LayerCount: 2
Fore
SplineSet
677 18 m 0
 677 0 665 0 659 0 c 0
 627 0 593 2 560 2 c 0
 526 2 490 0 457 0 c 0
 453 0 443 0 443 10 c 0
 443 29 452 29 466 29 c 0
 528 30 526 57 525 73 c 2
 514 234 l 1
 282 234 l 1
 209 105 l 2
 200 89 192 76 192 62 c 0
 192 43 206 31 230 29 c 0
 236 29 244 28 244 19 c 0
 244 0 233 0 226 0 c 0
 200 0 171 2 144 2 c 0
 119 2 92 0 68 0 c 1
 68 0 56 0 56 10 c 0
 56 27 64 28 75 29 c 0
 125 34 153 57 184 112 c 2
 517 696 l 2
 524 708 527 714 541 714 c 0
 555 714 556 711 557 690 c 2
 601 62 l 2
 603 36 608 29 657 29 c 0
 670 29 677 29 677 18 c 0
512 263 m 1
 489 596 l 1
 299 263 l 1
 512 263 l 1
676 898 m 0x18
 672 880 658 865 640 856 c 0
 599 835 569 811 561 780 c 2
 556 761 l 2
 555 757 552 755 548 755 c 2
 546 755 l 2
 543 756 540 759 540 763 c 2
 541 765 l 1
 545 784 l 2
 554 817 578 847 610 870 c 0
 620 877 627 889 630 901 c 0
 633 913 634 920 634 926 c 0
 634 931 633 935 631 938 c 0
 626 946 613 950 597 950 c 0
 573 950 549 939 534 923 c 1
 543 921 550 915 550 904 c 2
 550 904 550 900 549 897 c 0
 546 884 533 875 521 875 c 0
 510 875 501 883 501 895 c 2
 501 901 l 1
 502 902 l 1
 511 940 555 966 597 966 c 0
 624 966 646 962 662 949 c 0
 672 940 678 927 678 913 c 0
 678 908 677 903 676 898 c 0x18
EndSplineSet
Position2: "'cpsp' Capital Spacing lookup 0 subtable" dx=7 dy=0 dh=14 dv=0
EndChar

StartChar: ahookabove
Encoding: 7843 7843 170
Width: 500
Flags: MW
HStem: -10 21G<179 233.5 400.5 431.5> 421 20G<300.5 335.5 267.5 352> 496 21G<368 370 368 368> 687 20G<398 432.5>
VStem: 98 62<97.5 125 94 215>
LayerCount: 2
Fore
SplineSet
513 143 m 0
 513 140 501 83 484 48 c 0
 471 19 451 -10 412 -10 c 0
 389 -10 344 0 333 61 c 1
 295 16 254 -10 213 -10 c 0
 145 -10 98 53 98 142 c 0
 98 288 213 441 322 441 c 0
 349 441 383 429 402 382 c 1
 403 383 l 1
 403 383 410 422 442 422 c 0
 460 422 468 409 468 398 c 2
 468 398 468 393 465 382 c 2
 395 103 l 2
 391 88 387 65 387 50 c 0
 387 31 392 10 414 10 c 0
 442 10 461 45 481 128 c 0
 487 151 488 152 500 152 c 0
 504 152 513 152 513 143 c 0
339 121 m 2
 386 311 l 1
 389 325 l 2
 389 332 382 421 322 421 c 0
 279 421 234 370 208 308 c 0
 192 268 160 150 160 100 c 0
 160 88 162 10 215 10 c 0
 273 10 333 95 339 121 c 2
498 639 m 0x30
 494 621 480 606 462 597 c 0
 421 576 391 552 383 521 c 2
 378 502 l 2
 377 498 374 496 370 496 c 2
 368 496 l 2
 365 497 362 500 362 504 c 2
 363 506 l 1
 367 525 l 2
 376 558 400 588 432 611 c 0
 442 618 449 630 452 642 c 0
 455 654 456 661 456 667 c 0
 456 672 455 676 453 679 c 0
 448 687 435 691 419 691 c 0
 395 691 371 680 356 664 c 1
 365 662 372 656 372 645 c 2
 372 645 372 641 371 638 c 0
 368 625 355 616 343 616 c 0
 332 616 323 624 323 636 c 2
 323 642 l 1
 324 643 l 1
 333 681 377 707 419 707 c 0
 446 707 468 703 484 690 c 0
 494 681 500 668 500 654 c 0
 500 649 499 644 498 639 c 0x30
EndSplineSet
EndChar

StartChar: Alpha
Encoding: 913 913 171
Width: 727
Flags: MW
HStem: 0 29<213 233 459 466 643 662> 234 29<299 512 299 514 282 512> 694 20G<534 548>
LayerCount: 2
Fore
SplineSet
677 18 m 0
 677 0 665 0 659 0 c 0
 627 0 593 2 560 2 c 0
 526 2 490 0 457 0 c 0
 453 0 443 0 443 10 c 0
 443 29 452 29 466 29 c 0
 528 30 526 57 525 73 c 2
 514 234 l 1
 282 234 l 1
 209 105 l 2
 200 89 192 76 192 62 c 0
 192 43 206 31 230 29 c 0
 236 29 244 28 244 19 c 0
 244 0 233 0 226 0 c 0
 200 0 171 2 144 2 c 0
 119 2 92 0 68 0 c 1
 68 0 56 0 56 10 c 0
 56 27 64 28 75 29 c 0
 125 34 153 57 184 112 c 2
 517 696 l 2
 524 708 527 714 541 714 c 0
 555 714 556 711 557 690 c 2
 601 62 l 2
 603 36 608 29 657 29 c 0
 670 29 677 29 677 18 c 0
512 263 m 1
 489 596 l 1
 299 263 l 1
 512 263 l 1
EndSplineSet
EndChar

StartChar: Amacron
Encoding: 256 256 172
Width: 727
Flags: MW
HStem: 0 29<213 233 459 466 643 662> 234 29<299 512 299 514 282 512> 694 20G<534 548> 754 28<409.5 694 420 692>
LayerCount: 2
Fore
SplineSet
677 18 m 0
 677 0 665 0 659 0 c 0
 627 0 593 2 560 2 c 0
 526 2 490 0 457 0 c 0
 453 0 443 0 443 10 c 0
 443 29 452 29 466 29 c 0
 528 30 526 57 525 73 c 2
 514 234 l 1
 282 234 l 1
 209 105 l 2
 200 89 192 76 192 62 c 0
 192 43 206 31 230 29 c 0
 236 29 244 28 244 19 c 0
 244 0 233 0 226 0 c 0
 200 0 171 2 144 2 c 0
 119 2 92 0 68 0 c 1
 68 0 56 0 56 10 c 0
 56 27 64 28 75 29 c 0
 125 34 153 57 184 112 c 2
 517 696 l 2
 524 708 527 714 541 714 c 0
 555 714 556 711 557 690 c 2
 601 62 l 2
 603 36 608 29 657 29 c 0
 670 29 677 29 677 18 c 0
512 263 m 1
 489 596 l 1
 299 263 l 1
 512 263 l 1
718 772 m 0x10
 718 754 710 754 692 754 c 2
 418 754 l 2
 401 754 394 754 394 765 c 0
 394 782 403 782 420 782 c 2
 694 782 l 2
 710 782 718 782 718 772 c 0x10
EndSplineSet
Position2: "'cpsp' Capital Spacing lookup 0 subtable" dx=7 dy=0 dh=14 dv=0
EndChar

StartChar: amacron
Encoding: 257 257 173
Width: 500
Flags: MW
HStem: -10 21G<179 233.5 400.5 431.5> 421 20G<300.5 335.5 267.5 352> 588 28<254.5 539 265 537>
VStem: 98 62<97.5 125 94 215>
LayerCount: 2
Fore
SplineSet
513 143 m 0
 513 140 501 83 484 48 c 0
 471 19 451 -10 412 -10 c 0
 389 -10 344 0 333 61 c 1
 295 16 254 -10 213 -10 c 0
 145 -10 98 53 98 142 c 0
 98 288 213 441 322 441 c 0
 349 441 383 429 402 382 c 1
 403 383 l 1
 403 383 410 422 442 422 c 0
 460 422 468 409 468 398 c 2
 468 398 468 393 465 382 c 2
 395 103 l 2
 391 88 387 65 387 50 c 0
 387 31 392 10 414 10 c 0
 442 10 461 45 481 128 c 0
 487 151 488 152 500 152 c 0
 504 152 513 152 513 143 c 0
339 121 m 2
 386 311 l 1
 389 325 l 2
 389 332 382 421 322 421 c 0
 279 421 234 370 208 308 c 0
 192 268 160 150 160 100 c 0
 160 88 162 10 215 10 c 0
 273 10 333 95 339 121 c 2
563 606 m 0x20
 563 588 555 588 537 588 c 2
 263 588 l 2
 246 588 239 588 239 599 c 0
 239 616 248 616 265 616 c 2
 539 616 l 2
 555 616 563 616 563 606 c 0x20
EndSplineSet
EndChar

StartChar: anglearc
Encoding: 8738 8738 174
Width: 750
Flags: MW
HStem: -51 21G<428 435.5> 531 20G<578 586>
LayerCount: 2
Fore
SplineSet
679 18 m 0
 676 5 661 -4 650 1 c 2
 534 55 l 1
 509 19 481 -14 448 -44 c 0
 444 -48 438 -51 433 -51 c 0
 423 -51 417 -43 419 -33 c 0
 420 -29 423 -25 426 -22 c 0
 455 6 481 36 504 68 c 1
 144 233 l 2
 139 236 136 242 138 250 c 0
 139 258 146 264 153 267 c 2
 595 432 l 1
 588 464 577 494 562 522 c 0
 560 525 560 529 561 533 c 0
 563 543 573 551 583 551 c 0
 589 551 593 548 596 544 c 0
 612 514 625 481 632 445 c 1
 774 499 l 2
 787 504 798 495 795 482 c 0
 793 474 787 468 780 465 c 2
 637 412 l 1
 643 361 639 306 626 250 c 0
 612 194 588 139 556 88 c 1
 672 35 l 2
 678 32 681 26 679 18 c 0
590 250 m 0
 602 301 606 351 600 398 c 1
 203 250 l 1
 526 102 l 1
 555 149 577 199 590 250 c 0
EndSplineSet
EndChar

StartChar: angleleft
Encoding: 9001 9001 175
Width: 400
Flags: MW
HStem: -250 21G<239 266> 730 20G<484 484> 731 20G<489 493.5>
LayerCount: 2
Fore
SplineSet
266 -233 m 2x20
 265 -242 256 -250 247 -250 c 0
 231 -250 228 -233 228 -220 c 2
 192 186 l 1
 188 231 l 2
 187 236 186 242 186 247 c 0
 186 262 198 275 205 287 c 2
 452 707 l 2
 460 721 470 746 484 750 c 2xc0
 489 751 l 2
 498 751 506 743 507 734 c 0
 507 729 505 724 502 719 c 2
 244 280 l 1
 232 259 l 2
 229 255 226 250 225 245 c 2
 225 239 l 2
 225 234 225 229 226 225 c 2
 262 -181 l 2
 264 -196 266 -214 266 -229 c 2
 266 -233 l 2x20
EndSplineSet
EndChar

StartChar: angleright
Encoding: 9002 9002 176
Width: 400
Flags: MW
HStem: -250 21G<17 44> 730 20G<272 276 276 284>
VStem: 258 38<721 734> 259 37<717 727.5> 300 37<255 266 250.5 272>
LayerCount: 2
Fore
SplineSet
337 255 m 0x50
 337 246 334 239 329 231 c 2
 317 211 l 1
 277 143 l 1
 70 -209 l 2
 61 -224 52 -250 36 -250 c 0
 26 -250 17 -241 17 -231 c 2
 17 -229 l 2
 18 -222 22 -217 26 -211 c 2
 281 223 l 2
 287 234 300 249 300 261 c 0
 300 283 296 306 293 328 c 2
 262 687 l 1
 259 717 l 2x98
 259 723 258 728 258 734 c 0x20
 259 742 264 748 272 750 c 2
 276 750 l 2
 292 750 296 734 296 721 c 2
 299 694 l 1
 331 324 l 2
 334 302 337 277 337 255 c 0x50
EndSplineSet
EndChar

StartChar: Aogonek
Encoding: 260 260 177
Width: 727
Flags: MW
HStem: -211 47<544 553> 0 29<213 233 459 466 659 662> 234 29<299 512 299 514 282 512>
VStem: 56 188<9.5 18.5>
LayerCount: 2
Fore
SplineSet
667 -115 m 0
 639 -172 578 -211 528 -211 c 0
 464 -211 427 -167 437 -121 c 0
 448 -69 494 -31 548 2 c 1
 518 2 486 0 457 0 c 0
 453 0 443 0 443 10 c 0
 443 29 452 29 466 29 c 0
 528 30 526 57 525 73 c 2
 514 234 l 1
 282 234 l 1
 209 105 l 2
 200 89 192 76 192 62 c 0
 192 43 206 31 230 29 c 0
 236 29 244 28 244 19 c 0
 244 0 233 0 226 0 c 0
 200 0 171 2 144 2 c 0
 119 2 92 0 68 0 c 1
 68 0 56 0 56 10 c 0
 56 27 64 28 75 29 c 0
 125 34 153 57 184 112 c 2
 517 696 l 2
 524 708 527 714 541 714 c 0
 555 714 556 711 557 690 c 2
 601 62 l 2
 603 36 608 29 657 29 c 0
 670 29 677 29 677 18 c 0
 677 0 665 0 659 0 c 2
 586 2 l 1
 546 -22 499 -55 490 -95 c 0
 480 -141 526 -164 562 -164 c 0
 594 -164 627 -144 651 -108 c 0
 658 -98 672 -103 667 -115 c 0
512 263 m 1
 489 596 l 1
 299 263 l 1
 512 263 l 1
EndSplineSet
Position2: "'cpsp' Capital Spacing lookup 0 subtable" dx=7 dy=0 dh=14 dv=0
EndChar

StartChar: aogonek
Encoding: 261 261 178
Width: 500
Flags: MW
HStem: -211 47<344 353> -10 20<188.5 233.5 407.5 428> 421 20G<300.5 335.5 267.5 352>
VStem: 98 62<97.5 125 94 215> 389 79<325 403.5>
LayerCount: 2
Fore
SplineSet
467 -115 m 0
 439 -172 378 -211 328 -211 c 0
 264 -211 227 -167 237 -121 c 0
 248 -69 304 -22 358 11 c 1
 347 21 337 37 333 61 c 1
 295 16 254 -10 213 -10 c 0
 145 -10 98 53 98 142 c 0
 98 288 213 441 322 441 c 0
 349 441 383 429 402 382 c 1
 403 383 l 1
 403 383 410 422 442 422 c 0
 460 422 468 409 468 398 c 2
 468 398 468 393 465 382 c 2
 395 103 l 2
 391 88 387 65 387 50 c 0
 387 31 392 10 414 10 c 0
 442 10 461 45 481 128 c 0
 487 151 488 152 500 152 c 0
 504 152 513 152 513 143 c 0
 513 140 501 83 484 48 c 0
 471 19 451 -10 412 -10 c 0
 403 -10 390 -8 378 -2 c 1
 338 -26 299 -55 290 -95 c 0
 280 -141 326 -164 362 -164 c 0
 394 -164 427 -144 451 -108 c 0
 458 -98 472 -103 467 -115 c 0
339 121 m 2
 386 311 l 1
 389 325 l 2
 389 332 382 421 322 421 c 0
 279 421 234 370 208 308 c 0
 192 268 160 150 160 100 c 0
 160 88 162 10 215 10 c 0
 273 10 333 95 339 121 c 2
EndSplineSet
EndChar

StartChar: Aring
Encoding: 197 197 179
Width: 727
Flags: MW
HStem: 0 29<213 233 459 466 643 662> 234 29<299 512 299 514 282 512> 714 28<541.5 570.5 541.5 548> 862 28<557.5 591.5>
VStem: 472 33<763 779 762.5 808.5> 623 33<823 838.5>
LayerCount: 2
Fore
SplineSet
677 18 m 0
 677 0 665 0 659 0 c 0
 627 0 593 2 560 2 c 0
 526 2 490 0 457 0 c 0
 453 0 443 0 443 10 c 0
 443 29 452 29 466 29 c 0
 528 30 526 57 525 73 c 2
 514 234 l 1
 282 234 l 1
 209 105 l 2
 200 89 192 76 192 62 c 0
 192 43 206 31 230 29 c 0
 236 29 244 28 244 19 c 0
 244 0 233 0 226 0 c 0
 200 0 171 2 144 2 c 0
 119 2 92 0 68 0 c 1
 68 0 56 0 56 10 c 0
 56 27 64 28 75 29 c 0
 125 34 153 57 184 112 c 2
 517 696 l 2
 524 708 527 714 541 714 c 0
 555 714 556 711 557 690 c 2
 601 62 l 2
 603 36 608 29 657 29 c 0
 670 29 677 29 677 18 c 0
512 263 m 1
 489 596 l 1
 299 263 l 1
 512 263 l 1
623 825 m 0x3c
 623 852 604 862 579 862 c 0
 507 862 505 779 505 779 c 1
 505 746 533 742 550 742 c 0
 609 742 623 809 623 825 c 0x3c
656 823 m 0
 655 766 598 714 543 714 c 0
 497 714 472 745 472 781 c 0
 472 836 529 890 586 890 c 0
 631 890 656 860 656 823 c 0
EndSplineSet
Position2: "'cpsp' Capital Spacing lookup 0 subtable" dx=7 dy=0 dh=14 dv=0
EndChar

StartChar: aring
Encoding: 229 229 180
Width: 500
Flags: MW
HStem: -10 21G<179 233.5 400.5 431.5> 421 20G<300.5 335.5 267.5 352> 527 28<381.5 410.5> 675 28<397.5 431.5>
VStem: 98 62<97.5 125 94 215> 312 33<576 592 575.5 621.5> 463 33<636 651.5>
LayerCount: 2
Fore
SplineSet
513 143 m 0
 513 140 501 83 484 48 c 0
 471 19 451 -10 412 -10 c 0
 389 -10 344 0 333 61 c 1
 295 16 254 -10 213 -10 c 0
 145 -10 98 53 98 142 c 0
 98 288 213 441 322 441 c 0
 349 441 383 429 402 382 c 1
 403 383 l 1
 403 383 410 422 442 422 c 0
 460 422 468 409 468 398 c 2
 468 398 468 393 465 382 c 2
 395 103 l 2
 391 88 387 65 387 50 c 0
 387 31 392 10 414 10 c 0
 442 10 461 45 481 128 c 0
 487 151 488 152 500 152 c 0
 504 152 513 152 513 143 c 0
339 121 m 2
 386 311 l 1
 389 325 l 2
 389 332 382 421 322 421 c 0
 279 421 234 370 208 308 c 0
 192 268 160 150 160 100 c 0
 160 88 162 10 215 10 c 0
 273 10 333 95 339 121 c 2
463 638 m 0x36
 463 665 444 675 419 675 c 0
 347 675 345 592 345 592 c 1
 345 559 373 555 390 555 c 0
 449 555 463 622 463 638 c 0x36
496 636 m 0
 495 579 438 527 383 527 c 0
 337 527 312 558 312 594 c 0
 312 649 369 703 426 703 c 0
 471 703 496 673 496 636 c 0
EndSplineSet
EndChar

StartChar: Aringacute
Encoding: 506 506 181
Width: 727
Flags: MW
HStem: 0 29<213 233 459 466 643 662> 234 29<299 512 299 514 282 512> 714 28<541.5 570.5 541.5 548> 862 28<557.5 591.5> 1047 20G<690.5 706>
VStem: 472 33<763 779 762.5 808.5> 623 33<823 838.5>
LayerCount: 2
Fore
SplineSet
677 18 m 0
 677 0 665 0 659 0 c 0
 627 0 593 2 560 2 c 0
 526 2 490 0 457 0 c 0
 453 0 443 0 443 10 c 0
 443 29 452 29 466 29 c 0
 528 30 526 57 525 73 c 2
 514 234 l 1
 282 234 l 1
 209 105 l 2
 200 89 192 76 192 62 c 0
 192 43 206 31 230 29 c 0
 236 29 244 28 244 19 c 0
 244 0 233 0 226 0 c 0
 200 0 171 2 144 2 c 0
 119 2 92 0 68 0 c 1
 68 0 56 0 56 10 c 0
 56 27 64 28 75 29 c 0
 125 34 153 57 184 112 c 2
 517 696 l 2
 524 708 527 714 541 714 c 0
 555 714 556 711 557 690 c 2
 601 62 l 2
 603 36 608 29 657 29 c 0
 670 29 677 29 677 18 c 0
512 263 m 1
 489 596 l 1
 299 263 l 1
 512 263 l 1
623 825 m 0x3e
 623 852 604 862 579 862 c 0
 507 862 505 779 505 779 c 1
 505 746 533 742 550 742 c 0
 609 742 623 809 623 825 c 0x3e
656 823 m 0
 655 766 598 714 543 714 c 0
 497 714 472 745 472 781 c 0
 472 836 529 890 586 890 c 0
 631 890 656 860 656 823 c 0
723 1036 m 0
 721 1021 706 1013 698 1010 c 2
 519 913 l 2
 515 911 509 909 505 910 c 0
 500 911 492 919 494 927 c 0
 494 930 495 932 505 938 c 2
 671 1058 l 1
 671 1058 684 1067 697 1067 c 0
 715 1067 726 1054 723 1036 c 0
EndSplineSet
Position2: "'cpsp' Capital Spacing lookup 0 subtable" dx=7 dy=0 dh=14 dv=0
EndChar

StartChar: aringacute
Encoding: 507 507 182
Width: 500
Flags: MW
HStem: -10 21G<179 233.5 400.5 431.5> 421 20G<300.5 335.5 267.5 352> 527 28<382.5 411.5> 675 28<398.5 432.5> 860 20G<531.5 547>
VStem: 98 62<97.5 125 94 215> 313 33<576 592 575.5 621.5> 464 33<636 651.5>
LayerCount: 2
Fore
SplineSet
513 143 m 0
 513 140 501 83 484 48 c 0
 471 19 451 -10 412 -10 c 0
 389 -10 344 0 333 61 c 1
 295 16 254 -10 213 -10 c 0
 145 -10 98 53 98 142 c 0
 98 288 213 441 322 441 c 0
 349 441 383 429 402 382 c 1
 403 383 l 1
 403 383 410 422 442 422 c 0
 460 422 468 409 468 398 c 2
 468 398 468 393 465 382 c 2
 395 103 l 2
 391 88 387 65 387 50 c 0
 387 31 392 10 414 10 c 0
 442 10 461 45 481 128 c 0
 487 151 488 152 500 152 c 0
 504 152 513 152 513 143 c 0
339 121 m 2
 386 311 l 1
 389 325 l 2
 389 332 382 421 322 421 c 0
 279 421 234 370 208 308 c 0
 192 268 160 150 160 100 c 0
 160 88 162 10 215 10 c 0
 273 10 333 95 339 121 c 2
464 638 m 0x3b
 464 665 445 675 420 675 c 0
 348 675 346 592 346 592 c 1
 346 559 374 555 391 555 c 0
 450 555 464 622 464 638 c 0x3b
497 636 m 0
 496 579 439 527 384 527 c 0
 338 527 313 558 313 594 c 0
 313 649 370 703 427 703 c 0
 472 703 497 673 497 636 c 0
564 849 m 0
 562 834 547 826 539 823 c 2
 360 726 l 2
 356 724 350 722 346 723 c 0
 341 724 333 732 335 740 c 0
 335 743 336 745 346 751 c 2
 512 871 l 1
 512 871 525 880 538 880 c 0
 556 880 567 867 564 849 c 0
EndSplineSet
EndChar

StartChar: uni2193
Encoding: 8595 8595 183
Width: 500
Flags: W
LayerCount: 2
Fore
SplineSet
478 74 m 2
 473 55 l 2
 472 51 468 47 464 46 c 0
 349 19 247 -75 213 -186 c 0
 211 -191 207 -194 202 -194 c 0
 197 -194 194 -191 195 -186 c 0
 216 -75 161 19 60 46 c 0
 56 47 54 51 55 55 c 2
 60 74 l 2
 61 80 68 84 73 83 c 0
 144 64 196 16 219 -51 c 1
 401 676 l 2
 407 701 444 701 438 676 c 2
 256 -51 l 1
 312 16 389 64 469 83 c 0
 475 84 479 80 478 74 c 2
EndSplineSet
EndChar

StartChar: uni2190
Encoding: 8592 8592 184
Width: 950
Flags: MW
HStem: -9 21G<277 287 277 277> 232 37<236 908 223 910> 490 20G<399 412>
VStem: 266 37<3.5 5 5 10 0.5 11.5> 267 37<26.5 67.5>
LayerCount: 2
Fore
SplineSet
937 253 m 0x68
 937 234 918 232 908 232 c 2
 223 232 l 1
 277 178 304 106 304 30 c 0x48
 304 23 304 17 303 10 c 2
 303 5 l 2
 303 -4 299 -9 287 -9 c 2
 277 -9 l 2
 268 -8 266 -1 266 8 c 0x90
 266 15 267 23 267 28 c 0
 267 107 235 176 172 224 c 0
 161 232 138 240 138 251 c 0
 138 256 142 259 146 261 c 0
 244 303 338 383 384 488 c 0
 389 499 390 510 408 510 c 0
 416 510 427 509 427 499 c 2
 427 497 l 2
 424 487 418 476 413 466 c 0
 374 385 309 318 236 269 c 1
 910 269 l 2
 922 269 936 267 937 253 c 0x68
EndSplineSet
EndChar

StartChar: uni2192
Encoding: 8594 8594 185
Width: 950
Flags: MW
HStem: -9 21G<661 674.5> 232 37<156 851 166 837> 491 20G<780.5 796.5>
VStem: 770 37<476 487 435 489 435 495>
LayerCount: 2
Fore
SplineSet
935 249 m 2
 935 245 931 242 927 240 c 0
 829 203 733 112 690 13 c 0
 685 1 684 -9 665 -9 c 0
 657 -9 647 -9 647 1 c 2
 647 4 l 2
 649 14 656 25 660 34 c 0
 702 117 764 177 837 232 c 1
 162 232 l 2
 150 232 137 234 137 248 c 0
 137 267 156 269 166 269 c 2
 851 269 l 1
 792 328 770 398 770 476 c 2
 770 489 l 2
 770 501 772 511 789 511 c 0
 804 511 808 506 808 497 c 0
 808 494 807 490 807 487 c 2
 807 474 l 2
 807 396 839 323 903 276 c 0
 912 270 935 260 935 251 c 2
 935 249 l 2
EndSplineSet
EndChar

StartChar: uni2191
Encoding: 8593 8593 186
Width: 500
Flags: W
LayerCount: 2
Fore
SplineSet
571 445 m 2
 566 426 l 2
 564 420 558 416 552 417 c 0
 482 436 429 484 406 551 c 1
 225 -176 l 2
 219 -201 182 -201 188 -176 c 2
 370 551 l 1
 314 484 237 436 157 417 c 0
 151 416 146 420 148 426 c 2
 153 445 l 2
 154 449 157 453 162 454 c 0
 277 481 378 575 413 686 c 0
 414 691 419 694 424 694 c 0
 429 694 432 691 431 686 c 0
 410 575 464 481 566 454 c 0
 570 453 572 449 571 445 c 2
EndSplineSet
EndChar

StartChar: asterisk.math
Encoding: 8727 8727 187
Width: 500
Flags: MW
HStem: 36 21G<253.5 273> 446 20G<351 370.5>
LayerCount: 2
Fore
SplineSet
455 163 m 2
 455 148 440 132 425 132 c 0
 415 132 407 142 401 148 c 2
 381 168 l 1
 317 231 l 1
 317 222 314 212 313 203 c 2
 294 93 l 2
 290 70 288 36 258 36 c 0
 249 36 240 43 240 53 c 0
 240 66 248 81 251 93 c 2
 277 172 l 2
 283 192 291 211 296 231 c 1
 275 215 252 201 230 187 c 0
 202 169 160 133 140 133 c 0
 130 133 122 141 122 151 c 0
 122 170 139 177 153 184 c 2
 293 251 l 1
 201 309 l 2
 191 316 173 323 169 335 c 1
 169 339 l 2
 169 354 184 370 199 370 c 0
 209 370 217 360 223 354 c 2
 243 334 l 1
 307 271 l 1
 307 280 310 290 311 299 c 2
 330 409 l 2
 334 432 336 466 366 466 c 0
 375 466 384 459 384 449 c 0
 384 436 376 421 373 409 c 2
 347 330 l 2
 341 310 333 291 328 271 c 1
 349 287 372 301 394 315 c 0
 422 333 464 369 484 369 c 0
 494 369 502 361 502 351 c 0
 502 332 485 325 471 318 c 2
 331 251 l 1
 423 193 l 2
 433 186 451 179 455 167 c 1
 455 163 l 2
EndSplineSet
EndChar

StartChar: Atilde
Encoding: 195 195 188
Width: 727
Flags: MW
HStem: 0 29<213 233 459 466 643 662> 234 29<299 512 299 514 282 512> 694 20G<534 548> 734 33<600.5 616.5> 734 96<581 708> 735 96<407 538> 798 33<502.5 517.5>
LayerCount: 2
Fore
SplineSet
677 18 m 0xe0
 677 0 665 0 659 0 c 0
 627 0 593 2 560 2 c 0
 526 2 490 0 457 0 c 0
 453 0 443 0 443 10 c 0
 443 29 452 29 466 29 c 0
 528 30 526 57 525 73 c 2
 514 234 l 1
 282 234 l 1
 209 105 l 2
 200 89 192 76 192 62 c 0
 192 43 206 31 230 29 c 0
 236 29 244 28 244 19 c 0
 244 0 233 0 226 0 c 0
 200 0 171 2 144 2 c 0
 119 2 92 0 68 0 c 1
 68 0 56 0 56 10 c 0
 56 27 64 28 75 29 c 0
 125 34 153 57 184 112 c 2
 517 696 l 2
 524 708 527 714 541 714 c 0
 555 714 556 711 557 690 c 2
 601 62 l 2
 603 36 608 29 657 29 c 0
 670 29 677 29 677 18 c 0xe0
512 263 m 1
 489 596 l 1
 299 263 l 1
 512 263 l 1
718 821 m 0x08
 718 812 639 734 594 734 c 0
 568 734 554 756 546 768 c 0
 531 792 524 798 511 798 c 0x12
 486 798 448 765 429 748 c 0
 416 735 414 735 410 735 c 0x04
 404 735 401 741 401 744 c 0
 401 752 480 831 525 831 c 0
 551 831 565 810 574 794 c 0
 586 775 594 767 607 767 c 0x12
 638 767 690 818 690 818 c 2
 696 824 703 830 708 830 c 2
 708 830 718 829 718 821 c 0x08
EndSplineSet
Position2: "'cpsp' Capital Spacing lookup 0 subtable" dx=7 dy=0 dh=14 dv=0
EndChar

StartChar: atilde
Encoding: 227 227 189
Width: 500
Flags: MW
HStem: -10 21G<179 233.5 400.5 431.5> 421 20G<300.5 335.5 267.5 352> 553 33<441.5 457.5> 553 96<422 549> 554 96<248 379> 617 33<343.5 358.5>
VStem: 98 62<97.5 125 94 215>
LayerCount: 2
Fore
SplineSet
513 143 m 0xc2
 513 140 501 83 484 48 c 0
 471 19 451 -10 412 -10 c 0
 389 -10 344 0 333 61 c 1
 295 16 254 -10 213 -10 c 0
 145 -10 98 53 98 142 c 0
 98 288 213 441 322 441 c 0
 349 441 383 429 402 382 c 1
 403 383 l 1
 403 383 410 422 442 422 c 0
 460 422 468 409 468 398 c 2
 468 398 468 393 465 382 c 2
 395 103 l 2
 391 88 387 65 387 50 c 0
 387 31 392 10 414 10 c 0
 442 10 461 45 481 128 c 0
 487 151 488 152 500 152 c 0
 504 152 513 152 513 143 c 0xc2
339 121 m 2
 386 311 l 1
 389 325 l 2
 389 332 382 421 322 421 c 0
 279 421 234 370 208 308 c 0
 192 268 160 150 160 100 c 0
 160 88 162 10 215 10 c 0
 273 10 333 95 339 121 c 2
559 640 m 0x10
 559 631 480 553 435 553 c 0
 409 553 395 575 387 587 c 0
 372 611 365 617 352 617 c 0x24
 327 617 289 584 270 567 c 0
 257 554 255 554 251 554 c 0x08
 245 554 242 560 242 563 c 0
 242 571 321 650 366 650 c 0
 392 650 406 629 415 613 c 0
 427 594 435 586 448 586 c 0x24
 479 586 531 637 531 637 c 2
 537 643 544 649 549 649 c 2
 549 649 559 648 559 640 c 0x10
EndSplineSet
EndChar

StartChar: baht
Encoding: 3647 3647 190
Width: 688
Flags: MW
HStem: 0 29<87 93 93 126.5 265 322 357 388 388 410> 345 20<315 408 309 413 441 446 446 480> 654 29<259 270.5 409.5 426 426 486 259 514 521 543>
VStem: 580 82<179.5 257.5>
LayerCount: 2
Fore
SplineSet
662 220 m 0
 662 114 547 0 410 0 c 2
 350 0 l 1
 343 -28 l 2
 341 -36 333 -42 326 -42 c 0
 318 -42 313 -36 315 -28 c 2
 322 0 l 1
 93 0 l 2
 77 0 69 0 69 10 c 0
 69 29 78 29 96 29 c 0
 157 29 163 37 172 72 c 2
 309 623 l 2
 311 629 311 632 311 638 c 0
 311 654 283 654 258 654 c 0
 239 654 232 654 232 664 c 0
 232 683 241 683 259 683 c 2
 493 683 l 1
 500 711 l 2
 502 719 510 725 518 725 c 0
 525 725 530 719 528 711 c 2
 521 683 l 1
 556 683 l 2
 665 683 720 618 720 548 c 0
 720 460 632 378 525 357 c 1
 603 347 662 298 662 220 c 0
639 553 m 0
 639 595 622 654 543 654 c 2
 514 654 l 1
 441 365 l 1
 446 365 l 2
 560 365 639 466 639 553 c 0
486 654 m 1
 426 654 l 2
 393 654 386 654 377 616 c 2
 315 365 l 1
 413 365 l 1
 486 654 l 1
580 232 m 0
 580 283 558 345 480 345 c 2
 436 345 l 1
 357 29 l 1
 388 29 l 2
 494 29 580 127 580 232 c 0
329 29 m 1
 408 345 l 1
 309 345 l 1
 239 61 l 2
 235 47 235 45 235 41 c 0
 235 30 236 29 265 29 c 2
 329 29 l 1
EndSplineSet
EndChar

StartChar: Beta
Encoding: 914 914 191
Width: 688
Flags: MW
HStem: 0 29<87 93 93 126.5 265 388 388 410> 345 20<315 446 446 480 309 446> 654 29<259 270.5 409.5 426 426 543>
VStem: 580 82<179.5 257.5>
LayerCount: 2
Fore
SplineSet
662 220 m 0
 662 114 547 0 410 0 c 2
 93 0 l 2
 77 0 69 0 69 10 c 0
 69 29 78 29 96 29 c 0
 157 29 163 37 172 72 c 2
 309 623 l 2
 311 629 311 632 311 638 c 0
 311 654 283 654 258 654 c 0
 239 654 232 654 232 664 c 0
 232 683 241 683 259 683 c 2
 556 683 l 2
 665 683 720 618 720 548 c 0
 720 460 632 378 525 357 c 1
 603 347 662 298 662 220 c 0
639 553 m 0
 639 595 622 654 543 654 c 2
 426 654 l 2
 393 654 386 654 377 616 c 2
 315 365 l 1
 446 365 l 2
 560 365 639 466 639 553 c 0
580 232 m 0
 580 283 558 345 480 345 c 2
 309 345 l 1
 239 61 l 2
 235 47 235 45 235 41 c 0
 235 30 236 29 265 29 c 2
 388 29 l 2
 494 29 580 127 580 232 c 0
EndSplineSet
EndChar

StartChar: blanksymbol
Encoding: 9250 9250 192
Width: 450
Flags: MW
HStem: -10 20<202.5 240.5 202.5 280> 421 20<309 349>
VStem: 114 52<92.5 125.5 85 145.5> 386 63<303 332.5 217.5 357.5>
LayerCount: 2
Fore
SplineSet
449 289 m 0
 449 146 336 -10 224 -10 c 0
 162 -10 114 45 114 140 c 0
 114 151 114 177 123 213 c 2
 195 500 l 1
 122 438 l 2
 118 435 114 433 110 433 c 0
 102 433 98 439 100 447 c 0
 100 451 103 454 106 456 c 2
 205 542 l 1
 224 618 l 2
 225 623 227 630 227 635 c 0
 227 645 227 654 177 654 c 0
 163 654 155 654 155 664 c 0
 155 682 164 683 178 684 c 2
 278 693 l 2
 294 694 301 693 301 684 c 0
 301 681 300 678 298 671 c 2
 282 609 l 1
 340 658 l 2
 343 661 347 662 351 662 c 0
 359 662 364 656 362 648 c 0
 361 645 359 641 356 639 c 2
 272 567 l 1
 227 385 l 1
 243 401 284 441 334 441 c 0
 403 441 449 376 449 289 c 0
332 108 m 0
 352 150 386 275 386 331 c 0
 386 384 367 421 331 421 c 0
 278 421 217 344 207 305 c 0
 204 295 202 285 199 275 c 0
 177 185 166 145 166 106 c 0
 166 64 180 10 225 10 c 0
 256 10 297 38 332 108 c 0
EndSplineSet
EndChar

StartChar: breve
Encoding: 728 728 193
Width: 500
Flags: MW
HStem: 517 33<358 410 358 437> 667 20G<287 298 540.5 547>
LayerCount: 2
Fore
SplineSet
554 678 m 0
 554 650 492 517 382 517 c 0
 310 517 279 577 279 634 c 0
 279 642 279 687 295 687 c 0
 301 687 305 683 305 678 c 0
 305 675 300 654 300 642 c 0
 300 591 331 550 385 550 c 0
 435 550 503 588 532 673 c 0
 535 683 537 687 544 687 c 0
 550 687 554 683 554 678 c 0
EndSplineSet
EndChar

StartChar: uni032E
Encoding: 814 814 194
Width: 0
Flags: MW
HStem: -236 33<-331 -279 -331 -252> -86 20G<-402 -391 -148.5 -142>
LayerCount: 2
Fore
SplineSet
-135 -75 m 0
 -135 -103 -197 -236 -307 -236 c 0
 -379 -236 -410 -176 -410 -119 c 0
 -410 -111 -410 -66 -394 -66 c 0
 -388 -66 -384 -70 -384 -75 c 0
 -384 -78 -389 -99 -389 -111 c 0
 -389 -162 -358 -203 -304 -203 c 0
 -254 -203 -186 -165 -157 -80 c 0
 -154 -70 -152 -66 -145 -66 c 0
 -139 -66 -135 -70 -135 -75 c 0
EndSplineSet
EndChar

StartChar: uni032F
Encoding: 815 815 195
Width: 0
Flags: MW
HStem: -236 21G<-434 -427.5 -185 -174> -99 33<-297 -245>
LayerCount: 2
Fore
SplineSet
-166 -183 m 0
 -166 -191 -166 -236 -182 -236 c 0
 -188 -236 -192 -232 -192 -227 c 0
 -192 -224 -187 -203 -187 -191 c 0
 -187 -140 -218 -99 -272 -99 c 0
 -322 -99 -390 -137 -419 -222 c 0
 -422 -232 -424 -236 -431 -236 c 0
 -437 -236 -441 -232 -441 -227 c 0
 -441 -199 -379 -66 -269 -66 c 0
 -197 -66 -166 -126 -166 -183 c 0
EndSplineSet
EndChar

StartChar: uni0306
Encoding: 774 774 196
Width: 0
Flags: MW
HStem: 517 33<-142 -90 -142 -63> 667 20G<-213 -202 40.5 47>
LayerCount: 2
Fore
SplineSet
54 678 m 0
 54 650 -8 517 -118 517 c 0
 -190 517 -221 577 -221 634 c 0
 -221 642 -221 687 -205 687 c 0
 -199 687 -195 683 -195 678 c 0
 -195 675 -200 654 -200 642 c 0
 -200 591 -169 550 -115 550 c 0
 -65 550 3 588 32 673 c 0
 35 683 37 687 44 687 c 0
 50 687 54 683 54 678 c 0
EndSplineSet
EndChar

StartChar: uni0311
Encoding: 785 785 197
Width: 0
Flags: MW
HStem: 517 21G<-246 -239.5 3 14> 654 33<-109 -57>
LayerCount: 2
Fore
SplineSet
22 570 m 0
 22 562 22 517 6 517 c 0
 0 517 -4 521 -4 526 c 0
 -4 529 1 550 1 562 c 0
 1 613 -30 654 -84 654 c 0
 -134 654 -202 616 -231 531 c 0
 -234 521 -236 517 -243 517 c 0
 -249 517 -253 521 -253 526 c 0
 -253 554 -191 687 -81 687 c 0
 -9 687 22 627 22 570 c 0
EndSplineSet
EndChar

StartChar: brokenbar
Encoding: 166 166 198
Width: 278
Flags: MW
HStem: -250 21G<67 87> 730 20G<317 337>
LayerCount: 2
Fore
SplineSet
245 343 m 2
 243 334 231 329 221 329 c 0
 211 329 203 334 205 343 c 2
 298 717 l 2
 302 731 307 750 327 750 c 0
 347 750 342 731 338 717 c 2
 245 343 l 2
105 -217 m 2
 101 -231 97 -250 77 -250 c 0
 57 -250 61 -231 65 -217 c 2
 158 157 l 2
 160 166 172 171 182 171 c 0
 192 171 200 166 198 157 c 2
 105 -217 l 2
EndSplineSet
EndChar

StartChar: bullet
Encoding: 8226 8226 199
Width: 750
Flags: MW
HStem: 95 286<421 446>
LayerCount: 2
Fore
SplineSet
580 266 m 0
 580 169 486 95 406 95 c 0
 336 95 288 145 288 210 c 0
 288 301 380 381 462 381 c 0
 512 381 580 354 580 266 c 0
EndSplineSet
EndChar

StartChar: Cacute
Encoding: 262 262 200
Width: 700
Flags: MW
HStem: -21 29<354.5 439.5> 675 29<523 594.5 461 633.5> 744 21G 881 20G<704.5 720>
VStem: 148 79<158 222 140 361.5>
LayerCount: 2
Fore
SplineSet
734 438 m 2
 730 422 728 421 718 421 c 0
 713 421 705 421 705 430 c 2
 705 439 l 2
 708 454 710 477 710 492 c 0
 710 536 698 675 569 675 c 0
 477 675 386 610 335 541 c 0
 238 407 227 236 227 208 c 0
 227 72 309 8 400 8 c 0
 493 8 610 86 655 239 c 0
 658 248 662 249 670 249 c 0
 676 249 684 249 684 240 c 1
 684 240 668 150 581 64 c 0
 573 57 494 -21 385 -21 c 0
 258 -21 148 73 148 243 c 0
 148 480 360 704 562 704 c 0
 627 704 678 674 710 615 c 1
 775 695 l 2
 782 704 788 704 788 704 c 1
 788 704 797 704 797 695 c 2
 797 695 796 685 795 682 c 2
 734 438 l 2
737 870 m 0x30
 735 855 720 847 712 844 c 2
 533 747 l 2
 529 745 523 743 519 744 c 0
 514 745 506 753 508 761 c 0
 508 764 509 766 519 772 c 2
 685 892 l 1
 685 892 698 901 711 901 c 0
 729 901 740 888 737 870 c 0x30
EndSplineSet
Position2: "'cpsp' Capital Spacing lookup 0 subtable" dx=7 dy=0 dh=14 dv=0
EndChar

StartChar: cacute
Encoding: 263 263 201
Width: 450
Flags: MW
HStem: -10 21G<211 313> 299 75 421 20G<335.5 360> 507 21G<333.5 338> 676 20G<495 509.5>
VStem: 110 64<101 137 84.5 226> 383 78<331 341>
LayerCount: 2
Fore
SplineSet
457 105 m 0
 457 91 375 -10 251 -10 c 0
 171 -10 110 50 110 152 c 0
 110 300 236 441 358 441 c 0
 419 441 461 404 461 357 c 0
 461 305 424 299 414 299 c 0
 405 299 383 304 383 329 c 0
 383 353 405 372 430 373 c 1
 416 421 363 421 357 421 c 0
 314 421 265 387 231 327 c 0
 198 270 174 160 174 114 c 0
 174 55 201 10 252 10 c 0
 303 10 378 38 431 110 c 0
 439 119 440 120 443 120 c 0
 449 120 457 112 457 105 c 0
529 669 m 0x18
 529 654 516 644 509 639 c 2
 349 513 l 2
 346 510 340 507 336 507 c 0
 331 507 322 514 322 522 c 0
 322 525 322 527 331 535 c 2
 474 682 l 1
 474 682 488 696 502 696 c 0
 517 696 529 684 529 669 c 0x18
EndSplineSet
EndChar

StartChar: caron
Encoding: 711 711 202
Width: 500
Flags: W
LayerCount: 2
Fore
SplineSet
555 666 m 2
 389 522 l 2
 384 518 377 518 374 522 c 2
 280 666 l 2
 272 676 290 690 298 682 c 2
 395 583 l 1
 544 682 l 2
 556 690 565 676 555 666 c 2
EndSplineSet
EndChar

StartChar: uni030C
Encoding: 780 780 203
Width: 0
Flags: W
LayerCount: 2
Fore
SplineSet
55 666 m 2
 -111 522 l 2
 -116 518 -123 518 -126 522 c 2
 -220 666 l 2
 -228 676 -210 690 -202 682 c 2
 -105 583 l 1
 44 682 l 2
 56 690 65 676 55 666 c 2
EndSplineSet
EndChar

